<?xml version="1.0" standalone="no"?>
<!DOCTYPE svg PUBLIC "-//W3C//DTD SVG 20010904//EN"
 "http://www.w3.org/TR/2001/REC-SVG-20010904/DTD/svg10.dtd">
<svg version="1.0" xmlns="http://www.w3.org/2000/svg"
 width="825.000000pt" height="189.000000pt" viewBox="0 0 825.000000 189.000000"
 preserveAspectRatio="xMidYMid meet">

<g transform="translate(0.000000,189.000000) scale(0.100000,-0.100000)"
fill="#000000" stroke="none">
<path d="M23 1834 c-6 -17 3 -244 11 -251 2 -3 59 -7 125 -10 l121 -6 0 -388
0 -389 160 0 160 0 0 390 0 390 130 0 130 0 0 140 0 140 -415 0 c-372 0 -416
-2 -422 -16z"/>
<path d="M1270 1315 l0 -535 160 0 160 0 2 251 3 250 150 -203 c83 -112 166
-224 185 -250 l33 -48 184 0 c101 0 183 2 183 5 0 3 -84 118 -187 257 -103
139 -187 260 -187 268 0 8 84 131 187 273 103 141 187 259 187 262 0 3 -82 5
-182 5 l-183 0 -20 -28 c-11 -16 -94 -131 -185 -257 l-165 -229 -3 257 -2 257
-160 0 -160 0 0 -535z"/>
<path d="M2973 1836 c-193 -45 -349 -193 -398 -381 -8 -33 -15 -95 -15 -140 0
-152 47 -263 154 -371 109 -109 219 -154 377 -154 227 0 418 133 495 346 122
334 -115 691 -471 710 -48 2 -104 -2 -142 -10z"/>
<path d="M4560 1321 l0 -531 313 0 c306 0 313 1 362 24 55 25 109 80 133 135
21 48 20 165 -2 213 -24 57 -75 109 -130 134 l-50 23 30 11 c16 6 44 23 62 37
155 118 140 352 -28 447 l-55 31 -317 3 -318 3 0 -530z"/>
<path d="M5870 1320 l0 -530 160 0 160 0 2 254 3 253 185 -253 185 -253 183 0
c100 -1 182 2 182 7 0 4 -85 122 -189 262 l-188 255 -144 5 c-83 3 -133 8
-119 12 14 4 45 24 69 45 121 103 122 297 3 405 -63 57 -116 68 -319 68 l-173
0 0 -530z"/>
<path d="M7563 1836 c-331 -76 -504 -446 -353 -753 92 -186 265 -293 475 -293
155 0 273 50 378 159 105 108 147 214 147 365 -1 109 -11 161 -51 242 -84 171
-254 280 -449 290 -52 2 -109 -2 -147 -10z"/>
<path d="M1410 219 l0 -121 75 4 c93 4 124 28 132 102 11 95 -33 136 -147 136
l-60 0 0 -121z m146 46 c11 -17 14 -35 10 -59 -8 -41 -20 -52 -68 -61 l-38 -7
0 76 0 76 40 0 c31 0 43 -5 56 -25z"/>
<path d="M1710 315 c0 -20 5 -25 25 -25 20 0 25 5 25 25 0 20 -5 25 -25 25
-20 0 -25 -5 -25 -25z"/>
<path d="M2140 315 c0 -18 5 -25 20 -25 15 0 20 7 20 25 0 18 -5 25 -20 25
-15 0 -20 -7 -20 -25z"/>
<path d="M2730 220 c0 -113 1 -120 20 -120 19 0 20 7 20 120 0 113 -1 120 -20
120 -19 0 -20 -7 -20 -120z"/>
<path d="M3059 311 c-26 -26 -29 -36 -29 -91 0 -55 3 -65 29 -91 25 -25 37
-29 84 -29 49 0 58 3 81 31 34 40 34 69 1 69 -14 0 -25 -4 -25 -10 0 -17 -39
-50 -60 -50 -33 0 -60 35 -60 80 0 47 27 80 65 80 14 0 30 -9 37 -20 8 -12 24
-20 40 -20 32 0 33 2 13 39 -17 35 -32 41 -97 41 -41 0 -54 -5 -79 -29z"/>
<path d="M4220 315 c0 -20 5 -25 25 -25 20 0 25 5 25 25 0 20 -5 25 -25 25
-20 0 -25 -5 -25 -25z"/>
<path d="M5055 320 c-24 -27 -24 -79 1 -97 10 -7 36 -16 57 -20 48 -7 73 -29
56 -49 -18 -22 -58 -17 -83 11 -26 28 -72 35 -62 9 3 -9 6 -20 6 -25 0 -5 9
-18 20 -29 31 -31 123 -28 155 5 48 47 23 96 -61 121 -41 12 -54 20 -52 32 5
26 54 28 70 3 16 -27 58 -28 58 -3 0 10 -10 28 -23 40 -32 30 -116 31 -142 2z"/>
<path d="M5590 220 l0 -120 25 0 25 0 0 120 0 120 -25 0 -25 0 0 -120z"/>
<path d="M6180 315 c0 -20 5 -25 25 -25 20 0 25 5 25 25 0 20 -5 25 -25 25
-20 0 -25 -5 -25 -25z"/>
<path d="M2300 300 c0 -11 -7 -20 -15 -20 -8 0 -15 -9 -15 -20 0 -11 7 -20 15
-20 11 0 15 -16 17 -67 l3 -68 38 -3 c34 -3 37 -1 37 22 0 16 -6 26 -15 26
-11 0 -15 12 -15 45 0 33 4 45 15 45 8 0 15 9 15 20 0 11 -7 20 -15 20 -8 0
-15 9 -15 20 0 15 -7 20 -25 20 -18 0 -25 -5 -25 -20z"/>
<path d="M4050 300 c0 -11 -7 -20 -15 -20 -8 0 -15 -9 -15 -20 0 -11 7 -20 15
-20 11 0 15 -13 15 -54 0 -75 6 -86 46 -86 30 0 34 3 34 25 0 16 -6 25 -15 25
-11 0 -15 12 -15 45 0 33 4 45 15 45 8 0 15 9 15 20 0 11 -7 20 -15 20 -8 0
-15 9 -15 20 0 15 -7 20 -25 20 -18 0 -25 -5 -25 -20z"/>
<path d="M6010 300 c0 -11 -7 -20 -15 -20 -8 0 -15 -9 -15 -20 0 -11 7 -20 15
-20 12 0 15 -13 15 -58 0 -65 11 -82 52 -82 23 0 28 4 28 25 0 16 -6 25 -15
25 -11 0 -15 12 -15 45 0 33 4 45 15 45 8 0 15 9 15 20 0 11 -7 20 -15 20 -8
0 -15 9 -15 20 0 15 -7 20 -25 20 -18 0 -25 -5 -25 -20z"/>
<path d="M1710 190 c0 -89 0 -90 25 -90 25 0 25 1 25 90 0 89 0 90 -25 90 -25
0 -25 -1 -25 -90z"/>
<path d="M1880 260 c-14 -14 -20 -33 -20 -65 0 -61 35 -99 86 -93 37 4 45 -6
15 -21 -13 -7 -24 -6 -37 4 -22 17 -64 20 -64 5 0 -6 11 -22 25 -35 30 -31 82
-33 119 -4 25 20 26 24 26 124 l0 103 -65 1 c-53 1 -69 -3 -85 -19z m94 -42
c20 -29 20 -34 -4 -58 -27 -27 -60 -11 -60 28 0 51 38 68 64 30z"/>
<path d="M2140 190 c0 -89 0 -90 25 -90 25 0 25 1 25 90 0 89 0 90 -25 90 -25
0 -25 -1 -25 -90z"/>
<path d="M2488 269 c-25 -14 -23 -49 2 -49 11 0 29 6 40 12 15 10 22 10 31 1
9 -9 5 -13 -17 -18 -53 -11 -79 -29 -82 -58 -6 -46 12 -56 92 -55 l71 0 -3 77
c-2 42 -9 82 -14 89 -12 14 -96 16 -120 1z m82 -103 c0 -17 -34 -31 -50 -21
-16 10 8 35 31 35 11 0 19 -6 19 -14z"/>
<path d="M3340 189 c0 -88 0 -89 25 -89 23 0 25 3 25 50 0 49 23 90 50 90 6 0
10 9 10 19 0 17 -7 20 -55 20 l-55 0 0 -90z"/>
<path d="M3558 270 c-27 -16 -41 -74 -28 -115 14 -42 35 -55 88 -55 38 0 72
22 72 48 0 15 -42 16 -57 1 -6 -6 -20 -8 -32 -4 -40 13 -20 25 40 25 l62 0 -6
36 c-9 53 -32 74 -81 74 -23 0 -49 -5 -58 -10z m80 -47 c2 -9 -7 -13 -27 -13
-30 0 -39 9 -24 24 11 10 46 3 51 -11z"/>
<path d="M3796 258 c-9 -12 -16 -26 -16 -30 0 -12 38 -10 59 4 10 6 27 8 37 4
16 -6 16 -9 4 -16 -8 -6 -27 -10 -41 -10 -32 0 -59 -28 -59 -62 0 -38 19 -47
93 -47 l67 1 0 73 c0 90 -11 105 -80 105 -39 0 -52 -4 -64 -22z m94 -86 c0
-14 -23 -32 -42 -32 -20 0 -25 26 -5 33 20 8 47 8 47 -1z"/>
<path d="M4220 190 c0 -89 0 -90 25 -90 25 0 25 1 25 90 0 89 0 90 -25 90 -25
0 -25 -1 -25 -90z"/>
<path d="M4363 268 c2 -7 17 -48 33 -90 25 -69 31 -78 54 -78 23 0 28 9 57 90
l32 90 -28 0 c-25 0 -30 -5 -41 -45 -7 -25 -16 -45 -20 -45 -4 0 -13 20 -20
45 -11 40 -16 45 -42 45 -20 0 -29 -4 -25 -12z"/>
<path d="M4648 270 c-27 -16 -41 -74 -28 -115 14 -42 35 -55 88 -55 38 0 72
22 72 48 0 15 -42 16 -57 1 -6 -6 -20 -8 -32 -4 -40 13 -20 25 40 25 l62 0 -6
36 c-9 53 -32 74 -81 74 -23 0 -49 -5 -58 -10z m80 -47 c2 -9 -7 -13 -27 -13
-31 0 -42 14 -18 23 19 8 40 3 45 -10z"/>
<path d="M5331 254 c-13 -16 -21 -41 -21 -64 0 -23 8 -48 21 -64 28 -36 105
-38 137 -3 31 33 31 105 -1 135 -35 33 -109 31 -136 -4z m97 -26 c17 -17 15
-63 -3 -78 -20 -17 -54 -3 -61 25 -12 47 33 84 64 53z"/>
<path d="M5740 206 c0 -96 9 -106 96 -106 l64 0 0 90 c0 89 0 90 -25 90 -24 0
-25 -3 -25 -59 0 -61 -16 -89 -45 -77 -11 4 -15 22 -15 71 0 63 -1 65 -25 65
-24 0 -25 -2 -25 -74z"/>
<path d="M6180 190 c0 -89 0 -90 25 -90 25 0 25 1 25 90 0 89 0 90 -25 90 -25
0 -25 -1 -25 -90z"/>
<path d="M6350 258 c-29 -32 -28 -107 3 -136 35 -33 109 -31 136 4 13 16 21
41 21 64 0 23 -8 48 -21 64 -17 22 -28 26 -69 26 -38 0 -54 -5 -70 -22z m100
-39 c16 -28 5 -66 -21 -74 -27 -9 -49 11 -49 44 0 50 49 70 70 30z"/>
<path d="M6600 189 c0 -88 0 -89 25 -89 24 0 25 3 25 59 0 61 16 89 45 77 11
-4 15 -22 15 -71 0 -63 1 -65 25 -65 24 0 25 2 25 71 0 102 -6 109 -90 108
l-70 -1 0 -89z"/>
</g>
</svg>
