<?xml version="1.0" encoding="UTF-8"?>
<svg id="Layer_2" data-name="Layer 2" xmlns="http://www.w3.org/2000/svg" viewBox="0 0 654.13 138.85">
  <defs>
    <style>
      .cls-1 {
        fill: #fff;
        stroke-width: 0px;
      }
    </style>
  </defs>
  <g id="Layer_1-2" data-name="Layer 1">
    <g>
      <g>
        <g>
          <path class="cls-1" d="M57.3,1.9l30.77,75.49h-24.42l-19.88-54.13-19.88,54.13H0L30.77,1.9h26.54Z"/>
          <path class="cls-1" d="M157.67,77.39l-14.48-46.73-14.17,46.73h-23.26L81.23,1.9h23.79l13.53,50.22,15.01-49.69h20.3l15.22,49.69L182.41,1.9h23.26l-24.32,75.49h-23.68Z"/>
          <path class="cls-1" d="M343.19,24.63c-1.2-2.96-3.03-5.09-5.5-6.4-2.47-1.3-5.85-1.96-10.15-1.96-4.86,0-8.55.53-11.05,1.59-2.5,1.06-3.75,2.61-3.75,4.65,0,1.9.67,3.31,2.01,4.23,1.34.92,3.95,1.69,7.82,2.33l16.28,2.64c9.8,1.55,16.86,4.18,21.2,7.88,4.34,3.7,6.5,8.86,6.5,15.49,0,7.97-3.21,13.99-9.62,18.08-6.41,4.09-15.89,6.13-28.44,6.13s-22.11-2.22-28.7-6.66c-6.59-4.44-10.31-11.14-11.15-20.09h22.2c.7,3.59,2.47,6.24,5.29,7.93,2.82,1.69,6.94,2.54,12.37,2.54,5.07,0,8.99-.63,11.74-1.9,2.75-1.27,4.12-3.07,4.12-5.39,0-1.76-.76-3.14-2.27-4.12-1.52-.99-4.14-1.76-7.88-2.33l-13.43-2.01c-10.36-1.55-17.94-4.26-22.73-8.14-4.79-3.88-7.19-9.2-7.19-15.96,0-7.26,3.31-12.93,9.94-17.02,6.62-4.09,15.79-6.13,27.49-6.13,10.85,0,19.26,1.87,25.22,5.6,5.96,3.74,9.6,9.37,10.94,16.92l-21.25,2.11Z"/>
          <path class="cls-1" d="M464.46,39.65c0,8.04-1.78,15.03-5.34,20.99-3.56,5.96-8.74,10.56-15.54,13.8-6.8,3.24-14.93,4.86-24.37,4.86s-16.99-1.55-23.68-4.65c-6.7-3.1-11.88-7.63-15.54-13.59-3.67-5.96-5.5-13.09-5.5-21.41s1.78-15.03,5.34-20.99c3.56-5.96,8.74-10.56,15.54-13.8,6.8-3.24,14.92-4.86,24.37-4.86s16.99,1.55,23.68,4.65c6.7,3.1,11.88,7.63,15.54,13.59,3.66,5.96,5.5,13.09,5.5,21.41ZM441.41,39.65c0-6.91-1.9-12.26-5.71-16.07-3.81-3.81-9.2-5.71-16.18-5.71s-12.39,1.9-16.23,5.71c-3.84,3.81-5.76,9.16-5.76,16.07s1.9,12.26,5.71,16.07c3.81,3.81,9.2,5.71,16.18,5.71s12.39-1.9,16.23-5.71c3.84-3.81,5.76-9.16,5.76-16.07Z"/>
          <path class="cls-1" d="M552.84,77.39v-43.98l-19.56,43.98h-16.28l-19.56-43.77v43.77h-20.09V1.9h25.06l23.15,51.38,23.05-51.38h24.63v75.49h-20.41Z"/>
          <path class="cls-1" d="M590.59,77.39V1.9h63.54v17.02h-41.76v11.52h41.76v17.02h-41.76v12.9h41.76v17.02h-63.54Z"/>
        </g>
        <polygon class="cls-1" points="238.59 39.65 214.79 54.27 214.79 77.39 278.55 77.39 278.55 58.35 238.25 58.35 264.77 39.65 237.91 20.77 278.55 20.77 278.55 1.9 214.79 1.9 214.79 25.03 238.59 39.65"/>
      </g>
      <g>
        <path class="cls-1" d="M202.14,114.23c-.54-1.33-1.37-2.29-2.48-2.88-1.11-.59-2.64-.88-4.57-.88-2.19,0-3.85.24-4.98.71-1.13.48-1.69,1.18-1.69,2.1,0,.86.3,1.49.91,1.91.6.41,1.78.76,3.52,1.05l7.33,1.19c4.41.7,7.6,1.88,9.55,3.55,1.95,1.67,2.93,3.99,2.93,6.98,0,3.59-1.45,6.3-4.33,8.14-2.89,1.84-7.16,2.76-12.81,2.76s-9.96-1-12.93-3c-2.97-2-4.64-5.02-5.02-9.05h10c.32,1.62,1.11,2.81,2.38,3.57,1.27.76,3.13,1.14,5.57,1.14,2.29,0,4.05-.29,5.29-.86,1.24-.57,1.86-1.38,1.86-2.43,0-.79-.34-1.41-1.02-1.86-.68-.44-1.87-.79-3.55-1.05l-6.05-.9c-4.67-.7-8.08-1.92-10.24-3.67-2.16-1.75-3.24-4.14-3.24-7.19,0-3.27,1.49-5.83,4.48-7.67,2.98-1.84,7.11-2.76,12.38-2.76,4.89,0,8.68.84,11.36,2.52,2.68,1.68,4.33,4.22,4.93,7.62l-9.57.95Z"/>
        <path class="cls-1" d="M252.24,103.99h10v19.19c0,5.3-1.43,9.24-4.29,11.81-2.86,2.57-7.24,3.86-13.15,3.86s-10.29-1.29-13.15-3.86c-2.86-2.57-4.29-6.51-4.29-11.81v-19.19h10v19.91c0,2.38.6,4.13,1.79,5.24,1.19,1.11,3.07,1.67,5.64,1.67s4.45-.56,5.64-1.67c1.19-1.11,1.79-2.86,1.79-5.24v-19.91Z"/>
        <path class="cls-1" d="M313.2,137.99v-19.81l-8.81,19.81h-7.33l-8.81-19.72v19.72h-9.05v-34.01h11.29l10.43,23.15,10.38-23.15h11.1v34.01h-9.19Z"/>
        <path class="cls-1" d="M373.74,137.99v-19.81l-8.81,19.81h-7.33l-8.81-19.72v19.72h-9.05v-34.01h11.29l10.43,23.15,10.38-23.15h11.1v34.01h-9.19Z"/>
        <path class="cls-1" d="M400.26,137.99v-34.01h29.62v7.67h-19.81v5.19h18.81v7.67h-18.81v5.81h20.96l-.95,7.67h-29.81Z"/>
        <path class="cls-1" d="M470.47,137.99l-6.81-11.53h-7.81v11.53h-9.43v-34.01h17.38c10.13,0,15.19,3.76,15.19,11.29,0,2.25-.49,4.14-1.48,5.64-.98,1.51-2.49,2.72-4.52,3.64l8.33,13.43h-10.86ZM463.18,119.23c2.16,0,3.73-.32,4.72-.95.98-.63,1.48-1.67,1.48-3.1s-.47-2.41-1.4-3.02c-.94-.62-2.5-.93-4.69-.93h-7.43v8h7.33Z"/>
      </g>
    </g>
  </g>
</svg>