<?xml version="1.0" encoding="UTF-8"?>
<svg id="Layer_2" data-name="Layer 2" xmlns="http://www.w3.org/2000/svg" viewBox="0 0 349.49 151.48">
  <defs>
    <style>
      .cls-1 {
        fill: #fff;
        stroke-width: 0px;
      }
    </style>
  </defs>
  <g id="Layer_1-2" data-name="Layer 1">
    <g>
      <path class="cls-1" d="M316.37,73.52c17.77-4.04,28.28-13.73,28.28-33.53v-1.62c0-31.91-29.08-38.37-60.59-38.37h-105.83v151.48h109.47c33.53,0,61.8-7.27,61.8-41.2v-2.42c0-21-11.71-31.91-33.12-34.33ZM223.46,31.91h52.51c12.93,0,22.62,1.21,22.62,14.14v1.21c0,12.12-10.1,13.33-22.22,13.33h-52.92v-28.68ZM302.23,104.22c0,12.52-9.69,14.95-22.22,14.95h-56.55v-30.3h54.94c12.12,0,23.83,1.62,23.83,14.54v.81Z"/>
      <path class="cls-1" d="M4.85,38.37v1.62c0,19.79,10.5,29.49,28.28,33.53C11.71,75.94,0,86.85,0,107.85v2.42c0,33.93,28.28,41.2,61.8,41.2h109.47V0h-105.83C33.93,0,4.85,6.46,4.85,38.37ZM126.03,119.16h-56.55c-12.52,0-22.22-2.42-22.22-14.95v-.81c0-12.93,11.71-14.54,23.83-14.54h54.94v30.3ZM126.03,31.91v28.68h-52.92c-12.12,0-22.22-1.21-22.22-13.33v-1.21c0-12.93,9.69-14.14,22.62-14.14h52.51Z"/>
    </g>
  </g>
</svg>