<?xml version="1.0" encoding="UTF-8"?>
<svg id="Layer_2" data-name="Layer 2" xmlns="http://www.w3.org/2000/svg" viewBox="0 0 1125 156.83">
  <defs>
    <style>
      .cls-1 {
        fill: #fff;
        stroke-width: 0px;
      }
    </style>
  </defs>
  <g id="Layer_1-2" data-name="Layer 1">
    <g>
      <path class="cls-1" d="M556.23,68.59v20.49c0,47.26,27.18,67.75,89.08,67.75h96.61V62.73h-103.3v31.78h58.13v27.6h-49.77c-30.95,0-41.4-8.78-41.4-35.55v-12.55c0-29.28,10.04-39.31,40.15-39.31h96.19V0h-98.28c-60.64,0-87.41,20.91-87.41,68.59Z"/>
      <polygon class="cls-1" points="812.17 94.52 911.29 94.52 911.29 61.9 812.17 61.9 812.17 34.71 917.57 34.71 917.57 0 765.33 0 765.33 156.83 918.4 156.83 918.4 122.12 812.17 122.12 812.17 94.52"/>
      <polygon class="cls-1" points="1032.16 58.55 996.19 0 939.31 0 939.31 156.83 986.15 156.83 986.15 57.71 1032.16 122.96 1078.58 56.88 1078.58 156.83 1125 156.83 1125 0 1068.12 0 1032.16 58.55"/>
      <polygon class="cls-1" points="552.46 0 497.26 0 427.83 77.79 499.77 156.83 556.23 156.83 488.06 77.37 552.46 0"/>
      <rect class="cls-1" x="370.54" width="47.68" height="156.83"/>
      <path class="cls-1" d="M143.03,76.12c18.4-4.18,29.28-14.22,29.28-34.71v-1.67C172.3,6.69,142.19,0,109.57,0H0v156.83h113.34c34.71,0,63.99-7.53,63.99-42.66v-2.51c0-21.75-12.13-33.04-34.29-35.55ZM46.84,33.04h54.37c13.38,0,23.42,1.25,23.42,14.64v1.25c0,12.55-10.46,13.8-23,13.8h-54.79v-29.69ZM128.39,107.9c0,12.96-10.04,15.47-23,15.47h-58.55v-31.37h56.88c12.55,0,24.67,1.67,24.67,15.06v.84Z"/>
      <polygon class="cls-1" points="244.24 0 196.56 0 196.56 156.83 349.63 156.83 349.63 119.19 244.24 119.19 244.24 0"/>
    </g>
  </g>
</svg>