<?xml version="1.0" encoding="UTF-8"?>
<svg id="Layer_2" data-name="Layer 2" xmlns="http://www.w3.org/2000/svg" viewBox="0 0 355.91 309">
  <defs>
    <style>
      .cls-1 {
        fill: #000;
        stroke-width: 0px;
      }
    </style>
  </defs>
  <g id="Layer_1-2" data-name="Layer 1">
    <g>
      <g>
        <path class="cls-1" d="M162.24,283.26v5.98c0,13.78,7.93,19.76,25.98,19.76h28.18v-27.45h-30.13v9.27h16.96v8.05h-14.52c-9.03,0-12.08-2.56-12.08-10.37v-3.66c0-8.54,2.93-11.47,11.71-11.47h28.06v-10.12h-28.67c-17.69,0-25.49,6.1-25.49,20.01Z"/>
        <polygon class="cls-1" points="236.89 290.82 265.8 290.82 265.8 281.31 236.89 281.31 236.89 273.38 267.63 273.38 267.63 263.26 223.23 263.26 223.23 309 267.87 309 267.87 298.88 236.89 298.88 236.89 290.82"/>
        <polygon class="cls-1" points="301.05 280.33 290.56 263.26 273.97 263.26 273.97 309 287.64 309 287.64 280.09 301.05 299.12 314.59 279.85 314.59 309 328.13 309 328.13 263.26 311.54 263.26 301.05 280.33"/>
        <polygon class="cls-1" points="161.14 263.26 145.04 263.26 124.79 285.95 145.77 309 162.24 309 142.35 285.82 161.14 263.26"/>
        <rect class="cls-1" x="108.08" y="263.26" width="13.91" height="45.74"/>
        <path class="cls-1" d="M41.72,285.46c5.37-1.22,8.54-4.15,8.54-10.12v-.49c0-9.64-8.78-11.59-18.3-11.59H0v45.74h33.06c10.12,0,18.66-2.2,18.66-12.44v-.73c0-6.34-3.54-9.64-10-10.37ZM13.66,272.89h15.86c3.9,0,6.83.37,6.83,4.27v.37c0,3.66-3.05,4.03-6.71,4.03h-15.98v-8.66ZM37.45,294.73c0,3.78-2.93,4.51-6.71,4.51H13.66v-9.15h16.59c3.66,0,7.2.49,7.2,4.39v.24Z"/>
        <polygon class="cls-1" points="71.24 263.26 57.33 263.26 57.33 309 101.98 309 101.98 298.02 71.24 298.02 71.24 263.26"/>
      </g>
      <g>
        <polygon class="cls-1" points="130.2 164.86 77.55 217.51 135.1 217.51 187.75 164.86 131.65 108.76 187.75 52.65 135.1 0 77.55 0 130.2 52.65 74.09 108.76 130.2 164.86"/>
        <polygon class="cls-1" points="328.13 80.85 247.29 0 189.73 0 270.58 80.85 328.13 80.85"/>
        <rect class="cls-1" y="0" width="49.19" height="217.51"/>
        <polygon class="cls-1" points="183.98 108.76 217.34 142.12 265.13 142.12 189.73 217.51 247.29 217.51 355.91 108.89 355.74 108.89 355.91 108.76 183.98 108.76"/>
      </g>
    </g>
  </g>
</svg>