<?xml version="1.0" encoding="UTF-8"?>
<svg id="Layer_2" data-name="Layer 2" xmlns="http://www.w3.org/2000/svg" viewBox="0 0 108.08 92.85">
  <defs>
    <style>
      .cls-1 {
        fill: #fff;
        stroke-width: 0px;
      }
    </style>
  </defs>
  <g id="Layer_1-2" data-name="Layer 1">
    <g>
      <path class="cls-1" d="M68.89,63.07c-.22.2-.52.32-.76.51-.63.52-.74,1.16-.73,1.81,0,.5.34.8.82.82,1.27.06,2.55.12,3.84.05.93-.05,1.61-.72,1.68-1.61.05-.59-.09-1.21-.33-1.7-.47-.95-.75-1.96-.82-3.07-.12-1.87-.26-3.73-.44-5.58-.11-1.16-.5-1.47-1.75-1.52-.87-.03-3.59-.13-3.96-.14-1.32-.04-2.65-.04-4.02.41-1.49.5-2.68,1.5-3.37,2.7-2.67,0-5.34.34-7.91,1.09-2.04.59-3.97,1.45-5.9,2.31-.2.09-.4.18-.6.27-.09.04-.18.08-.28.12-.03.01-.07.03-.1.04-.03.01-.05.02-.08.03-.36.15-.72.29-1.09.42-.34.12-.69.22-1.05.3-.17.04-.33.07-.5.09-.04,0-.08,0-.12.01-.08,0-.17.02-.26.02-.51.03-1.03-.01-1.54-.07-.03,0-.07,0-.1-.01,0,0,0,0-.01,0-.07-.01-.14-.02-.22-.03-.17-.03-.34-.06-.51-.1-.3-.06-.59-.14-.88-.23-.13-.04-.25-.08-.38-.13-.07-.03-.15-.05-.22-.08-.02,0-.05-.02-.07-.03,0,0-.02,0-.02,0,0,0,0,0,0,0-.25-.11-.5-.23-.74-.37-.23-.13-.45-.28-.67-.43,0,0-.02-.01-.03-.02,0,0-.02-.01-.02-.02,0,0,0,0,0,0-.01,0-.02-.02-.03-.02,0,0,.01,0,.02.01-.04-.04-.09-.07-.13-.11-.1-.08-.19-.17-.29-.26-.18-.17-.35-.36-.51-.56-.02-.03-.04-.05-.06-.08.01.01.02.02.02.03,0,0,0,0,0,0-.03-.05-.07-.09-.1-.14-.07-.11-.15-.22-.21-.33-.13-.22-.23-.45-.34-.67,0-.02-.01-.04-.02-.06-.02-.05-.04-.11-.06-.16-.05-.13-.09-.27-.13-.4-.07-.26-.13-.51-.17-.78,0-.01,0-.02,0-.03,0,0,0-.01,0-.02,0-.07-.02-.14-.02-.2-.01-.15-.02-.29-.03-.44,0-.29,0-.58.02-.87.01-.14.03-.27.04-.41.01-.03.01-.08.02-.12.01-.08.03-.17.04-.25.05-.26.11-.52.17-.78.65.19,1.8.5,2.07.32.28-.18.39-.47.45-.63-.81-.23-1.68-.51-2.59-.86-.91-.34-1.76-.7-2.51-1.06-.07.16-.17.44-.08.77.08.27.84.69,1.45.98-.62,2.3-.55,4.91.95,6.88,1.56,2.05,4.08,2.92,6.58,3.08.82.05,1.64-.03,2.44-.24.81-.21,1.58-.53,2.34-.86.84-.36,1.67-.75,2.51-1.12.11-.05.23-.1.34-.15.05-.02.09-.04.14-.06.04-.02.08-.03.11-.05.24-.1.48-.2.72-.29.52-.2,1.05-.4,1.58-.57,1.2-.4,2.43-.72,3.68-.94.35-.06.7-.12,1.04-.17.04,0,.07-.01.11-.02.01,0,.02,0,.03,0,.08-.01.16-.02.24-.03.2-.02.4-.05.59-.06.79-.08,1.58-.12,2.37-.14-.13.55-.17,1.11-.08,1.67.2,1.36,1.28,2.13,2.78,1.99,1.39-.13,2.56-1.05,2.98-2.35.49-1.49.02-2.15-1.54-2.13-.04,0-.08,0-.12,0-.44-.02-.48-.26-.21-.58.15-.19.4-.37.62-.44.84-.28,1.68-.36,2.29.13.59.46.41,1.21.18,1.92-.08.25-.18.5-.31.74-.99,1.78-1.93,3.59-3.51,5.07-.25.23-.47.52-.63.8-.6,1.08-.31,2.13.74,2.26,1.06.13,2.18.11,3.3.05.73-.04,1.18-.5,1.41-1.2.28-.85.02-1.45-.6-1.93-.03-.03-.06-.06-.08-.1-.12-.23,0-.52.23-.64.1-.05.19-.09.29-.09.85-.02,1.69-.01,2.53.03.18,0,.46.15.46.27,0,.18-.19.41-.36.56ZM33.74,53.37c.01-.1,0,0,0,.04,0-.01,0-.02,0-.04ZM68.16,60.06c-.08,0-.16,0-.24,0-1.27-.01-1.33-.11-.73-1.27.33-.65.65-1.31,1.02-1.94.05-.09.14-.16.24-.23.21-.14.51-.06.6.17.01.03.02.06.02.08.07.73.09,1.47.12,2.21.03.85-.11.98-1.03.97Z"/>
      <path class="cls-1" d="M80.92,55.83c.09-.23.48-.53.71-.55.22-.02.47.23.62.44.17.24.22.56.36.82.28.54.8.57,1.32.15.9-.72,1.2-1.65,1.18-2.62-.01-.91-.59-1.39-1.44-1.52-1.82-.27-3.57.19-5.16,1.54-1.42,1.2-1.77,2.46-1.12,3.87,0,0,0,0,0,0,.09.2-.04.44-.25.5-.06.02-.12.03-.17.03-1.59.17-2.24.78-2.43,2.27-.09.69.14,1.14.89,1.15.6,0,.87.29.75.82-.4,1.69-.82,3.37-1.34,5.05-.05.15-.16.29-.3.42-.43.42-1.15.34-1.46-.17h0c-.4-.67-1.23-.75-1.89-.15-1.36,1.26-1.13,3.07.47,3.41,1.18.25,2.41.11,3.65-.44,2.91-1.31,4.67-4.42,4.15-7.29-.09-.49-.17-.99-.27-1.6.5-.04.86-.06,1.21-.08,1.08-.08,1.81-.87,2.01-2.17.14-.93-.21-1.27-1.36-1.23-.52.02-.81-.18-.71-.67.14-.66.33-1.34.59-1.99Z"/>
      <path class="cls-1" d="M25.66,67.33c-.47-.74-1.35-1.36-2.24-1.62-2.62-.76-5.44-.51-8.3.66-7.15,2.92-13.11,10.99-13.57,18.33-.24,3.84,1.24,6.4,4.22,7.58,1.59.63,3.34.73,5.01.34,1.4-.32,2.81-.63,4.15-1.16,2.69-1.07,4.72-2.97,5.63-5.69.67-2-.38-2.89-2.43-2.12-1.05.4-2.09.88-3.14,1.14-3.02.75-4.85-.6-4.62-3.43.24-2.88,1.43-5.58,3.49-8.05.39-.47.88-.9,1.39-1.25,1.42-.96,2.52-.75,3.02.58.3.8.42,1.69.71,2.5.66,1.86,3.06,2.09,4.74.48,1.86-1.77,3.08-6.52,1.94-8.29Z"/>
      <path class="cls-1" d="M51.3,31.99c-1.22,1.61-1.1,2.88.38,3.77,1.42.85,1.42,2,.56,3.47-.57.97-1.28,1.89-1.75,2.87-.71,1.48-1.5,2.99-1.85,4.51-.47,2.05.52,3.13,2.53,3.47,2.48.42,4.61-.47,6.51-2.47.86-.9,1.76-1.77,2.65-2.65.13-.13.33-.16.48-.07,0,0,0,0,0,0,0,0,0,0,0,0,.16.09.25.27.21.45-.1.51-.2,1.03-.31,1.54-.56,2.63.63,3.76,3.43,3.25,3.14-.58,6.73-4.16,7-7.12.05-.55-.32-1.32-.79-1.51-.97-.39-.96-1.05-.66-1.9.24-.68.6-1.34.87-2.01,1.12-2.75,2.43-5.47,3.29-8.25.66-2.12-.74-3.23-3.02-2.86-2.93.48-6.81,3.46-7.77,6.15-.26.74-.22,1.77.17,2.33,1.55,2.26.18,5.69-2.89,6.94-1.65.67-2.49.16-2.18-1.48.2-1.07.65-2.16,1.09-3.22,1.05-2.52,2.37-5.01,3.18-7.55.84-2.63-.65-3.84-3.45-3.05-3.15.89-5.71,2.79-7.69,5.42Z"/>
      <path class="cls-1" d="M52.46,84.16c.14-.9.57-1.81.91-2.72.81-2.14,1.72-4.26,2.4-6.41.2-.62-.05-1.67-.51-1.9-.58-.29-1.62-.07-2.41.2-.65.22-1.22.84-1.91,1.34-3.05-2.39-4.91-2.53-7.83-.28-4.75,3.67-7.39,8.27-7.92,13.59-.11,1.09.21,2.26.7,3.17,1.15,2.13,3.9,2.24,6.14.34,1.13-.96,2.16-2.02,3.23-3.04.07-.07.18-.08.27-.03h.02c.1.07.15.18.12.29-.11.44-.22.87-.34,1.31-.58,2.18.56,3.26,2.86,2.69,2.46-.61,5.13-3.38,5.37-5.7.05-.48-.37-.91-.56-1.37-.2-.49-.61-.97-.53-1.47ZM47.85,80.55c-.85,1.63-1.62,3.2-2.56,4.7-.32.51-1.2,1.27-1.92,1.01-.71-.25-.82-1.02-.69-1.5.52-1.94,1.38-3.82,2.36-5.64.09-.17.2-.32.33-.46.27-.3.43-.42.78-.6.71-.36,1.58,0,1.84.75h0c.19.57.15,1.2-.13,1.74Z"/>
      <path class="cls-1" d="M67.52,81.61c-.79-.65-1.57-1.31-2.29-2.02-.52-.52-.94-1.3-.03-1.92.38-.26,1.4.02,1.82.38.7.59,1.09,1.49,1.73,2.15.85.88,2.06.6,2.9-.58,2.4-3.37,1.54-6-2.14-6.54-.14-.02-.28-.05-.43-.06-2.58-.17-5.16.13-7.65,1.67-2.19,1.36-3.33,3.24-3.48,5.51-.13,2.01,1.15,3.01,2.79,3.69,1.02.42,2.12.7,3.12,1.15.07.03.12.07.18.12.4.35.33,1-.11,1.3-.2.13-.4.24-.59.27-1.81.26-3.22-.24-4.3-1.46-1.02-1.14-2.19-.92-3.35.51-2.18,2.67-1.57,5.75,1.37,6.6.93.27,1.97.33,2.7.45.93-.06,1.57-.08,2.22-.15,2.97-.33,5.74-2.21,6.99-4.77,1.34-2.76.44-4.7-1.46-6.26Z"/>
      <path class="cls-1" d="M84.83,73.08c-.14-.02-.28-.05-.43-.06-2.58-.17-5.16.13-7.65,1.67-2.19,1.36-3.33,3.24-3.48,5.51-.13,2.01,1.15,3.01,2.79,3.69,1.02.42,2.12.7,3.12,1.15.07.03.12.07.18.12.4.35.33,1-.11,1.3-.2.13-.4.24-.59.27-1.81.26-3.22-.24-4.3-1.46-1.02-1.14-2.19-.92-3.35.51-2.18,2.67-1.57,5.75,1.37,6.6.93.27,1.97.33,2.7.45.93-.06,1.57-.08,2.22-.15,2.97-.33,5.74-2.21,6.99-4.77,1.34-2.76.44-4.7-1.46-6.26-.79-.65-1.57-1.31-2.29-2.02-.52-.52-.94-1.3-.03-1.92.38-.26,1.4.02,1.82.38.7.59,1.09,1.49,1.73,2.15.85.88,2.06.6,2.9-.58,2.4-3.37,1.54-6-2.14-6.54Z"/>
      <path class="cls-1" d="M95.66,62c1.5-.71,2.47-1.82,2.79-3.32.26-1.19-.4-2.06-1.59-2.24-1.1-.17-2.17.09-3.17.81-2.25,1.62-3.52,3.7-3.69,6.14-.17,2.49,2.07,3.61,4.59,2.39.95-.46,1.78-1.08,2.15-2.07.29-.8-.05-1.08-.9-.86-.54.14-1.1.29-1.62.27-.78-.03-1.02-.56-.62-1.31.57.61,1.3.55,2.06.2ZM94.03,60.25c.37-.52.73-1.07,1.21-1.45.36-.29.58.07.51.47-.02.07-.04.14-.06.21-.24.62-1.01,1.29-1.46,1.23,0,0,0,0,0,0-.22-.03-.31-.29-.19-.47Z"/>
      <path class="cls-1" d="M107.56,56.48c-.58-.18-1.13.04-1.6.48-.6.56-1.15,1.16-1.73,1.74-.17.17-.37.3-.55.45-.04.03-.1.04-.14.01h-.02c-.06-.04-.08-.12-.05-.18.21-.42.43-.84.63-1.27.43-.94.03-1.46-.98-1.22-1.45.34-2.6,1.2-3.47,2.42-.47.66-.41,1.12.21,1.48.55.31.67.75.33,1.34-.37.63-.8,1.24-1.23,1.84-.16.23-.42.4-.61.62-.88.97-.69,1.88.48,2.01.78.08,1.6.09,2.41-.03,1.37-.19,1.96-1.13,1.44-2.23-.54-1.15.07-2.24.76-3.31.37-.57.86-.51,1.09.03.4.95,1.14,1,2.01.12.88-.89,1.3-1.93,1.48-3.02.09-.51.16-1.07-.46-1.27Z"/>
      <path class="cls-1" d="M89.57,56.76s-.08-.04-.2-.12c.11-.29.23-.56.31-.84.26-.87-.19-1.38-1.11-1.19-.34.07-.73.2-.99.42-1.06.92-2.1,1.85-3.09,2.84-.52.51-.6,1.46-.17,1.58.93.25.6.86.32,1.5-.46,1.04-.97,2.06-1.37,3.11-.4,1.03-.05,1.84.77,2.1,1.59.51,3.97-.9,4.41-2.62.19-.72.06-.89-.68-.87-.4,0-.84-.01-.72-.48.18-.7.41-1.43.8-2.06.15-.25.8-.31,1.22-.41.83-.19,1.63-1.2,1.74-2.23.1-.91-.64-.72-1.23-.73Z"/>
      <path class="cls-1" d="M34.09,77.5c1.09-2.86,2.24-5.7,3.09-7.85.24-.61.39-1.25.42-1.91.14-2.65-1.06-3.29-3.37-2.47-2.46.87-4.54,2.35-6.16,4.47-1.36,1.78-1.37,3.02.1,4.14,1.04.8,1.26,1.8.75,3.11-1.01,2.63-2.09,5.25-3.11,7.88-.63,1.62-1.35,3.25-1.72,4.89-.45,1.99.61,3.09,2.54,3.09,3.01,0,6.86-3.46,7.06-6.41.03-.48-.1-1.15-.65-1.28-1.16-.28-1.26-.95-.96-1.89.61-1.93,1.26-3.85,1.99-5.76Z"/>
      <path class="cls-1" d="M74.83,50.07c.98.34,2.42.1,3.75-.74.48-.3.95-.81,1.45-1.32.19-.2.5-.22.72-.06,1.1.81,1.94,1.61,3.01,1.98,2.99,1.02,5.84-.47,8.35-2.63,5.58-4.81,8.57-10.66,9.39-17.18.46-3.67-1.03-6.36-3.55-6.88-3.4-.7-5.66,1.5-7.8,4.02-.5.6-1.09,1.13-1.65,1.69-.11.11-.27.12-.4.04l-.02-.02c-.13-.08-.18-.25-.12-.39.41-1.02.83-2.05,1.24-3.07,1.13-2.8,2.4-5.58,3.34-8.4.92-2.77-.56-4.3-3.39-3.63-3.95.93-7.12,3.25-9.36,6.71-.91,1.4-1.43,2.99-.1,4.07,1.53,1.24,1.52,2.92.85,4.83-1.01,2.89-2.08,5.77-3.11,8.66-1.12,3.14-2.33,6.28-3.23,9.45-.28.97-.58,2.47.63,2.89ZM84.86,41.6c.77-2.55,1.75-5.1,2.9-7.58.48-1.03,1.14-2,2.64-2.27.91-.04,1.8.3,2.04.62.82,1.09-.72,3.71-.72,3.71,0,0-3.3,5.85-3.6,6.33-.3.48-.62.64-.62.64-1.92.8-2.5-.38-2.67-1.04-.01-.14,0-.27.03-.41Z"/>
      <path class="cls-1" d="M6.99,49.51c2.34.84,4.87.98,7.3.49,2.31-.46,4.3-1.05,6.43-1.89,4.17-1.64,7.31-4.57,8.73-8.78,1.05-3.09-.58-4.48-3.75-3.29-1.62.61-3.23,1.35-4.87,1.75-4.67,1.14-7.5-.95-7.13-5.33.38-4.45,2.24-8.64,5.43-12.45.61-.72,1.37-1.39,2.16-1.92,2.2-1.48,3.91-1.15,4.67.91.46,1.24.64,2.61,1.08,3.87,1.01,2.88,4.72,3.24,7.34.77,2.89-2.74,4.79-10.07,3.05-12.82-.73-1.14-2.08-2.11-3.46-2.52-4.05-1.19-8.41-.81-12.84.99C10.04,13.77.78,26.24.04,37.59c-.4,6.13,2.04,10.16,6.95,11.92Z"/>
      <path class="cls-1" d="M31.38,47.52c-.25.72-.41,1.2-.47,1.38-.02.06-.03.12-.02.19,0,0,0,0,0,0,0,.1,0,.09.09.27.06.15.32.42.42.52,0,0,0,0,0,0,.77.37,1.63.73,2.55,1.08.92.35,1.81.64,2.63.87,0,0,0,0,0,0,.14,0,.51-.04.66-.11.18-.09.17-.08.24-.15h0s.08-.1.1-.16c.07-.17.26-.65.55-1.35.02-.04.04-.09.05-.13,2.22-5.43,9.47-23.19,9.84-23.95.43-.89,3.94-7.18,4.11-7.26,0,0,.01,0,.02-.02-1.27-.09-3.32-.61-5.55-1.44-2.23-.84-4.11-1.8-5.13-2.57,0,.01,0,.02,0,.03.07.17-1.43,7.22-1.69,8.17-.22.81-6.46,18.96-8.37,24.5-.02.05-.03.09-.05.14Z"/>
      <path class="cls-1" d="M52.37,18.47c.2-.26.45-.67.59-.92,0-.02.02-.03.02-.04-.03,0-.05,0-.08,0-1.24-.03-3.43-.55-5.83-1.46-2.41-.9-4.4-1.95-5.35-2.74-.02-.02-.04-.03-.06-.05,0,.02,0,.03-.01.05-.06.28-.14.76-.17,1.08.99.78,2.92,1.77,5.22,2.64,2.3.86,4.41,1.38,5.67,1.45Z"/>
      <path class="cls-1" d="M55.8,11.76c.07-.2.17-.53.3-.94.02-.07.05-.15.07-.23.14-.47.3-1.01.46-1.58.02-.08.04-.15.06-.23.34-1.3.62-2.66.53-3.33-.21-1.51-.47-2.66-1.98-3.4-1.5-.73-2.51-1.09-2.51-1.09,0,0-1-.39-2.61-.83-1.63-.44-2.57.26-3.73,1.25-.51.44-1.19,1.65-1.79,2.85-.04.07-.07.14-.11.22-.26.53-.5,1.04-.69,1.49-.03.07-.07.15-.1.22-.17.39-.31.71-.39.91,1.47.96,3.59,2.01,6.03,2.93,2.43.91,4.72,1.52,6.46,1.77Z"/>
      <path class="cls-1" d="M53.12,17.26s.04-.06.07-.09l.47-.61.09-.12s.03-.04.05-.06c.03-.04.07-.09.13-.19.29-.43,1.05-2.17,1.15-2.49-1.74-.24-4.03-.85-6.47-1.77s-4.56-1.97-6.03-2.93c-.13.31-.71,2.12-.77,2.63-.01.12-.02.18-.02.23,0,.02,0,.05,0,.08v.15s-.05.77-.05.77c0,.04,0,.08-.01.11.9.8,2.96,1.89,5.45,2.83,2.49.94,4.76,1.47,5.96,1.46Z"/>
      <path class="cls-1" d="M42.57,8.73c1.47.98,3.63,2.06,6.12,2.99,2.49.93,4.82,1.55,6.58,1.78.09.01.19.03.26.02.16-.01.18-.1.23-.22.08-.2.11-.27.18-.44,0-.02.05-.12.09-.26.02-.05.04-.12.07-.26.03-.14-.22-.28-.32-.34,0,0-.01,0-.02-.02-1.74-.24-4.05-.85-6.5-1.77-2.45-.92-4.59-1.98-6.06-2.95,0,0-.02,0-.02,0-.12-.03-.4-.08-.47.04s-.1.19-.12.24c-.06.14-.1.24-.1.26-.07.18-.09.25-.16.45-.04.12-.08.21.03.32.05.05.13.1.21.16Z"/>
      <path class="cls-1" d="M34.76,57.93s.08.1,0,0h0Z"/>
      <path class="cls-1" d="M35.77,58.93s.06.04-.04-.03c0,0,0,0,.01.01,0,0,.02.01.03.02Z"/>
    </g>
  </g>
</svg>