<?xml version="1.0" encoding="UTF-8"?>
<svg id="Layer_2" data-name="Layer 2" xmlns="http://www.w3.org/2000/svg" viewBox="0 0 43.45 82.31">
  <defs>
    <style>
      .cls-1 {
        fill: #fff;
        stroke-width: 0px;
      }
    </style>
  </defs>
  <g id="Layer_1-2" data-name="Layer 1">
    <path class="cls-1" d="M41.71,0h-12.16C19.94,0,12.16,7.81,12.16,17.45v15.71H1.74c-.96,0-1.74.79-1.74,1.74v10.47c0,.96.78,1.74,1.74,1.74h10.43v34.24c3.09.62,6.29.95,9.56.95,1.47,0,2.91-.06,4.34-.19v-34.99h13.55c1.41,0,2.59-1.05,2.77-2.45l1.04-8.37c.21-1.67-1.09-3.14-2.77-3.14h-14.6v-12.22c0-3.86,3.11-6.98,6.95-6.98h8.69c.96,0,1.74-.79,1.74-1.75V1.75c0-.96-.78-1.75-1.74-1.75Z"/>
  </g>
</svg>