<?xml version="1.0" encoding="UTF-8"?>
<svg id="Layer_2" data-name="Layer 2" xmlns="http://www.w3.org/2000/svg" viewBox="0 0 366.89 152">
  <defs>
    <style>
      .cls-1 {
        fill: #fff;
        stroke-width: 0px;
      }
    </style>
  </defs>
  <g id="Layer_1-2" data-name="Layer 1">
    <g>
      <path class="cls-1" d="M0,66.47v19.86c0,45.8,26.35,65.66,86.34,65.66h93.63V60.8h-100.12v30.81h56.34v26.75h-48.23c-29.99,0-40.13-8.51-40.13-34.45v-12.16c0-28.37,9.73-38.1,38.91-38.1h93.23V0h-95.25C25.94,0,0,20.27,0,66.47Z"/>
      <path class="cls-1" d="M282.18,0h-95.25v33.64h93.23c29.18,0,38.91,9.73,38.91,38.1v12.16c0,25.94-10.13,34.45-40.13,34.45h-48.23v-26.75h56.34v-30.81h-100.12v91.2h93.63c59.99,0,86.34-19.86,86.34-65.66v-19.86c0-46.21-25.94-66.47-84.71-66.47Z"/>
    </g>
  </g>
</svg>