<?xml version="1.0" encoding="UTF-8"?>
<svg id="Layer_2" data-name="Layer 2" xmlns="http://www.w3.org/2000/svg" viewBox="0 0 175.77 90.51">
  <defs>
    <style>
      .cls-1 {
        fill: #fff;
        fill-rule: evenodd;
        stroke-width: 0px;
      }
    </style>
  </defs>
  <g id="Layer_1-2" data-name="Layer 1">
    <g>
      <path class="cls-1" d="M49.76.03c-3.53.31-6.67,1.5-9.34,3.52-.88.67-2.33,2.07-3.02,2.94-2.06,2.58-3.31,5.58-3.74,9.03-.13.98-.11,3.23.03,4.25.51,3.74,2.08,7.05,4.59,9.66,2.84,2.95,6.27,4.66,10.61,5.28.94.13,3.94.11,5.05-.03,3.09-.41,6.22-1.37,8.87-2.72.48-.24,1-.52,1.16-.62l.28-.18v-11.31h-10.71v1.27h4.48v11.35l-.75.18c-1.37.32-2.19.41-3.57.41-5.59-.02-10.01-2.6-12.38-7.22-.86-1.67-1.42-3.58-1.75-5.92-.17-1.2-.17-5.27,0-6.49.56-4.02,1.72-6.63,3.89-8.81,1.29-1.3,2.76-2.22,4.55-2.86,1.63-.58,2.51-.73,4.52-.72,3.14,0,6.12.48,9.33,1.52.4.13.74.22.75.21,0-.01.08-.18.15-.37l.14-.35-.19-.07c-2.01-.79-5.53-1.54-8.61-1.83-1.35-.13-3.47-.17-4.35-.1Z"/>
      <path class="cls-1" d="M72.48,17.4v16.76h1.33l-.03-.82c-.11-3.09-.17-7.91-.2-14.74l-.03-7.9.31.64c.17.35,1.75,3.78,3.51,7.63,1.76,3.85,4.04,8.83,5.07,11.08l1.87,4.08h2.52l.62-1.44c.34-.79,1.51-3.5,2.6-6.02,1.08-2.52,3.13-7.27,4.53-10.54,1.41-3.28,2.59-5.98,2.62-6.02.03-.04.06,5.36.06,11.99v12.06h5.35V.64h-2.58l-.37.88c-.21.49-1.2,2.8-2.22,5.14-1,2.34-3.57,8.29-5.7,13.24-2.13,4.95-3.89,8.96-3.92,8.93s-2.92-6.38-6.42-14.13l-6.37-14.07h-2.52v16.76Z"/>
      <path class="cls-1" d="M110.69,17.4v16.76h1.36l-.04-1.69c-.13-5.19-.19-9.99-.17-15.51l.02-6.18,1.5,3.27c.82,1.81,2.76,6.02,4.29,9.37,1.53,3.35,3.27,7.13,3.85,8.41l1.06,2.33h2.48l1.04-2.43c.87-2.02,8.92-20.72,9.24-21.46.09-.21.1.98.11,11.83v12.07h5.36V.64h-1.28s-1.28.03-1.28.03l-4.58,10.64c-2.52,5.85-5.25,12.2-6.07,14.1-.82,1.91-1.5,3.47-1.52,3.47s-2.91-6.35-6.42-14.12l-6.39-14.12h-2.58v16.76Z"/>
      <path class="cls-1" d="M.01,66.3l.02,23.64,2.86.02h2.86s0-20.91,0-20.91c0-16.7.02-20.91.09-20.89.04.02.34.78.66,1.7.62,1.81,3.75,10.88,4.97,14.45.41,1.21,1.22,3.56,1.79,5.22,1.28,3.73,1.43,4.15,3.26,9.47.82,2.38,1.79,5.19,2.15,6.26.37,1.06.88,2.56,1.14,3.33l.47,1.39h4.25s4.25-.03,4.25-.03l.25-.74c.13-.41,1.2-3.51,2.37-6.89,2.09-6.06,2.61-7.58,3.25-9.44.46-1.35,1.77-5.13,2.14-6.22,2.54-7.36,3.33-9.67,4.3-12.48,2.28-6.66,2.05-6.02,2.2-6.02.13,0,.13.54.13,20.91v20.91h5.69v-47.31h-5.12c-2.82,0-5.12.01-5.12.03,0,.03-1.01,3-2.12,6.23-.23.7-.64,1.87-.89,2.61s-.81,2.36-1.24,3.61c-.94,2.74-2.3,6.71-2.88,8.4-.71,2.07-4.38,12.8-5.5,16.06-.42,1.23-.96,2.82-1.2,3.53s-.47,1.28-.51,1.26c-.03,0-.36-.88-.72-1.92-.36-1.05-1.04-3.02-1.51-4.38-.46-1.37-1.22-3.56-1.67-4.89s-1.24-3.61-1.74-5.09-1.28-3.76-1.74-5.09-1.18-3.43-1.61-4.68c-.92-2.69-2.12-6.2-3.31-9.67-.47-1.38-1.12-3.29-1.45-4.25l-.6-1.74-5.1-.02H0s.01,23.62.01,23.62Z"/>
      <path class="cls-1" d="M57.33,42.71c-.08.07-.05,31.65.02,32.85.29,4.45,1.74,7.96,4.37,10.56,3.02,2.98,7.64,4.54,13.03,4.38,2.15-.07,3.68-.31,5.4-.88,2.15-.71,3.81-1.75,5.29-3.29l.61-.64.83.54c3.61,2.34,6.89,3.59,10.83,4.15,1.23.17,4.62.17,5.66,0,4.87-.81,8.66-3.31,10.5-6.94.86-1.69,1.24-3.31,1.24-5.29,0-2.42-.61-4.06-2.15-5.82-1.38-1.57-4.42-3.88-10.29-7.84-1.01-.68-2.26-1.53-2.76-1.87-.5-.35-1.27-.87-1.71-1.16-1.12-.76-3.52-2.57-4.5-3.39-1.66-1.4-2.77-2.72-3.2-3.84-.29-.75-.37-1.41-.33-2.42.1-2.05.82-3.69,2.25-5.1,1.93-1.91,4.65-2.8,7.88-2.56,1.91.15,3.47.46,5.32,1.08,2.76.93,5.55,2.48,7.7,4.26.33.27.61.49.62.48.09-.09.77-1.2.77-1.24,0-.07-1.65-1.24-2.48-1.75-3.18-1.99-6.23-3.2-9.44-3.74-1.48-.25-2.22-.31-4.05-.31-1.56,0-1.93.03-2.67.15-2.64.46-4.77,1.31-6.75,2.7-.84.59-2.33,2.07-2.9,2.88-.86,1.22-1.53,2.8-1.84,4.34-.21,1.03-.22,3.38-.03,4.28.24,1.11.62,1.99,1.26,2.92.42.61,1.46,1.71,2.2,2.34l.53.45v5.49c0,3.13-.03,5.9-.07,6.43-.17,2.34-.62,4.46-1.31,6.32-1.3,3.48-3.72,5.94-6.89,7-3.19,1.06-7.39.85-9.98-.51-3.53-1.85-5.35-5.68-5.78-12.08-.04-.61-.07-7.29-.07-16.99v-15.97h-3.53c-1.95,0-3.56.02-3.58.05ZM92.29,65.77c1.05.75,2.62,1.84,3.48,2.42,5.18,3.49,6.06,4.1,8.04,5.6,2.89,2.17,4.27,3.55,4.97,4.97.38.76.5,1.22.55,2.11.22,4.04-2.5,7.31-6.84,8.23-.87.19-2.64.25-3.82.14-3.73-.35-7.64-1.84-11.02-4.21-.4-.27-.72-.52-.72-.55s.15-.31.34-.64c1.11-1.91,1.89-4.42,2.23-7.19.2-1.59.24-3,.24-7.85v-4.88l.32.24c.17.13,1.17.85,2.22,1.6Z"/>
      <polygon class="cls-1" points="122.54 66.36 122.54 89.98 125.35 89.98 128.16 89.98 128.16 66.36 128.16 42.73 125.35 42.73 122.54 42.73 122.54 66.36"/>
      <path class="cls-1" d="M155.16,42.81c-7.38.69-13.58,4.95-16.93,11.64-1.37,2.74-2.21,5.69-2.59,9.14-.13,1.24-.11,4.97.03,6.19.24,1.95.63,3.77,1.15,5.38,2.63,8.12,8.95,13.69,16.94,14.93,5.61.87,11.32-.35,15.68-3.37,1.54-1.06,3.17-2.57,4.31-4,.57-.71,1.61-2.22,1.87-2.72l.13-.25-1.2-1.25c-.66-.69-1.61-1.69-2.1-2.21s-.92-.95-.94-.96-.22.37-.46.83c-1.41,2.82-3.42,5.05-5.88,6.5-4.34,2.55-10.08,2.77-14.6.56-3.13-1.54-5.56-4.02-7.17-7.33-1.02-2.07-1.59-4-1.92-6.49-.17-1.22-.17-4.6,0-5.79.45-3.27,1.43-6.01,2.98-8.34,2.46-3.68,5.91-5.98,10.11-6.72,1.18-.21,3.37-.26,4.62-.11,3.61.44,6.57,1.89,9,4.4,1.17,1.21,2.18,2.65,2.95,4.22.14.29.27.52.3.52.05,0,4.23-4.26,4.26-4.34.03-.09-.77-1.33-1.48-2.28-.81-1.08-2.81-3.13-3.83-3.89-3.27-2.48-6.98-3.9-11.12-4.27-.93-.09-3.24-.08-4.14,0Z"/>
    </g>
  </g>
</svg>