<?xml version="1.0" encoding="UTF-8"?>
<svg id="Layer_2" data-name="Layer 2" xmlns="http://www.w3.org/2000/svg" viewBox="0 0 296.79 152.82">
  <defs>
    <style>
      .cls-1 {
        fill: #fff;
        fill-rule: evenodd;
        stroke-width: 0px;
      }
    </style>
  </defs>
  <g id="Layer_1-2" data-name="Layer 1">
    <g>
      <path class="cls-1" d="M84.02.06c-5.97.53-11.27,2.53-15.78,5.94-1.49,1.13-3.93,3.5-5.1,4.96-3.48,4.35-5.58,9.42-6.32,15.26-.21,1.65-.18,5.46.06,7.18.86,6.32,3.51,11.91,7.75,16.31,4.79,4.98,10.59,7.87,17.91,8.92,1.58.23,6.64.19,8.53-.06,5.21-.69,10.5-2.32,14.97-4.6.81-.41,1.68-.88,1.95-1.05l.47-.31v-19.1h-18.08v2.15h7.57v19.17l-1.27.31c-2.32.54-3.7.7-6.02.69-9.45-.03-16.89-4.38-20.91-12.19-1.45-2.81-2.4-6.05-2.96-10-.29-2.03-.28-8.9,0-10.96.95-6.78,2.9-11.19,6.58-14.87,2.18-2.19,4.67-3.75,7.68-4.83,2.76-.98,4.24-1.23,7.63-1.22,5.3,0,10.33.81,15.75,2.57.68.21,1.24.37,1.27.36.01-.02.14-.31.26-.63l.24-.6-.32-.11c-3.4-1.33-9.35-2.6-14.54-3.1-2.27-.21-5.86-.29-7.35-.17Z"/>
      <path class="cls-1" d="M122.38,29.38v28.31h2.24l-.05-1.39c-.18-5.22-.29-13.36-.34-24.88l-.05-13.33.52,1.07c.28.59,2.95,6.38,5.92,12.88,2.97,6.5,6.83,14.91,8.57,18.7l3.15,6.89h4.25l1.04-2.43c.58-1.33,2.54-5.91,4.38-10.17,1.83-4.26,5.28-12.27,7.65-17.8,2.38-5.54,4.37-10.1,4.42-10.16.06-.07.1,9.05.1,20.25v20.36h9.04V1.08h-4.36l-.63,1.49c-.35.82-2.03,4.73-3.74,8.68-1.7,3.94-6.03,14-9.63,22.35-3.59,8.35-6.58,15.13-6.62,15.09s-4.93-10.78-10.85-23.85L126.64,1.08h-4.26v28.31Z"/>
      <path class="cls-1" d="M186.91,29.38v28.31h2.29l-.07-2.86c-.23-8.76-.32-16.87-.28-26.18l.03-10.44,2.53,5.53c1.39,3.05,4.66,10.16,7.24,15.82,2.59,5.65,5.51,12.05,6.51,14.2l1.8,3.93h4.19l1.76-4.1c1.47-3.41,15.06-34.99,15.61-36.24.16-.35.17,1.66.18,19.97v20.37h9.05V1.08l-2.16.02-2.16.03-7.73,17.97c-4.26,9.88-8.87,20.6-10.25,23.81-1.38,3.22-2.53,5.85-2.57,5.85s-4.92-10.72-10.85-23.84l-10.79-23.84h-4.35v28.31Z"/>
      <path class="cls-1" d="M.02,111.95l.03,39.92,4.84.03,4.83.02v-35.32c0-28.21.03-35.31.15-35.28.07.03.58,1.32,1.12,2.87,1.05,3.05,6.33,18.36,8.4,24.4.7,2.05,2.07,6.01,3.03,8.81,2.17,6.31,2.42,7.01,5.5,15.99,1.38,4.01,3.02,8.76,3.64,10.57.62,1.8,1.49,4.33,1.93,5.63l.79,2.34,7.18-.02,7.18-.03.43-1.24c.23-.69,2.03-5.92,4-11.64,3.53-10.23,4.41-12.79,5.48-15.93.78-2.27,2.98-8.66,3.62-10.51,4.28-12.43,5.63-16.33,7.25-21.08,3.85-11.24,3.46-10.17,3.72-10.17.21,0,.21.92.21,35.31v35.31h9.61v-79.89h-8.64c-4.76,0-8.64.02-8.64.05,0,.05-1.71,5.06-3.58,10.52-.4,1.18-1.07,3.16-1.5,4.41s-1.37,3.99-2.09,6.1c-1.59,4.63-3.88,11.32-4.86,14.18-1.2,3.5-7.39,21.61-9.29,27.12-.71,2.08-1.63,4.77-2.03,5.97s-.79,2.16-.86,2.14c-.06-.01-.61-1.48-1.21-3.24-.61-1.77-1.75-5.11-2.54-7.4-.78-2.31-2.06-6.01-2.83-8.25s-2.09-6.1-2.94-8.59-2.17-6.35-2.94-8.59-1.99-5.8-2.71-7.91c-1.56-4.54-3.58-10.46-5.59-16.33-.79-2.33-1.9-5.56-2.45-7.18l-1.01-2.94-8.61-.03-8.61-.02.02,39.91Z"/>
      <path class="cls-1" d="M96.81,72.12c-.14.12-.09,53.45.03,55.46.49,7.51,2.94,13.44,7.38,17.83,5.1,5.04,12.9,7.66,22,7.39,3.64-.11,6.22-.53,9.12-1.49,3.63-1.2,6.43-2.95,8.93-5.56l1.03-1.08,1.4.9c6.09,3.94,11.63,6.07,18.28,7.01,2.08.28,7.81.28,9.55,0,8.23-1.37,14.62-5.59,17.73-11.72,1.45-2.85,2.09-5.59,2.1-8.93,0-4.08-1.03-6.86-3.64-9.83-2.33-2.64-7.47-6.55-17.38-13.24-1.71-1.15-3.81-2.58-4.66-3.15-.85-.59-2.15-1.47-2.88-1.97-1.9-1.29-5.94-4.34-7.61-5.73-2.8-2.36-4.68-4.6-5.4-6.49-.49-1.27-.63-2.38-.55-4.09.17-3.46,1.39-6.24,3.8-8.61,3.27-3.23,7.85-4.72,13.31-4.32,3.22.25,5.86.78,8.98,1.83,4.67,1.57,9.37,4.18,13,7.2.55.46,1.03.82,1.05.8.15-.16,1.3-2.03,1.3-2.1,0-.12-2.79-2.1-4.18-2.96-5.37-3.36-10.52-5.4-15.93-6.32-2.5-.43-3.74-.52-6.84-.52-2.63.01-3.25.05-4.51.26-4.46.77-8.06,2.21-11.4,4.57-1.42.99-3.93,3.49-4.9,4.87-1.45,2.07-2.59,4.73-3.11,7.32-.35,1.74-.37,5.71-.06,7.22.41,1.88,1.05,3.37,2.14,4.94.71,1.03,2.46,2.89,3.72,3.94l.89.76v9.28c0,5.29-.06,9.96-.11,10.86-.29,3.94-1.04,7.53-2.21,10.68-2.19,5.88-6.28,10.02-11.63,11.82-5.38,1.8-12.48,1.44-16.86-.86-5.96-3.12-9.04-9.58-9.75-20.4-.07-1.03-.11-12.31-.11-28.68v-26.97h-5.97c-3.29,0-6.01.03-6.05.08ZM155.83,111.06c1.77,1.27,4.42,3.11,5.88,4.09,8.75,5.9,10.23,6.93,13.58,9.46,4.88,3.66,7.21,6,8.4,8.4.64,1.29.84,2.07.93,3.56.37,6.83-4.22,12.34-11.55,13.9-1.47.32-4.46.42-6.45.24-6.31-.6-12.89-3.11-18.6-7.11-.68-.46-1.22-.88-1.22-.93s.26-.53.58-1.08c1.88-3.23,3.19-7.47,3.76-12.14.34-2.69.41-5.06.41-13.26v-8.24l.54.41c.29.23,1.98,1.44,3.75,2.7Z"/>
      <polygon class="cls-1" points="206.91 112.05 206.91 151.94 211.65 151.94 216.4 151.94 216.4 112.05 216.4 72.15 211.65 72.15 206.91 72.15 206.91 112.05"/>
      <path class="cls-1" d="M262,72.28c-12.46,1.16-22.93,8.36-28.59,19.65-2.32,4.63-3.73,9.61-4.37,15.42-.23,2.1-.19,8.38.06,10.45.41,3.3,1.06,6.37,1.94,9.09,4.44,13.72,15.11,23.12,28.61,25.21,9.47,1.47,19.11-.6,26.48-5.68,2.6-1.79,5.36-4.34,7.28-6.75.96-1.2,2.71-3.75,3.16-4.6l.23-.42-2.03-2.11c-1.11-1.16-2.71-2.85-3.55-3.73s-1.55-1.6-1.58-1.62-.37.62-.77,1.4c-2.37,4.77-5.77,8.53-9.93,10.98-7.33,4.31-17.02,4.68-24.65.94-5.29-2.6-9.39-6.78-12.11-12.37-1.72-3.5-2.68-6.76-3.24-10.96-.28-2.07-.28-7.76,0-9.77.76-5.51,2.42-10.15,5.04-14.08,4.15-6.22,9.98-10.09,17.07-11.35,2-.35,5.68-.44,7.8-.18,6.1.75,11.1,3.19,15.2,7.42,1.98,2.05,3.67,4.47,4.98,7.13.24.49.46.88.51.88.09,0,7.14-7.2,7.2-7.33.06-.16-1.3-2.25-2.5-3.85-1.37-1.83-4.75-5.28-6.46-6.57-5.51-4.18-11.79-6.59-18.78-7.21-1.57-.15-5.47-.14-6.98,0Z"/>
    </g>
  </g>
</svg>