<?xml version="1.0" encoding="UTF-8"?>
<svg id="Layer_2" data-name="Layer 2" xmlns="http://www.w3.org/2000/svg" viewBox="0 0 146.18 87.06">
  <defs>
    <style>
      .cls-1 {
        fill: #000;
      }

      .cls-1, .cls-2 {
        stroke-width: 0px;
      }

      .cls-2 {
        fill: #fff;
      }
    </style>
  </defs>
  <g id="Layer_1-2" data-name="Layer 1">
    <g>
      <g>
        <path class="cls-2" d="M17.72,61.05c1.63.37,2.96.88,4.01,1.54,1.05.65,1.88,1.39,2.49,2.21.62.82,1.04,1.69,1.28,2.62.24.93.36,1.86.36,2.8,0,1.43-.27,2.76-.8,3.99-.53,1.23-1.33,2.29-2.4,3.19-1.07.9-2.4,1.6-4.01,2.1-1.6.5-3.47.76-5.61.76-1.5,0-2.86-.12-4.1-.36-1.23-.24-2.33-.56-3.3-.96-.97-.4-1.81-.87-2.52-1.41-.71-.54-1.3-1.1-1.76-1.71-.46-.6-.81-1.21-1.04-1.83-.23-.62-.34-1.22-.34-1.79,0-.44.07-.84.22-1.2.15-.37.36-.68.62-.95.27-.27.58-.47.94-.62.36-.15.76-.22,1.19-.22.64,0,1.16.14,1.58.42.41.28.79.64,1.14,1.07.35.43.7.89,1.06,1.39.36.49.81.96,1.34,1.39.53.43,1.19.79,1.98,1.07.79.28,1.78.42,2.98.42.91,0,1.73-.12,2.44-.36.71-.24,1.31-.56,1.79-.95.48-.39.85-.84,1.1-1.35.25-.51.37-1.03.37-1.56,0-.32-.05-.64-.14-.97-.09-.33-.25-.65-.47-.95-.22-.3-.53-.58-.92-.83-.39-.25-.89-.45-1.5-.61l-8.03-2.09c-1.07-.28-2.01-.61-2.8-.99-.79-.38-1.47-.8-2.04-1.25-.57-.45-1.03-.93-1.39-1.44-.36-.51-.64-1.04-.84-1.59-.21-.55-.35-1.1-.43-1.67s-.12-1.14-.12-1.71c0-1.18.17-2.24.5-3.18.33-.94.8-1.77,1.39-2.49.59-.72,1.28-1.34,2.08-1.85.8-.51,1.65-.93,2.57-1.26.92-.33,1.88-.57,2.88-.73,1-.15,2-.23,3-.23.92,0,1.87.09,2.84.26.97.18,1.9.42,2.81.75.91.32,1.76.71,2.56,1.16.8.45,1.49.95,2.07,1.51.58.55,1.04,1.14,1.36,1.78.32.63.47,1.29.44,1.98-.02.45-.12.85-.3,1.2-.18.36-.41.66-.7.91-.29.25-.62.44-1,.57-.38.13-.79.19-1.23.19-.55,0-1.01-.12-1.37-.35-.36-.23-.7-.53-1.03-.88-.32-.35-.66-.73-1-1.14-.35-.41-.77-.79-1.28-1.14-.51-.35-1.13-.64-1.87-.88-.74-.23-1.66-.35-2.76-.35-.82,0-1.55.09-2.18.28-.64.19-1.17.44-1.6.77-.43.33-.76.73-.98,1.19-.22.46-.33.97-.33,1.52s.15,1.02.44,1.39c.29.38.67.7,1.14.96.47.26.99.48,1.56.65.57.17,1.14.32,1.71.45l5.94,1.39Z"/>
        <path class="cls-2" d="M37.07,66.05v10.5c0,.48-.09.92-.27,1.31-.18.4-.42.74-.73,1.03-.31.29-.67.51-1.08.68-.41.16-.86.25-1.34.25s-.92-.08-1.34-.25c-.41-.16-.78-.39-1.08-.68-.31-.29-.55-.63-.73-1.03-.18-.4-.27-.84-.27-1.31v-25.96c0-.48.09-.92.27-1.31.18-.4.42-.74.73-1.03.31-.29.67-.51,1.08-.68s.86-.25,1.34-.25.92.08,1.34.25.78.39,1.08.68c.31.29.55.63.73,1.03.18.4.27.84.27,1.31v9.72h13.07v-9.72c0-.48.09-.92.27-1.31.18-.4.42-.74.73-1.03.31-.29.67-.51,1.08-.68s.86-.25,1.34-.25.92.08,1.34.25.78.39,1.08.68c.31.29.55.63.73,1.03.18.4.27.84.27,1.31v25.96c0,.48-.09.92-.27,1.31-.18.4-.42.74-.73,1.03-.31.29-.67.51-1.08.68-.41.16-.86.25-1.34.25s-.92-.08-1.34-.25c-.41-.16-.78-.39-1.08-.68-.31-.29-.55-.63-.73-1.03-.18-.4-.27-.84-.27-1.31v-10.5h-13.07Z"/>
        <path class="cls-2" d="M61.22,63.58c0-1.44.15-2.86.44-4.25.29-1.39.73-2.7,1.31-3.93.58-1.23,1.31-2.37,2.18-3.4.88-1.04,1.9-1.93,3.08-2.69,1.17-.75,2.49-1.34,3.95-1.76,1.46-.42,3.07-.63,4.84-.63s3.4.21,4.88.63c1.48.42,2.8,1.01,3.98,1.76,1.18.75,2.21,1.65,3.1,2.69.89,1.04,1.63,2.17,2.21,3.4.59,1.23,1.03,2.54,1.32,3.93.29,1.39.44,2.8.44,4.25s-.15,2.86-.44,4.23c-.29,1.38-.73,2.67-1.32,3.9-.59,1.22-1.33,2.35-2.21,3.38-.89,1.03-1.92,1.92-3.1,2.65-1.18.74-2.51,1.31-3.98,1.73-1.48.41-3.1.62-4.88.62s-3.38-.21-4.84-.62c-1.46-.41-2.78-.99-3.95-1.73-1.17-.74-2.2-1.62-3.08-2.65-.88-1.03-1.6-2.16-2.18-3.38-.58-1.22-1.01-2.52-1.31-3.9-.29-1.38-.44-2.79-.44-4.23ZM68.14,63.58c0,.87.07,1.74.21,2.6.14.86.37,1.68.68,2.46.31.78.7,1.51,1.17,2.18.47.67,1.04,1.25,1.7,1.74.66.49,1.41.88,2.26,1.16.85.28,1.8.42,2.85.42s2.06-.14,2.92-.42c.86-.28,1.63-.67,2.29-1.16.67-.49,1.24-1.08,1.72-1.74.48-.67.87-1.39,1.18-2.18.31-.78.53-1.6.68-2.46.14-.86.22-1.73.22-2.6s-.07-1.74-.22-2.61c-.14-.87-.37-1.69-.68-2.48-.31-.79-.7-1.52-1.18-2.2-.48-.68-1.05-1.27-1.72-1.77-.67-.5-1.44-.89-2.3-1.17-.87-.28-1.84-.42-2.91-.42s-2,.14-2.85.42c-.85.28-1.6.67-2.26,1.17-.66.5-1.22,1.09-1.7,1.77-.47.68-.86,1.41-1.17,2.2-.31.79-.53,1.61-.68,2.48s-.21,1.73-.21,2.61Z"/>
        <path class="cls-2" d="M127.58,76.49c-.16.61-.35,1.12-.57,1.55-.22.43-.5.77-.84,1.04-.33.27-.73.46-1.19.58-.46.12-1.02.18-1.67.18s-1.23-.07-1.7-.21c-.46-.14-.86-.36-1.18-.65-.32-.29-.59-.65-.8-1.08-.21-.44-.39-.95-.53-1.55l-4.61-18.95h-.1l-4.59,18.95c-.15.6-.33,1.11-.53,1.55-.21.44-.47.8-.8,1.08-.32.29-.72.5-1.19.65-.47.14-1.04.21-1.71.21s-1.2-.06-1.67-.18c-.46-.12-.86-.32-1.19-.58-.33-.27-.61-.61-.83-1.04-.22-.42-.41-.94-.57-1.55l-6.07-23.92c-.09-.33-.17-.66-.24-1-.07-.34-.11-.68-.11-1.02,0-.54.1-1.01.3-1.41s.46-.73.79-.99c.32-.26.69-.46,1.09-.59.4-.13.81-.2,1.23-.2.9,0,1.63.22,2.17.66.54.44.92,1.18,1.15,2.22l4.16,20.46h.1l4.7-20.27c.1-.42.23-.83.41-1.2.18-.38.42-.7.71-.98s.66-.49,1.09-.65c.44-.16.97-.24,1.59-.24s1.18.07,1.63.22c.45.14.82.35,1.12.61s.55.59.73.97c.19.38.34.81.45,1.29l4.76,20.25h.08l4.22-20.46c.21-1.04.58-1.78,1.12-2.22.53-.44,1.22-.66,2.07-.66.4,0,.81.07,1.21.2.4.13.77.33,1.09.59.32.26.59.59.79.99s.3.87.3,1.41c0,.34-.04.68-.11,1.02-.07.34-.15.67-.24,1l-6.06,23.92Z"/>
      </g>
      <path class="cls-2" d="M61.41,37.74c-2.54,0-3.54-1.43-3.54-4.47V6.16c0-4.09.86-5.7,4.54-5.7h2.63c3.69,0,4.15,1.46,5.14,5.4l5.98,22.73,5.76-22.28c1.06-4.09,1.76-5.85,4.96-5.85h2.97c3.64,0,4.53,1.61,4.53,5.7v27.12c0,2.97-1.05,4.47-3.48,4.47s-3.54-1.4-3.54-4.47V7.97l-6.27,24.76c-.91,3.53-2.12,5.01-4.95,5.01s-4.09-1.52-4.98-5.01l-6.28-24.76v25.3c0,3.04-1.06,4.47-3.48,4.47"/>
      <path class="cls-2" d="M101.01,37.74c-2.54,0-3.56-1.43-3.56-4.47V6.16c0-4.09.86-5.7,4.56-5.7h2.61c3.69,0,4.16,1.46,5.17,5.4l5.96,22.73,5.75-22.28c1.08-4.09,1.76-5.85,4.96-5.85h2.99c3.64,0,4.53,1.61,4.53,5.7v27.12c0,2.99-1.05,4.47-3.47,4.47s-3.54-1.4-3.54-4.47V7.97l-6.26,24.76c-.91,3.53-2.12,5.01-4.95,5.01s-4.11-1.52-5.01-5.01l-6.25-24.76v25.3c0,3.04-1.07,4.47-3.49,4.47"/>
      <path class="cls-2" d="M21.27,23.84c-1.86,0-3.18-1.28-3.18-3.23s1.22-3,3.18-3h8.03c3.05,0,4.35.78,4.35,3.41v13.88c0,2.22-.74,3.3-2.62,3.3-1.46,0-2.37-.87-2.74-2.48l-.55-2.72c-2.73,3.63-6.06,5.28-10.66,5.28C6.97,38.27,0,30.72,0,19.09S6.86,0,17.28,0c3.38,0,6.37.65,8.93,1.95,3.76,1.93,5.67,4.45,5.67,6.82,0,2.14-1.52,3.65-3.29,3.65-1.92,0-2.88-.89-4.19-2.53-1.88-2.36-3.75-3.49-6.83-3.49-5.9,0-9.79,4.61-9.79,12.65s3.99,12.62,10.15,12.62c4.69,0,8.14-2.93,8.9-7.83h-5.57Z"/>
      <path class="cls-2" d="M39.15,15.98c-2.02,2.03-3.29,4.24-3.28,5.62,0,.43.12.76.37,1,.25.26.59.39,1.01.36,1.38,0,3.56-1.33,5.56-3.38,2.31-2.33,4.1-5.45,2.91-6.64-1.2-1.16-4.28.69-6.57,3.04"/>
      <path class="cls-2" d="M145.53,79.84c-.05-.51-.33-.9-.83-1.27-.27-.21-89.29-65.58-89.29-65.58-.01-.02-.03-.03-.04-.05-1.21-1.16-4.29.69-6.59,3.04-2.1,2.16-3.79,4.94-3.13,6.29h0s28.69,57.48,28.69,57.48c.01.03.02.05.03.08,1.75,3.68,17.4,7.23,36.51,7.23s35.05-3.25,34.66-7.23Z"/>
      <path class="cls-2" d="M139.2,16.17c-2.01,2.03-3.29,4.25-3.26,5.64,0,.42.11.74.37,1,.24.23.57.35,1.01.35,1.38-.02,3.57-1.34,5.58-3.38,1.78-1.82,3.28-4.11,3.28-5.6,0-.42-.12-.77-.38-1.04-1.22-1.16-4.29.71-6.6,3.03"/>
      <path class="cls-2" d="M47.4,22.43c1.18,0,2.92-1.25,4.64-3.03,1.98-2.02,3.67-4.61,2.64-5.64-1.03-1-3.61.72-5.58,2.76-1.74,1.76-2.9,3.54-2.89,4.73,0,.37.1.66.31.86.21.22.5.34.87.31Z"/>
      <path class="cls-2" d="M79.93,73.72c.86-.28,1.63-.67,2.29-1.16.67-.49,1.24-1.08,1.72-1.74.48-.67.87-1.39,1.18-2.18.31-.78.53-1.6.68-2.46.14-.86.22-1.73.22-2.6s-.07-1.74-.22-2.61c-.14-.87-.37-1.69-.68-2.48-.31-.79-.7-1.52-1.18-2.2-.48-.68-1.05-1.27-1.72-1.77-.67-.5-1.44-.89-2.3-1.17-.87-.28-1.84-.42-2.91-.42s-2,.14-2.85.42c-.85.28-1.6.67-2.26,1.17-.66.5-1.22,1.09-1.7,1.77-.47.68-.86,1.41-1.17,2.2-.31.79-.53,1.61-.68,2.48-.14.87-.21,1.73-.21,2.61s.07,1.74.21,2.6c.14.86.37,1.68.68,2.46.31.78.7,1.51,1.17,2.18.47.67,1.04,1.25,1.7,1.74.66.49,1.41.88,2.26,1.16.85.28,1.8.42,2.85.42s2.06-.14,2.92-.42Z"/>
      <g>
        <path class="cls-1" d="M81.89,79.47c1.48-.41,2.8-.99,3.98-1.73,1.18-.74,2.21-1.62,3.1-2.65.89-1.03,1.63-2.16,2.21-3.38.59-1.22,1.03-2.52,1.32-3.9s.44-2.79.44-4.23-.15-2.86-.44-4.25c-.29-1.39-.73-2.7-1.32-3.93-.59-1.23-1.33-2.37-2.21-3.4-.89-1.04-1.92-1.93-3.1-2.69-1.18-.75-2.51-1.34-3.98-1.76-1.48-.42-3.1-.63-4.88-.63s-3.38.21-4.84.63c-1.46.42-2.78,1.01-3.95,1.76-1.17.75-2.2,1.65-3.08,2.69-.88,1.04-1.6,2.17-2.18,3.4-.13.28-.25.56-.37.84l11.73,23.51s.02.05.03.08c.01.03.03.06.05.09.83.11,1.7.17,2.6.17,1.77,0,3.4-.21,4.88-.62ZM74.16,73.72c-.85-.28-1.6-.67-2.26-1.16-.66-.49-1.22-1.08-1.7-1.74-.47-.67-.86-1.39-1.17-2.18-.31-.78-.53-1.6-.68-2.46-.14-.86-.21-1.73-.21-2.6s.07-1.74.21-2.61c.14-.87.37-1.69.68-2.48.31-.79.7-1.52,1.17-2.2.47-.68,1.04-1.27,1.7-1.77.66-.5,1.41-.89,2.26-1.17.85-.28,1.8-.42,2.85-.42s2.04.14,2.91.42c.87.28,1.63.67,2.3,1.17.67.5,1.24,1.09,1.72,1.77.48.68.87,1.41,1.18,2.2.31.79.53,1.61.68,2.48.14.87.22,1.73.22,2.61s-.07,1.74-.22,2.6c-.14.86-.37,1.68-.68,2.46-.31.78-.7,1.51-1.18,2.18-.48.67-1.05,1.25-1.72,1.74-.67.49-1.43.88-2.29,1.16-.86.28-1.83.42-2.92.42s-2-.14-2.85-.42Z"/>
        <path class="cls-1" d="M105.79,70.7l-4.16-20.46c-.22-1.04-.61-1.78-1.15-2.22-.54-.44-1.26-.66-2.17-.66-.41,0-.82.07-1.23.2-.4.13-.77.33-1.09.59-.32.26-.59.59-.79.99-.2.4-.3.87-.3,1.41,0,.34.04.68.11,1.02.07.34.15.67.24,1l6.07,23.92c.16.61.35,1.12.57,1.55.22.43.5.77.83,1.04.33.27.73.46,1.19.58.46.12,1.02.18,1.67.18s1.24-.07,1.71-.21c.47-.14.86-.36,1.19-.65.32-.29.59-.65.8-1.08.21-.44.39-.95.53-1.55l4.59-18.95h.1l4.61,18.95c.15.6.33,1.11.53,1.55.21.44.47.8.8,1.08.32.29.72.5,1.18.65.46.14,1.03.21,1.7.21s1.2-.06,1.67-.18c.46-.12.86-.32,1.19-.58.33-.27.61-.61.84-1.04.22-.42.41-.94.57-1.55l2.24-8.85c-1.65-1.21-3.39-2.49-5.22-3.83l-1.42,6.9h-.08l-2.28-9.68c-3.44-2.53-7.09-5.21-10.84-7.96l-4.09,17.64h-.1Z"/>
        <g>
          <path class="cls-1" d="M61.41,37.74c-2.54,0-3.54-1.43-3.54-4.47V14.8l7.02,5.15v13.32c0,3.04-1.06,4.47-3.48,4.47h0Z"/>
          <path class="cls-1" d="M76.24,28.28l-.08.31-.12-.45-7.41-5.44,2.55,10.04c.89,3.49,2.26,5.01,4.98,5.01s4.04-1.48,4.95-5.01l.19-.74-5.06-3.71Z"/>
        </g>
      </g>
    </g>
  </g>
</svg>