<?xml version="1.0" encoding="UTF-8"?>
<svg id="Layer_2" data-name="Layer 2" xmlns="http://www.w3.org/2000/svg" viewBox="0 0 208.46 58.18">
  <defs>
    <style>
      .cls-1 {
        fill: #fff;
        stroke-width: 0px;
      }
    </style>
  </defs>
  <g id="Layer_1-2" data-name="Layer 1">
    <g>
      <path class="cls-1" d="M183.64,18.89c-.72,0-1.15.2-1.38.51-.27.34-.42.76-.42,1.28v12.3h1.8c.68,0,1.13-.2,1.43-.56.21-.27.33-.67.33-1.24v-10.5c0-.54-.12-.93-.33-1.2-.3-.38-.75-.59-1.43-.59Z"/>
      <path class="cls-1" d="M192.47,7.72H15.99c-4.57,0-8.27,3.7-8.27,8.27v26.2c0,4.57,3.7,8.27,8.27,8.27h176.48c4.57,0,8.27-3.7,8.27-8.27V15.99c0-4.57-3.7-8.27-8.27-8.27ZM31.44,44.12h-4.87v-12.61h-3.55v12.61h-4.83V14.06h4.83v12.61h3.55v-12.61h4.87v30.05ZM46.45,37.49c0,1.61-.49,3.04-1.47,4.27-1.24,1.58-2.97,2.36-5.16,2.36s-3.91-.77-5.12-2.32c-1-1.28-1.5-2.72-1.5-4.31v-10.5c0-1.64.49-3.08,1.46-4.31,1.21-1.55,2.95-2.32,5.16-2.32h1.74c-.05-.53-.24-.87-.5-1.07-.34-.27-.75-.41-1.24-.41h-4.55v-4.83h4.55c1.61,0,3.04.49,4.27,1.47,1.58,1.24,2.36,2.97,2.36,5.16v16.8ZM61.46,25.2h-4.87v-4.51c0-.54-.12-.93-.33-1.2-.3-.38-.75-.59-1.43-.59-.72,0-1.15.2-1.38.51-.27.34-.41.76-.41,1.28v23.43h-4.83v-23.43c0-1.64.49-3.08,1.47-4.31,1.21-1.55,2.95-2.32,5.16-2.32s3.91.76,5.12,2.31c1,1.25,1.5,2.69,1.5,4.31v4.51ZM68.08,44.12h-4.87V14.06h4.87v30.05ZM83.09,31.18c0,1.61-.49,3.04-1.47,4.27-1.24,1.58-2.97,2.36-5.16,2.36h-1.78c.05.51.24.86.54,1.11.27.21.67.33,1.24.33h4.51v4.87h-4.51c-1.64,0-3.08-.49-4.31-1.47-1.55-1.22-2.32-2.95-2.32-5.16v-16.8c0-1.64.49-3.08,1.46-4.31,1.22-1.55,2.95-2.32,5.16-2.32s3.91.76,5.12,2.31c1,1.25,1.51,2.69,1.51,4.31v10.5ZM106.52,44.12h-4.87v-23.43c0-.54-.12-.93-.33-1.2-.3-.38-.75-.59-1.42-.59-.72,0-1.15.2-1.39.51-.27.34-.41.76-.41,1.28v23.43h-4.83v-23.43c0-.54-.12-.93-.33-1.2-.3-.38-.76-.59-1.47-.59s-1.15.19-1.39.48c-.24.33-.37.76-.37,1.32v23.43h-4.87v-23.43c0-1.64.49-3.08,1.46-4.31,1.21-1.55,2.95-2.32,5.16-2.32.94,0,1.76.14,2.48.42.63.22,1.21.54,1.72.95.51-.42,1.09-.74,1.73-.96.73-.28,1.57-.42,2.5-.42,2.19,0,3.91.76,5.12,2.31,1,1.25,1.5,2.69,1.5,4.31v23.43ZM130.24,25.2h-4.87v-4.51c0-.54-.12-.93-.33-1.2-.3-.38-.75-.59-1.42-.59-.72,0-1.15.2-1.38.51-.27.34-.41.76-.41,1.28v4.15c0,.55.13,1,.38,1.37.23.28.67.47,1.42.47,2.19,0,3.91.76,5.12,2.32,1,1.25,1.5,2.69,1.5,4.31v4.19c0,1.61-.49,3.04-1.47,4.27-1.24,1.58-2.97,2.36-5.16,2.36s-3.91-.77-5.12-2.32c-1-1.28-1.5-2.72-1.5-4.31v-4.51h4.83v4.47c0,.56.13.99.38,1.33.23.28.67.47,1.42.47.68,0,1.13-.2,1.43-.56.21-.27.33-.66.33-1.2v-4.19c0-.54-.12-.93-.33-1.2-.3-.38-.75-.59-1.42-.59-2.19,0-3.91-.76-5.12-2.32-1-1.25-1.5-2.69-1.5-4.31v-4.19c0-1.64.49-3.08,1.47-4.31,1.21-1.55,2.95-2.32,5.16-2.32s3.91.76,5.12,2.31c1,1.25,1.5,2.69,1.5,4.31v4.51ZM145.24,44.12h-4.87v-6.31h-3.55v6.31h-4.83V14.06h4.83v18.92h3.55V14.06h4.87v30.05ZM160.25,37.49c0,1.61-.49,3.04-1.47,4.27-1.24,1.58-2.97,2.36-5.16,2.36s-3.9-.77-5.12-2.32c-1-1.28-1.5-2.72-1.5-4.31v-10.5c0-1.64.49-3.08,1.47-4.31,1.21-1.55,2.95-2.32,5.16-2.32h1.74c-.05-.53-.24-.87-.5-1.07-.34-.27-.75-.41-1.24-.41h-4.55v-4.83h4.55c1.61,0,3.04.49,4.27,1.47,1.58,1.24,2.36,2.97,2.36,5.16v16.8ZM175.26,31.18c0,.94-.14,1.76-.42,2.48-.23.62-.56,1.21-1,1.76.45.57.78,1.2,1.01,1.9.27.77.41,1.52.41,2.25v4.55h-4.87v-4.51c0-.54-.12-.93-.33-1.2-.3-.39-.75-.59-1.42-.59h-1.8v6.31h-4.83V14.06h4.83v18.92h1.76c.54,0,.93-.13,1.21-.34.37-.27.59-.73.59-1.46V14.06h4.87v17.12ZM190.27,31.18c0,1.61-.49,3.04-1.46,4.27-1.24,1.58-2.97,2.36-5.16,2.36h-1.78c.05.51.24.86.54,1.11.27.21.67.33,1.24.33h4.51v4.87h-4.51c-1.64,0-3.08-.49-4.31-1.47-1.55-1.22-2.32-2.95-2.32-5.16v-16.8c0-1.64.49-3.08,1.47-4.31,1.21-1.55,2.95-2.32,5.16-2.32s3.91.76,5.12,2.31c1,1.25,1.5,2.69,1.5,4.31v10.5Z"/>
      <path class="cls-1" d="M38.44,25.71c-.27.34-.41.76-.41,1.28v10.46c0,.56.13.99.38,1.33.23.28.67.47,1.42.47.68,0,1.13-.2,1.43-.56.21-.27.33-.66.33-1.2v-12.29h-1.76c-.72,0-1.15.2-1.39.51Z"/>
      <path class="cls-1" d="M152.24,25.71c-.27.34-.41.76-.41,1.28v10.46c0,.56.13.99.38,1.33.23.28.67.47,1.42.47.68,0,1.13-.2,1.43-.56.21-.27.33-.66.33-1.2v-12.29h-1.76c-.72,0-1.15.2-1.38.51Z"/>
      <path class="cls-1" d="M206.67,15.99c0-7.83-6.37-14.2-14.2-14.2H15.99C8.16,1.79,1.79,8.16,1.79,15.99v26.2c0,7.83,6.37,14.2,14.2,14.2h176.48c7.83,0,14.2-6.37,14.2-14.2V15.99ZM203.5,42.19c0,6.09-4.94,11.03-11.03,11.03H15.99c-6.09,0-11.03-4.94-11.03-11.03V15.99c0-6.09,4.94-11.03,11.03-11.03h176.48c6.09,0,11.03,4.94,11.03,11.03v26.2Z"/>
      <path class="cls-1" d="M76.47,18.89c-.72,0-1.15.2-1.38.51-.27.34-.41.76-.41,1.28v12.3h1.79c.68,0,1.13-.2,1.43-.56.21-.27.33-.67.33-1.24v-10.5c0-.54-.12-.93-.33-1.2-.3-.38-.75-.59-1.43-.59Z"/>
      <path class="cls-1" d="M192.47,0H15.99C7.17,0,0,7.17,0,15.99v26.2c0,8.82,7.17,15.99,15.99,15.99h176.48c8.82,0,15.99-7.17,15.99-15.99V15.99c0-8.82-7.17-15.99-15.99-15.99ZM208.32,42.19c0,8.76-7.1,15.85-15.85,15.85H15.99C7.23,58.04.14,50.94.14,42.19V15.99C.14,7.23,7.23.14,15.99.14h176.48c8.76,0,15.85,7.1,15.85,15.85v26.2Z"/>
      <path class="cls-1" d="M15.99,56.52c-7.92,0-14.34-6.42-14.34-14.34V15.99C1.65,9.06,6.57,3.28,13.1,1.94,6.57,3.28,1.65,9.06,1.65,15.99v26.2c0,7.92,6.42,14.34,14.34,14.34h176.48c.99,0,1.96-.1,2.89-.29-.93.19-1.9.29-2.89.29H15.99Z"/>
    </g>
  </g>
</svg>