<?xml version="1.0" encoding="UTF-8"?>
<svg id="Layer_2" data-name="Layer 2" xmlns="http://www.w3.org/2000/svg" viewBox="0 0 65.63 65.63">
  <defs>
    <style>
      .cls-1 {
        fill: #fff;
        stroke-width: 0px;
      }
    </style>
  </defs>
  <g id="Layer_1-2" data-name="Layer 1">
    <g>
      <path class="cls-1" d="M50.95,11.32c-1.87,0-3.4,1.52-3.4,3.39s1.52,3.39,3.4,3.39,3.39-1.52,3.39-3.39-1.52-3.39-3.39-3.39Z"/>
      <path class="cls-1" d="M49.79,0H15.84C7.1,0,0,7.09,0,15.84v33.95c0,8.75,7.1,15.84,15.84,15.84h33.95c8.74,0,15.84-7.09,15.84-15.84V15.84c0-8.75-7.1-15.84-15.84-15.84ZM59.97,48.66c0,6.25-5.07,11.32-11.32,11.32h-31.68c-6.25,0-11.31-5.07-11.31-11.32v-31.68c0-6.25,5.07-11.32,11.31-11.32h31.68c6.25,0,11.32,5.07,11.32,11.32v31.68Z"/>
      <path class="cls-1" d="M32.85,15.84c-9.37,0-16.97,7.6-16.97,16.97s7.6,16.97,16.97,16.97,16.97-7.6,16.97-16.97-7.6-16.97-16.97-16.97ZM32.85,44.13c-6.23,0-11.31-5.08-11.31-11.32s5.08-11.32,11.31-11.32,11.32,5.08,11.32,11.32-5.08,11.32-11.32,11.32Z"/>
    </g>
  </g>
</svg>