<?xml version="1.0" encoding="UTF-8"?>
<svg id="Layer_2" data-name="Layer 2" xmlns="http://www.w3.org/2000/svg" viewBox="0 0 87.71 83.56">
  <defs>
    <style>
      .cls-1 {
        fill: #fff;
        stroke-width: 0px;
      }
    </style>
  </defs>
  <g id="Layer_1-2" data-name="Layer 1">
    <path class="cls-1" d="M87.71,35.47c.02,4.93-1.38,9.49-3.64,13.81-4.06,7.78-9.96,14-16.61,19.58-6.48,5.44-13.63,9.79-21.28,13.36-1.13.53-2.33.95-3.55,1.23-1.91.44-2.83-.42-2.61-2.38.16-1.5.47-2.98.7-4.47.08-.57.15-1.14.16-1.71.04-1.94-.59-3.02-2.43-3.59-1.81-.56-3.69-.91-5.55-1.28-10.32-2.05-19.14-6.74-25.8-14.99-9.8-12.13-9.39-28.14.93-39.85C14.92,7.33,23.73,2.88,33.87.99c12.16-2.26,23.83-.71,34.74,5.27,7.13,3.91,12.77,9.36,16.29,16.81,1.85,3.9,2.79,8.14,2.8,12.4ZM43.62,35.3c.07-.03.15-.06.22-.09.2.24.4.47.59.72,2.16,2.91,4.43,5.75,6.43,8.76,1.16,1.75,2.45,2.57,4.57,2.3,1.43-.18,1.58-.17,1.58-1.65,0-5.35,0-10.69,0-16.04,0-3.51.39-3.2-3.26-3.2-1.36,0-1.57.21-1.57,1.55,0,3.01,0,6.03,0,9.04,0,.37,0,.75,0,1.44-.42-.51-.63-.75-.82-1-2.18-2.94-4.48-5.8-6.49-8.85-1.16-1.75-2.46-2.48-4.51-2.22-1.35.17-1.55.22-1.55,1.59,0,5.38,0,10.77,0,16.15,0,3.55-.38,3.13,3.17,3.15,1.54,0,1.65-.11,1.65-1.66,0-3.33,0-6.67,0-10ZM64.83,30.95c2.61,0,5.08,0,7.55,0,1.44,0,1.58-.14,1.58-1.62,0-.57,0-1.15,0-1.72-.01-1.3-.2-1.5-1.49-1.51-3.66,0-7.32,0-10.98,0-1.34,0-1.56.22-1.56,1.57,0,5.53,0,11.05,0,16.58,0,.54,0,1.08.01,1.61.02.74.38,1.1,1.15,1.1,3.91,0,7.82-.01,11.73,0,.83,0,1.17-.39,1.15-1.19-.02-.79-.03-1.58,0-2.37.04-.93-.4-1.28-1.3-1.27-2.22.02-4.45,0-6.67,0-.38,0-.76-.03-1.13-.05v-3.11c2.65,0,5.19-.02,7.74,0,.95.01,1.41-.34,1.36-1.32-.04-.79-.02-1.58,0-2.37.01-.81-.37-1.18-1.18-1.17-1.54.02-3.09,0-4.63,0-1.1,0-2.19,0-3.33,0v-3.18ZM19.26,42.14v-1.38c0-4.41-.01-8.82,0-13.24,0-.99-.37-1.48-1.39-1.44-.75.03-1.51.01-2.26,0-.85,0-1.25.41-1.22,1.26.02.57,0,1.15,0,1.72,0,5.49,0,10.98,0,16.46,0,.75.08,1.41,1.04,1.41,3.98,0,7.96,0,11.94,0,.64,0,1.02-.31,1.03-.97.01-.97.09-1.95-.04-2.9-.05-.35-.55-.78-.94-.9-.53-.16-1.14-.05-1.71-.05-2.11,0-4.22,0-6.47,0ZM31.01,36.61c0,2.94,0,5.88,0,8.82,0,1.32.19,1.51,1.47,1.52.61,0,1.22,0,1.83,0,1.37,0,1.54-.17,1.54-1.56,0-5.31,0-10.62,0-15.92,0-3.75.44-3.37-3.41-3.37-1.2,0-1.43.25-1.44,1.47,0,3.01,0,6.03,0,9.04Z"/>
  </g>
</svg>