<?xml version="1.0" encoding="UTF-8"?>
<svg id="Layer_2" data-name="Layer 2" xmlns="http://www.w3.org/2000/svg" viewBox="0 0 74.59 71.06">
  <defs>
    <style>
      .cls-1 {
        fill: #000;
        stroke-width: 0px;
      }
    </style>
  </defs>
  <g id="Layer_1-2" data-name="Layer 1">
    <path class="cls-1" d="M74.59,30.16c.02,4.19-1.18,8.07-3.1,11.75-3.45,6.61-8.47,11.91-14.13,16.65-5.51,4.62-11.6,8.33-18.1,11.36-.96.45-1.98.81-3.02,1.04-1.62.37-2.4-.36-2.22-2.03.14-1.27.4-2.53.59-3.8.07-.48.12-.97.13-1.46.04-1.65-.5-2.57-2.07-3.06-1.54-.48-3.13-.78-4.72-1.09-8.78-1.74-16.28-5.73-21.95-12.75C-2.31,36.47-1.96,22.86,6.82,12.9,12.69,6.24,20.19,2.45,28.81.84c10.34-1.92,20.26-.61,29.55,4.48,6.07,3.33,10.86,7.96,13.86,14.29,1.57,3.32,2.38,6.93,2.38,10.55ZM37.1,30.02c.06-.02.13-.05.19-.07.17.2.34.4.5.61,1.84,2.48,3.77,4.89,5.47,7.45.99,1.49,2.08,2.19,3.89,1.96,1.22-.16,1.34-.15,1.35-1.41,0-4.55,0-9.1,0-13.64,0-2.99.33-2.72-2.77-2.72-1.16,0-1.33.18-1.34,1.32,0,2.56,0,5.13,0,7.69,0,.32,0,.64,0,1.23-.36-.44-.54-.64-.7-.85-1.86-2.5-3.81-4.94-5.52-7.53-.98-1.49-2.09-2.11-3.84-1.88-1.14.15-1.32.19-1.32,1.35,0,4.58,0,9.16,0,13.73,0,3.02-.33,2.66,2.7,2.68,1.31,0,1.4-.09,1.4-1.41,0-2.84,0-5.67,0-8.51ZM55.14,26.32c2.22,0,4.32,0,6.42,0,1.23,0,1.34-.12,1.35-1.38,0-.49,0-.98,0-1.46,0-1.11-.17-1.28-1.27-1.28-3.11,0-6.22,0-9.34,0-1.14,0-1.33.19-1.33,1.33,0,4.7,0,9.4,0,14.1,0,.46,0,.92,0,1.37.02.63.33.94.98.94,3.33,0,6.65,0,9.98,0,.7,0,.99-.33.98-1.01-.01-.67-.03-1.34,0-2.01.03-.79-.34-1.09-1.11-1.08-1.89.02-3.78,0-5.68,0-.33,0-.65-.03-.96-.04v-2.65c2.25,0,4.42-.02,6.58,0,.8,0,1.2-.29,1.16-1.13-.03-.67-.02-1.34,0-2.01.01-.69-.31-1-1-.99-1.31.01-2.62,0-3.94,0-.93,0-1.86,0-2.83,0v-2.7ZM16.38,35.84v-1.17c0-3.75-.01-7.5,0-11.26,0-.84-.32-1.26-1.19-1.22-.64.03-1.28.01-1.92,0-.73,0-1.06.35-1.04,1.07.02.49,0,.98,0,1.46,0,4.67,0,9.33,0,14,0,.63.07,1.2.89,1.2,3.39,0,6.77,0,10.16,0,.55,0,.87-.26.88-.82.01-.82.07-1.66-.04-2.47-.04-.3-.47-.67-.8-.76-.45-.13-.97-.04-1.45-.04-1.79,0-3.59,0-5.5,0ZM26.37,31.14c0,2.5,0,5,0,7.5,0,1.13.16,1.28,1.25,1.29.52,0,1.04,0,1.56,0,1.17,0,1.31-.15,1.31-1.33,0-4.51,0-9.03,0-13.54,0-3.19.38-2.86-2.9-2.87-1.02,0-1.22.21-1.22,1.25,0,2.56,0,5.12,0,7.69Z"/>
  </g>
</svg>