<?xml version="1.0" encoding="UTF-8"?>
<svg id="Layer_2" data-name="Layer 2" xmlns="http://www.w3.org/2000/svg" viewBox="0 0 175.56 60.09">
  <defs>
    <style>
      .cls-1 {
        fill: #fff;
        stroke-width: 0px;
      }
    </style>
  </defs>
  <g id="Layer_1-2" data-name="Layer 1">
    <g>
      <path class="cls-1" d="M79.12,13.4h.28l-.52,1.67h-.92c-1.85,0-3.72.75-5.25,1.96-1.53,1.21-2.72,2.88-3.21,4.74-.97,3.7,1.23,6.7,4.93,6.7h17.18l3.08-10.02c.62-1.9-.86-3.38-3.24-3.38-1,0-3.12-.01-3.93,2.51-.71,2.22-1.41,4.57-1.41,4.57h-7.58l.24-.77h5.83l4.43-14.27h-5.86l.24-.77h6.71l.89,7.07h3.93L99.07,0h-16.42c-1.85,0-3.72.75-5.25,1.96-1.53,1.21-2.72,2.89-3.21,4.74-.97,3.7,1.24,6.7,4.93,6.7Z"/>
      <path class="cls-1" d="M100.79,28.48c2.04.09,4.11-.58,5.83-1.75,1.72-1.17,3.71-3.55,4.39-5.64.48,0,1.55,0,1.86,0-.71,3.14.64,7.23,4.71,7.42,2.03.09,4.11-.58,5.83-1.75,1.72-1.17,3.08-2.84,3.66-4.71l6.88-22.05h-11.51c-1.67,0-3.32,1.08-4.09,2.67-1.19,2.47.24,5.01,2.83,5.02h1.59s.47,7.68.47,7.68h-1.58s-2.96-5.96-2.96-5.96l-7.29-.03-5.37,5.92h-1.57S114.25,0,114.25,0h-12.14l-6.56,21.34c-1.18,3.76,1.17,6.95,5.23,7.14Z"/>
      <path class="cls-1" d="M50.63,28.46h3.85c1.93,0,3.72-1.57,3.98-3.5.27-1.93-1.09-3.5-3.02-3.5h-2.65l1.58-5.12h0s.91-2.97.91-2.97l2.17,7.03h2.03l1.98,8h4.21l.72-2.34,4.61-14.93h0l3.5-11.14h-10.79l2.8,11.14h-4.72L58.36,0h-7.99l-.52,1.69h0s-8.26,26.77-8.26,26.77h9.03Z"/>
      <path class="cls-1" d="M47.2,44.29l1.2-3.9.04-.13c1.33-4.29-1.88-8.63-6.37-8.63h0s0,0,0,0h-3.25c-5.35.01-10.07,3.5-11.65,8.61l-3.46,11.22c-1.32,4.29,1.88,8.63,6.37,8.63h0s3.22,0,3.22,0h0c5.37,0,10.11-3.49,11.69-8.62l1.08-3.49h0s1.13-3.68,1.13-3.68h0ZM32.34,52.71l4.21-13.7h3.25l-4.23,13.7h-3.23Z"/>
      <path class="cls-1" d="M101.93,31.63h-10.79l2.8,11.14h-4.72l-3.43-11.13h-7.99l-.52,1.69h0s-8.26,26.77-8.26,26.77h12.88c1.93,0,3.72-1.57,3.98-3.5.27-1.93-1.09-3.5-3.02-3.5h-2.65l1.58-5.12h0s.91-2.97.91-2.97l2.17,7.03h2.03l1.98,8h4.21l.72-2.34,4.61-14.93h0l3.5-11.14Z"/>
      <path class="cls-1" d="M68.69,31.63c-2.57,0-4.58,2.22-4.32,4.78l.88,8.66h-3.5s-1.67,5.44-1.67,5.44h-3.35l5.81-18.88h-9.01l-6.12,19.83c-1.32,4.29,1.88,8.63,6.37,8.63h.24c3.46-.01,6.54-2.01,7.99-5.04h.89s1.24,5.04,1.24,5.04h2.89l8.78-28.46h-7.11Z"/>
      <path class="cls-1" d="M115.48,51.27h0s-1.08-9.16-1.08-9.16h1.34l1.92,4.74h4.28l2.62-8.62,2.01-6.6h-22.42l-2,6.58h0l-2.64,8.64h6.41l2.65-4.74h1.58l-5.55,17.98h9.64c2.44,0,4.68-1.98,5.02-4.41h0c.33-2.43-1.36-4.4-3.78-4.41Z"/>
      <path class="cls-1" d="M13.07,52.62l-.04.09h-4.09l4.21-13.7h3.68s-3.02,5.51-3.02,5.51h9.91l.07-.21h0s1.2-3.9,1.2-3.9l.04-.13c.21-.66.3-1.33.3-1.98,0-3.55-2.87-6.65-6.67-6.65h0s0,0,0,0h-3.25c-5.35.01-10.07,3.5-11.65,8.61L.3,51.46c-1.32,4.29,1.88,8.63,6.37,8.63h0s3.22,0,3.22,0h0s0,.01,0,.01c5.37,0,10.11-3.5,11.7-8.63l1.08-3.48h0s.24-.78.24-.78h-9.91l.07,5.42Z"/>
      <path class="cls-1" d="M169.02,31.63h0c-.07,0-.14,0-.21,0h-.09s0,0,0,0c-3.6.13-6.13,2.52-6.53,5.45h0c-.23,1.67.32,3.16,1.36,4.17l-.91,2.97h-3.76l3.95-12.6h-12.55s4.05,18.46,4.05,18.46h6.5l-1.63,5.29h-1.86l1.67-3.73h-8.99s-.79,1.69-1.32,2.87c-1.36,2.99,1.22,5.59,4.12,5.59h13.95s8.78-28.47,8.78-28.47h-6.54Z"/>
      <path class="cls-1" d="M147.5,44.48c1.25-2.91,1.93-5.39,2.38-8.22.45-2.84-1.04-5.3-7.12-5.3-5.66,0-7.27,2.05-8.37,5.2h-.96l-.92-4.51h-3.57l-8.78,28.46h9.03l3.72-12.04h.95l1.73,12.04h6.57c2.44,0,3.8-1.98,4.14-4.41h0c.33-2.44-.87-4.41-3.42-4.41h-2.12l-1.31-2.04c4.89-.18,6.86-2,8.05-4.75ZM136.92,41.73l.39-1.39h4.7l.75,1.39h-5.84Z"/>
    </g>
  </g>
</svg>