<?xml version="1.0" encoding="UTF-8"?>
<svg id="Layer_2" data-name="Layer 2" xmlns="http://www.w3.org/2000/svg" viewBox="0 0 161.36 65.87">
  <defs>
    <style>
      .cls-1 {
        fill: #fff;
        stroke-width: 0px;
      }
    </style>
  </defs>
  <g id="Layer_1-2" data-name="Layer 1">
    <g>
      <path class="cls-1" d="M161.34,33.32v-15.95c0-9.58-6.69-17.37-14.91-17.37H14.91C6.69,0,0,7.79,0,17.37v31.58c0,9.33,6.69,16.93,14.91,16.93h131.54c8.22,0,14.91-7.6,14.91-16.93v-15.62h-.02ZM157.68,47.87c0,7.89-5.81,14.34-12.92,14.34H16.58c-7.1,0-12.92-6.46-12.92-14.34v-29.71c0-7.89,5.81-14.34,12.92-14.34h128.19c7.1,0,12.92,6.45,12.92,14.34v29.71Z"/>
      <path class="cls-1" d="M142.6,10.08h-23.93c-5.29,0-9.61,5.14-9.61,11.43v23.67c0,6.28,4.32,11.43,9.61,11.43h23.93c5.29,0,9.61-5.14,9.61-11.43v-23.67c0-6.29-4.33-11.43-9.61-11.43ZM122.66,50.68c-5.82,0-11.69-3.18-11.69-10.29v-.55h6.69v.53c.07,2.23,1.41,4.6,5,4.6,3.12,0,5.05-1.78,5.05-4.66s-1.85-4.29-6.17-4.29c-.41,0-.85.01-1.33.03l-.57.03v-5.41l.57.02c.18,0,.37.01.55.01,2.15,0,5.75-.51,5.75-3.93,0-2.11-1.6-3.52-3.99-3.52-3.17,0-4.32,2.58-4.32,4.32v.55h-6.63v-.55c0-5.71,4.74-10.02,11.02-10.02,5.24,0,10.55,3.05,10.55,8.89,0,2.74-1.2,5.04-3.26,6.37,2.72,1.27,4.47,4.23,4.47,7.77,0,5.85-4.92,10.09-11.69,10.09ZM149.35,50.08h-7.17v-21.35h-7.54v-5.5h.55c2.78,0,7.58-.6,8.54-4.65l.1-.42h5.52v31.92Z"/>
      <g>
        <path class="cls-1" d="M22.78,18.05c-8.85,0-16.06,7.2-16.06,16.06s7.2,16.06,16.06,16.06,16.06-7.2,16.06-16.06-7.2-16.06-16.06-16.06ZM28.27,48.26c-1.79.74-3.75,1.15-5.81,1.15,0,0-.8,0-1.43-.11v-22.2h-3.42v-4.12c2.55.05,5.12-1.6,5.79-4.15,1.71.1,3.35.49,4.86,1.12v28.31Z"/>
        <path class="cls-1" d="M54.88,18.09h-.23c-2.78,0-5.64.9-8.07,2.51v-2.22h-6.18v12.48c-.02.28-.03.56-.03.85v18.08h6.21v-20.11c.39-3.33,2.97-5.44,7.16-5.44h.23c3.48,0,5.45,2.85,5.45,6.33v19.22h6.15v-20.23c0-7.56-3.8-11.48-10.69-11.48Z"/>
        <path class="cls-1" d="M67.17,37.58c0,6.97,5.61,12.68,12.46,12.68h.26c5.79,0,10.69-4.07,12.07-9.54l-5.75-2.25c-.51,3.12-3.18,5.52-6.39,5.52h-.14c-3.56,0-6.48-2.97-6.48-6.59v-1.36h19.14v-5.25c0-6.97-5.61-12.68-12.46-12.68h-.26c-6.85,0-12.46,5.7-12.46,12.68v6.79ZM79.69,24.38h.14c3.26,0,5.97,2.49,6.41,5.69h-12.96c.43-3.2,3.15-5.69,6.41-5.69Z"/>
      </g>
      <g>
        <path class="cls-1" d="M95.5,22.4v-3.17h-2.7v3.17h-1.4v-7.57h1.4v3.05h2.7v-3.05h1.4v7.57h-1.4Z"/>
        <path class="cls-1" d="M101.69,21.98c-.61.31-1.3.42-2.45.42h-1.76v-7.57h1.73c1.19,0,2.09.18,2.68.54,1.05.64,1.65,1.82,1.65,3.26,0,1.53-.69,2.78-1.85,3.35ZM100.97,16.48c-.44-.23-.92-.31-1.81-.31h-.28v4.88h.31c.84,0,1.42-.1,1.84-.34.68-.37,1.1-1.18,1.1-2.09,0-.97-.44-1.78-1.16-2.15Z"/>
      </g>
    </g>
  </g>
</svg>