<?xml version="1.0" encoding="UTF-8"?>
<svg id="Layer_2" data-name="Layer 2" xmlns="http://www.w3.org/2000/svg" viewBox="0 0 133.17 95.66">
  <defs>
    <style>
      .cls-1 {
        fill: #fff;
        stroke-width: 0px;
      }
    </style>
  </defs>
  <g id="Layer_1-2" data-name="Layer 1">
    <g>
      <g>
        <path class="cls-1" d="M9.55,28.36c-4.2,0-6.94-1.06-9.55-3.69l2.03-2.03c2.31,2.31,4.46,3.05,7.6,3.05,4.07,0,6.58-1.91,6.58-5.16,0-1.46-.42-2.7-1.33-3.49-.9-.79-1.61-1.02-3.65-1.33l-3.25-.51c-2.19-.35-3.92-1.07-5.13-2.11-1.41-1.26-2.11-2.98-2.11-5.21C.74,3.13,4.14,0,9.67,0c3.56,0,5.91.89,8.3,3.05l-1.92,1.92c-1.73-1.56-3.56-2.39-6.5-2.39-3.72,0-5.88,2.08-5.88,5.17,0,1.37.39,2.47,1.25,3.22.87.75,2.32,1.3,3.76,1.52l3.05.47c2.63.4,3.92.95,5.1,1.96,1.53,1.29,2.36,3.21,2.36,5.52,0,4.91-3.84,7.92-9.64,7.92Z"/>
        <polygon class="cls-1" points="33.02 4.5 24.62 28.12 21.45 28.12 31.72 .24 34.22 .24 44.44 28.12 41.27 28.12 33.02 4.5"/>
        <polygon class="cls-1" points="84.83 4.5 76.44 28.12 73.26 28.12 83.53 .24 86.04 .24 96.25 28.12 93.09 28.12 84.83 4.5"/>
        <polygon class="cls-1" points="57.53 37.27 49.15 60.9 45.97 60.9 56.24 33 58.74 33 68.96 60.9 65.78 60.9 57.53 37.27"/>
        <polygon class="cls-1" points="129.99 28.12 133.17 28.12 122.95 .24 120.44 .24 116 12.3 111.58 .24 109.07 .24 98.81 28.12 101.98 28.12 110.38 4.5 114.51 16.35 117.53 16.35 121.73 4.5 129.99 28.12"/>
        <polygon class="cls-1" points="66.33 28.12 51.53 5.76 51.53 28.12 48.55 28.12 48.55 .24 51.38 .24 66.18 22.53 66.18 .24 69.16 .24 69.16 28.12 66.33 28.12"/>
        <polygon class="cls-1" points="2.38 60.9 2.38 33 5.36 33 5.36 58.23 19.61 58.23 19.61 60.9 2.38 60.9"/>
        <path class="cls-1" d="M32.5,61.13c-5.64,0-9.7-3.88-9.7-9.45v-18.67h2.97v18.45c0,4.24,2.66,7.01,6.73,7.01s6.78-2.78,6.78-7.01v-18.45h2.97v18.67c0,5.57-4.11,9.45-9.75,9.45Z"/>
        <polygon class="cls-1" points="90.85 60.9 76.05 38.52 76.05 60.9 73.07 60.9 73.07 33 75.89 33 90.71 55.28 90.71 33 93.67 33 93.67 60.9 90.85 60.9"/>
        <path class="cls-1" d="M117.48,57.91c-1.96,2.12-4.58,3.22-7.45,3.22s-5.24-1.02-7.12-2.89c-2.62-2.63-2.62-5.37-2.62-11.29s0-8.66,2.62-11.28c1.88-1.88,4.35-2.9,7.12-2.9,5.33,0,8.93,3.45,9.75,8.35h-2.97c-.78-3.52-3.29-5.68-6.78-5.68-1.83,0-3.6.75-4.81,2.01-1.76,1.79-1.96,3.67-1.96,9.51s.2,7.76,1.96,9.57c1.21,1.24,2.98,1.95,4.81,1.95,2.04,0,4-.83,5.29-2.39,1.14-1.37,1.57-2.9,1.57-5.06v-2.11h-6.86v-2.62h9.84v4.42c0,3.22-.67,5.37-2.39,7.2Z"/>
      </g>
      <polygon class="cls-1" points="24.24 66.6 17.05 83.32 9.88 66.6 2.49 66.6 2.49 94.87 9.43 94.87 9.43 82.89 14.44 94.87 19.68 94.87 24.7 82.89 24.7 94.87 31.63 94.87 31.63 66.6 24.24 66.6"/>
      <path class="cls-1" d="M48.85,66.6v17.08c0,1.62-.39,2.74-1.08,3.63-.71.86-1.27,1.13-2.33,1.15-.67,0-1.12-.13-1.47-.31-.45-.25-.77-.54-1.04-.91-.29-.41-.51-.88-.66-1.47-.15-.62-.22-1.27-.22-1.97v-17.21h-6.94v17.15c0,3.23.89,6.11,2.81,8.26,1.86,2.13,4.52,3.27,7.43,3.27h.1c1.49,0,2.93-.31,4.23-.92,1.27-.61,2.39-1.43,3.32-2.5.93-1.07,1.64-2.33,2.1-3.74.47-1.4.69-2.92.69-4.52v-17.01h-6.92Z"/>
      <path class="cls-1" d="M74.7,79.62c-1.57-1.34-3.55-2.25-5.82-2.79-.46-.11-.94-.25-1.42-.42-.4-.13-.72-.29-1.02-.46-.15-.1-.27-.22-.39-.41-.04-.06-.13-.24-.13-.65.01-.56.15-.89.56-1.37.39-.4.64-.51,1.23-.54.73.03,1.05.18,1.43.54.37.4.61.88.69,1.76l.13.98h6.79v-1.12c0-1.23-.22-2.43-.67-3.55-.45-1.07-1.08-2.04-1.86-2.84-.82-.8-1.76-1.43-2.82-1.88-1.08-.45-2.22-.67-3.4-.67s-2.34.19-3.44.62c-1.07.41-2.05,1-2.87,1.77-.83.76-1.5,1.69-1.96,2.74-.5,1.08-.73,2.3-.73,3.54s.24,2.54.81,3.63c.49.97,1.15,1.83,1.98,2.54.77.66,1.63,1.19,2.57,1.57.9.36,1.81.62,2.77.73,1.09.14,1.9.49,2.56,1.03.55.49.7.81.74,1.61-.02.83-.21,1.22-.7,1.71-.53.47-1.05.68-1.92.71-.82-.03-1.2-.22-1.69-.72-.49-.55-.74-1.17-.79-2.16l-.06-1.06h-7v1.12c0,1.37.24,2.68.76,3.89.49,1.17,1.2,2.22,2.1,3.09.89.86,1.94,1.53,3.09,1.99,1.17.47,2.43.71,3.72.71h.02c1.25,0,2.48-.24,3.61-.71,1.13-.46,2.14-1.13,3.01-1.96.86-.83,1.55-1.84,2.03-2.96.51-1.14.76-2.38.76-3.65h0c.02-2.54-.84-4.86-2.64-6.37Z"/>
      <rect class="cls-1" x="80.88" y="66.6" width="6.94" height="28.21"/>
      <path class="cls-1" d="M119.79,85.8c-2.05,5.75-7.55,9.85-14,9.86h0c-8.21,0-14.87-6.66-14.87-14.87h0c0-8.22,6.66-14.88,14.87-14.88h0c6.65.01,12.29,4.38,14.19,10.41h0l-7.05.94c-1.3-2.62-4-4.44-7.14-4.43h0c-4.39,0-7.94,3.56-7.95,7.96h0c0,4.4,3.56,7.94,7.95,7.96h0c2.93,0,5.48-1.59,6.86-3.95l7.13,1.01Z"/>
    </g>
  </g>
</svg>