<?xml version="1.0" encoding="UTF-8"?>
<svg xmlns="http://www.w3.org/2000/svg" xmlns:xlink="http://www.w3.org/1999/xlink" viewBox="0 0 272.88 263.21">
  <defs>
    <style>
      .cls-1 {
        fill: #333;
      }

      .cls-1, .cls-2, .cls-3, .cls-4 {
        stroke-width: 0px;
      }

      .cls-5, .cls-6, .cls-7, .cls-8, .cls-9, .cls-10, .cls-11, .cls-12, .cls-13, .cls-14, .cls-15, .cls-16, .cls-17, .cls-18, .cls-19 {
        stroke: #000;
        stroke-width: 2px;
      }

      .cls-5, .cls-6, .cls-7, .cls-8, .cls-9, .cls-10, .cls-11, .cls-12, .cls-13, .cls-15, .cls-17, .cls-18, .cls-19 {
        stroke-miterlimit: 10;
      }

      .cls-5, .cls-20 {
        fill: #4d4d4d;
      }

      .cls-21 {
        clip-path: url(#clippath);
      }

      .cls-6, .cls-16 {
        fill: #fff;
      }

      .cls-7 {
        fill: none;
      }

      .cls-2 {
        fill: #191919;
      }

      .cls-22, .cls-18 {
        fill: #e4e4e4;
      }

      .cls-23 {
        stroke: #fff;
        stroke-width: 3px;
      }

      .cls-23, .cls-3, .cls-14 {
        fill: #000;
      }

      .cls-23, .cls-14, .cls-16 {
        stroke-linecap: round;
        stroke-linejoin: round;
      }

      .cls-24 {
        clip-path: url(#clippath-1);
      }

      .cls-25 {
        clip-path: url(#clippath-4);
      }

      .cls-26 {
        clip-path: url(#clippath-3);
      }

      .cls-27 {
        clip-path: url(#clippath-2);
      }

      .cls-28 {
        clip-path: url(#clippath-5);
      }

      .cls-8 {
        fill: #cacaca;
      }

      .cls-9 {
        fill: #282828;
      }

      .cls-10 {
        fill: #141414;
      }

      .cls-29, .cls-19 {
        fill: #424242;
      }

      .cls-11 {
        fill: #1a1a1a;
      }

      .cls-12 {
        fill: #2b2b2b;
      }

      .cls-30, .cls-15 {
        fill: #b1b1b1;
      }

      .cls-31, .cls-13 {
        fill: #666;
      }

      .cls-32, .cls-4 {
        opacity: .5;
      }

      .cls-4 {
        fill: #6d6e71;
        mix-blend-mode: multiply;
      }

      .cls-33 {
        isolation: isolate;
      }

      .cls-17 {
        fill: #9c9c9c;
      }
    </style>
    <clipPath id="clippath">
      <path class="cls-13" d="M130.45,154.12c0,10.43-4.3,16.46-18.9,16.77-9.1.19-14.49-.26-24.29,1.73-16.08,3.27-30.64,17.51-41.27,17.51-25.48,0-24.84-45.88-23.27-63.2,2.12-23.39,15.42-49.97,46.98-52.1,42.76-2.88,60.75,53.81,60.75,79.29Z"/>
    </clipPath>
    <clipPath id="clippath-1">
      <path class="cls-5" d="M72.61,167.2c-1.93,4.16-5.51,18.76-7.89,25.94-3.18,9.58,3.78,11.39,19.72,10.95,11.9-.33,16.72-1.91,17.81-7.41.91-4.57-1.98-12.23-4.33-19.16-1.25-3.68-3.06-9.81-3.65-11.73-7.42.67-14.25.74-21.66,1.41Z"/>
    </clipPath>
    <clipPath id="clippath-2">
      <path class="cls-15" d="M184.58,223.64c1.45-1.08,1.83-3.1,1.72-5.32-.13-2.65-.15-5.31-.08-7.96.06-2.34.8-5.06.6-7.34-.15-1.7-1.97-3.19-4.5-3.95h-6.72c-2.28,0-3.82.11-4.08,2.01-.74,5.42-1.32,10.75-1.02,16.24.4,7.27,5.38,7.37,11.46,7.14,1.12-.04,1.97-.33,2.61-.81Z"/>
    </clipPath>
    <clipPath id="clippath-3">
      <path class="cls-15" d="M204.59,224.42c-.8-.25-5.36-2.08-5.36-2.08-1.3-.4-2.79-.62-4.52-.62-1.62,0-3.03.19-4.26.54-.47-2.86.35-.83-.55-7.6-.77-4.16-2.12-9.69-3.33-12.07-.2-.39-.31-.82-.32-1.26-.08-2.61,2.01-3.2,5.03-3.84l8.18-1.74c3.03-1.03,5.79,0,6.53,1.74.49,1.17-.17,2.22-.42,2.75.61,3.17,1.37,6.55,1.97,9.72.43,3.28.86,6.55,1.29,9.83.45,1.82.32,3.43-.39,4.09-.23.22-.49.36-.49.36-.46.14-1.23.22-1.98.28-.28.02-1.04.02-1.38-.09Z"/>
    </clipPath>
    <clipPath id="clippath-4">
      <path class="cls-18" d="M198.56,167.14c1.93,4.16,4.19,18.79,6.58,25.98,3.18,9.58-2.47,11.35-18.41,10.91-11.9-.33-16.72-1.91-17.81-7.41-.91-4.57,1.98-12.23,4.33-19.16,1.25-3.68,3.06-9.81,3.65-11.73,7.42.67,14.25.74,21.66,1.41Z"/>
    </clipPath>
    <clipPath id="clippath-5">
      <path class="cls-19" d="M236.65,120.54c.76-6.14,1.91-39.88-8.2-41.82-4.02-.77-9.29,2.86-12.69,7.03-6.01-2.83-12.79-4.48-19.72-4.87-4.86-.27-9.5.13-13.82,1.16-.72-1.93-3.51-5.19-6.56-5.19-6.06,0-19.82,36.18-19.82,36.18,0,0-9.4,4.7-10.41,7.65-.44,1.28,2.83,2.15,5.38,3.06.6.22.73,1.01.22,1.4-3.08,2.37-7.55,6.3-7.28,7.86.25,1.45,3.02,2,5.77,2.36.69.09.95.95.43,1.41-3.8,3.3-7.59,8.3-7.04,10.58.69,2.87,7.59,3.09,12.75,2.96,1.93,4.28,4.68,7.6,8.52,10.41,7.98,5.82,18.08,7.62,28.39,7.62,6.94,0,13.19-2.07,18.67-5.49.57-.36,1.31-.32,1.84.09h0c7.9,2.95,19.6,9.17,22.77,5.31,2.14-2.61-1.01-11.42-4.89-16.8-.39-.54.07-1.29.73-1.17,4.57.86,11.42,4.56,12.66,2.48,1.39-2.34-3.17-12.35-7.85-15.65-.41-.29-.08-.96.42-.89,2.78.36,5.71.56,7.69-.07.9-.29,1.43-1.22,1.21-2.14-2.01-8.74-9.29-12.46-9.17-13.45Z"/>
    </clipPath>
  </defs>
  <g class="cls-33">
    <g id="Layer_2" data-name="Layer 2">
      <g id="Layer_1-2" data-name="Layer 1">
        <g>
          <path class="cls-14" d="M270.87,35.45l-5.22-2.11c-3.07-1.24-6.33-1.86-9.68-1.83-5.19.04-10.31,1.7-14.43,4.66-6.86,4.93-10.48,12.91-9.95,21.89.41,6.88,4.98,16.41,16.49,20.63l4.79,1.75,1.02.37.37-1.02,3.51-9.58.37-1.02-1.02-.37-4.79-1.75c-6.31-2.31-8.24-7.21-8.4-9.75,0-.14-.02-.28-.02-.42l10.99,4.45,1.01.41.41-1.01,3.83-9.46.41-1.01-1.01-.41-10.14-4.1c1.95-1.21,4.27-1.88,6.63-1.9,1.72-.01,3.38.3,4.96.94l5.21,2.11,1.01.41.41-1.01,3.83-9.46.41-1.01-1.01-.41Z"/>
          <path class="cls-14" d="M151.02,31.86c-4.34-7.41-11.8-9.53-17.25-11.08-.95-.27-3.26-.93-4.17-1.36.02-.12.07-.28.16-.47.46-.97,1.7-2.01,3.79-2.04h.1c4.57-.04,7.25,3.42,7.25,3.42l10.19-6.87s-5.52-8.95-17.54-8.93c-.07,0-.14,0-.21,0-6.47.11-12.12,3.58-14.74,9.07-2.2,4.58-1.78,9.73,1.1,13.43,2.61,3.36,6.71,4.52,10.69,5.65,4,1.13,8.13,2.31,9.95,5.42.72,1.23.68,2.63-.11,3.92-1.08,1.76-3.22,2.78-5.89,2.8-.23,0-.46,0-.69-.02-4.21-.24-5.06-1.39-5.16-1.51-.86-1.03.4-3.58.4-3.58l-10.41-4.25-1.01-.41-.41,1.01c-.31.77-2.93,7.7.97,13.85,2.8,4.41,7.81,6.85,14.92,7.25.22.01.44.02.66.03.28,0,.57.01.85,0,3.4-.03,6.68-.83,9.49-2.32,2.83-1.5,5.19-3.72,6.84-6.4,3.19-5.21,3.27-11.42.23-16.62Z"/>
          <path class="cls-14" d="M90.87,31.12c-1-7.98-2.68-14.83-2.75-15.12v-.03s-.02-.03-.02-.03l-2.7-8.56-.31-.97-.99.24-9.9,2.43-1.12.28.35,1.1,2.68,8.52c.13.54,1.78,7.45,2.62,14.89.91,8.03.37,12.31-.17,14.13-1.17-1.02-3.49-3.78-6.47-10.97-3.18-7.66-5.16-15.75-5.18-15.83l-1.2-4.96-.26-1.06-.16.04v-.05s-1.07.26-1.07.26l-6,1.49-3.74.91-1.06.26v.03s-.15.04-.15.04l.26,1.05,1.23,4.95c.02.08,2.01,8.17,2.74,16.43.39,4.39.35,7.94-.1,10.54-.15.87-.33,1.51-.49,1.97-1.39-1.46-4.14-5.22-7.82-14.57-3.22-8.19-5.4-16.29-5.43-16.37l-1.31-4.93-.28-1.05-1.05.28-9.86,2.63-1.05.28.28,1.05,1.31,4.93c.09.33,2.17,8.11,5.44,16.62,1.97,5.12,3.96,9.45,5.93,12.89,2.89,5.04,5.83,8.31,8.98,10.01,1.62.87,3.31,1.34,5.01,1.39.12,0,.25,0,.37,0,1.09,0,2.17-.19,3.22-.54,2.89-.97,6.53-3.46,8.32-9.79,2.35,2.47,5.66,4.85,9.79,4.97.14,0,.27,0,.41,0,.57,0,1.14-.05,1.71-.14,3.1-.49,5.7-2.2,7.52-4.95,1.9-2.86,2.92-6.81,3.13-12.08.14-3.57-.09-7.83-.7-12.64Z"/>
          <path class="cls-1" d="M249.16,240.4c2.59-7.07,3.97-16.39,3.97-28.57,0-75.71-53.37-137.09-119.2-137.09S14.73,136.12,14.73,211.83c0,12.18,1.38,21.49,3.97,28.57h230.46Z"/>
          <ellipse class="cls-3" cx="133.93" cy="240.21" rx="114.64" ry="22.99"/>
          <g>
            <path class="cls-17" d="M89.27,244.67c.14.46.52.8,1,.88,2.54.44,11.1,1.69,22.18,1,13.29-.83,12.46-2.91,12.46-2.91l.1-5.04c0-.58-.4-1.09-.96-1.23l-3.47-.87c-.09-.02-.19-.04-.28-.04l-31.67-.59c-.86-.02-1.48.81-1.23,1.63l1.87,7.15Z"/>
            <path class="cls-17" d="M57.42,241.97s0-2.48.09-4.46c.06-1.21,1.52-.57,1.52-.57l31.41,3.51s1.37-.04,1.54,1.95c.23,2.61-.21,4.05-.21,4.05,0,0-3.95,5.3-17.75,4.44-15.83-.98-16.8-7.97-16.61-8.92Z"/>
            <path class="cls-16" d="M101.77,201.93c.62,3.45,4.34,3.03,4.34,3.03,2.75-.42,4.62-3.11,4.18-6-.44-2.9-1.27-6.84-4.02-6.42-2.75.42-6.1,4.06-5.66,6.95,0,0,.19,2.53,2.1,2.14,2.26-.34,1.03-2.91,1.03-2.91"/>
            <path class="cls-15" d="M98.47,223.25c1.84-.47,6.74-3.05,13.31-2.36,12.18,1.28,11.27,12.5,11.28,16.5.01,5.15-31.1,3.15-35.29,1.83-3.64-1.15-2.57-4.23-2.57-4.84,0-4.23.75-8.95,1.37-11.45,1.58.4,3.35.56,5.2.41"/>
            <path class="cls-10" d="M86.55,223.75c-.47-.31-.76-.76-1.09-1.14-1.5-1.72-1.42-13.94-1.02-18.52-.11-.38-.13-.72-.1-1.01.15-1.7,1.97-3.19,4.5-3.95h6.72c2.28,0,3.82.11,4.08,2.01.04.32.02.65-.07.96-.54,1.93-.81,6.14-.85,9.23.19,4.89,1.2,8.51,1.22,10.54.02,2.14-4.49,2.89-10.74,2.65-1.35-.05-1.99-.34-2.64-.77Z"/>
            <path class="cls-8" d="M70.95,222.7c1.53-.47,3.29-.73,5.32-.73,11.23,0,14.21,7.67,14.21,17.14,0,7.68-22.48,6.92-29.27,1.83-2.71-2.03-2.13-4.23-2.13-4.84,0-3.47.42-8.63.85-11.77.13-.95.97-1.65,1.93-1.6,1.37.06,3.28.06,4.37-.34l4.71.31Z"/>
            <path class="cls-10" d="M66.57,224.48c.8-.25,5.36-2.08,5.36-2.08,1.3-.4,2.79-.62,4.52-.62,1.62,0,3.03.19,4.26.54.47-2.86-.35-.83.55-7.6.77-4.16,2.12-9.69,3.33-12.07.2-.39.31-.82.32-1.26.08-2.61-2.01-3.2-5.03-3.84l-8.18-1.74c-3.03-1.03-5.79,0-6.53,1.74-.49,1.17.76,2.27.42,2.75-3.5,4.88-2.71,15.56-3.23,19.26-.03.2-.07.4-.11.59-.36,1.69-.21,3.16.46,3.79.23.22.49.36.49.36.46.14,1.23.22,1.98.28.28.02,1.04.02,1.38-.09Z"/>
            <g>
              <path class="cls-31" d="M130.45,154.12c0,10.43-4.3,16.46-18.9,16.77-9.1.19-14.49-.26-24.29,1.73-16.08,3.27-30.64,17.51-41.27,17.51-25.48,0-24.84-45.88-23.27-63.2,2.12-23.39,15.42-49.97,46.98-52.1,42.76-2.88,60.75,53.81,60.75,79.29Z"/>
              <g class="cls-21">
                <g class="cls-32">
                  <path class="cls-1" d="M97.23,88.66c-11.06-4.53-21.22-3.48-24.62-3-14.93,2.12-24.48,11.08-27.92,14.41-22.64,21.86-17.16,54.82-15.91,62.3.44,2.65,3.94,22.65,13.21,25.37,7.24,2.13,11.41-.15,11.41-.15,1.61-.88,2.65-2.07,3.35-1.68,1.18.65,1.15,5.64-1.4,8.31-4.67,4.9-12.37,6.19-18.82,4.14-6.45-2.05-11.69-7.01-15.22-12.79-3.53-5.78-5.51-12.36-7.07-18.95-2.87-12.07-4.48-24.53-3.54-36.9.95-12.37,4.54-24.68,11.43-35,12.34-18.47,35.45-29.14,57.51-26.54,4.56.54,14.66,1.71,23.36,9.18,9.35,8.02,13.61,20.24,11.63,21.77-1.65,1.27-6.23-5.92-17.39-10.49Z"/>
                </g>
              </g>
              <path class="cls-7" d="M130.45,154.12c0,10.43-4.3,16.46-18.9,16.77-9.1.19-14.49-.26-24.29,1.73-16.08,3.27-30.64,17.51-41.27,17.51-25.48,0-24.84-45.88-23.27-63.2,2.12-23.39,15.42-49.97,46.98-52.1,42.76-2.88,60.75,53.81,60.75,79.29Z"/>
            </g>
            <path class="cls-11" d="M38.18,177.77c1.7-10.47,32.51-39.67,54.61-41.46,22-1.78,33.04,8.02,32.28,19.47-.41,6.21-4.71,10.57-16.02,10.05-14.86-.69-18.39,1.88-26.92,3.64s-15.79,2.56-25.21,11.01c-9.11,8.17-19.99,5.02-18.74-2.72Z"/>
            <path class="cls-5" d="M96.87,165.65c1.26,1.65,2.82,6.92,6.19,12.2,2.62,4.09,5.92,8.57,7.42,11.85,1.19,2.59-.06,5.28-1.7,6.35-2.23,1.46-4.75,3.24-7.26,3.06,0,0-.9-.19-3.06-1.46-4.3-2.53-7.74-16.25-6.72-31.39l5.12-.62Z"/>
            <g>
              <path class="cls-20" d="M72.61,167.2c-1.93,4.16-5.51,18.76-7.89,25.94-3.18,9.58,3.78,11.39,19.72,10.95,11.9-.33,16.72-1.91,17.81-7.41.91-4.57-1.98-12.23-4.33-19.16-1.25-3.68-3.06-9.81-3.65-11.73-7.42.67-14.25.74-21.66,1.41Z"/>
              <g class="cls-24">
                <path class="cls-4" d="M74.43,156.26s-5.61,38.85,1.56,40.65,27.96,1.79,27.25-9.32,6.45,18.28,6.45,18.28l-17.63,5.98-36.15-6.7,6.81-45.36,11.7-3.53"/>
              </g>
              <path class="cls-7" d="M72.61,167.2c-1.93,4.16-5.51,18.76-7.89,25.94-3.18,9.58,3.78,11.39,19.72,10.95,11.9-.33,16.72-1.91,17.81-7.41.91-4.57-1.98-12.23-4.33-19.16-1.25-3.68-3.06-9.81-3.65-11.73-7.42.67-14.25.74-21.66,1.41Z"/>
            </g>
            <path class="cls-5" d="M69.75,184.8c-.91,6.44-1.56,8.4-7.23,8.4s-9.48-3.02-9.27-8.69c.32-8.91,6.83-13.25,11.98-16.81,2.14-1.48,3.25-.96,4.76-.28,2.74,1.23,1.9,3.64,1.23,8.03-.47,3.06-.97,5.81-1.47,9.35Z"/>
            <path class="cls-9" d="M86.45,168.1c-.81,2.55-.69,4.9-.2,5.97.36.8,1.11,1.35,1.98,1.49l3.72.61c.8.13,1.63-.1,2.22-.66,3.25-3.06,3.43-9.2,3.43-9.2,0,0-7.39-9.96-11.13,1.79Z"/>
            <path class="cls-9" d="M73.05,176.93c3.03,4.33,6.27,2.04,6.27,2.04l3.75-2.62c.78-.55,1.32-1.38,1.47-2.32.61-3.69-1.86-5.64-1.86-5.64,0,0-5.19-6.5-10.03-5.95s-7.13,3.72-7.13,3.72l7.52,10.77"/>
            <path class="cls-7" d="M92.44,166.46s-.17,8.01-5.05,8.81"/>
            <path class="cls-7" d="M72.78,166.21c2.99,1.12,4.53,3.6,4.53,3.6,3.95,5.09,1.29,6.92,1.29,6.92,0,0-1.44,1.23-2.87-.44"/>
            <path class="cls-13" d="M62.73,159.79c-.57,2.2,2.14,6.17,2.14,6.17,0,0,4.6,6.63,6.63,9.42s3.69,1.4,3.69,1.4c0,0,2.11-1.35-.05-4.22-2.16-2.86-5.68-8.09-5.68-8.09l-6.72-4.68Z"/>
            <path class="cls-6" d="M111.4,138.19c-5.2-1.65-12.6-3.5-24.44-1.05-8.65,1.79-21.96,11.65-22.43,11.97-4.06,2.8-15.29,12.67-17.89,15.55s-2.34,3.63,8.72,2.27c2.19-.27,5.09-1.1,6.54-.99,8.14,6,25.19,2.41,28.88,1.23,4.4-1.41,13.39-3.71,17.99-12.83.03-.06,1.53-2.69,2.11-4.52.12-.38.37-1.21.56-2.05.14-.64.61-.87,1.36-1.02,1.89-.36,8.96-.56,9.03-1.12.13-1.07-4.67-4.97-6.85-5.95-1.97-.89-2.96-1.27-3.58-1.5Z"/>
            <path class="cls-2" d="M68.32,148.86c-.39-.13-.8.15-.8.56,0,0,0,0,0,0,0,3.77,3.09,6.82,6.91,6.82,2.19,0,4.14-1.01,5.41-2.58.26-.33.12-.82-.27-.96-3.37-1.16-7.58-2.61-11.24-3.86Z"/>
            <path class="cls-2" d="M95.34,147.9c-.29.36-.15.9.28,1.07.62.24,1.28.36,1.96.36,3.36,0,6.09-3.05,6.09-6.82,0-.93-.17-1.82-.47-2.63-.19-.5-.84-.61-1.17-.2l-6.68,8.21Z"/>
            <path class="cls-6" d="M67.91,192.41c-5.03,1.51-11-2.07-10.64-8.62.31-5.75,3.69-6.11,3.65-9.65-.04-4.32-.52-6.82,2.08-6.98,1.82-.11,3.62,1.23,3.71,3.7.06,1.66-.47,2.92-.29,5.58.11,1.62,4.39-.67,5.71,6.11,1.01,5.16-.48,8.73-4.22,9.85Z"/>
            <path class="cls-3" d="M95.39,157.88l-2.63,2.82c-.58.62-1.56.86-2.36.57l-3.62-1.31c-1.54-.56-1.4-2.47.22-3.08,2.2-.83,4.47-1.38,6.8-1.64,1.72-.19,2.71,1.45,1.6,2.65Z"/>
          </g>
          <g>
            <path class="cls-17" d="M182.26,244.67c-.14.46-.52.8-1,.88-2.54.44-11.1,1.69-22.18,1-13.29-.83-12.46-2.91-12.46-2.91l-.1-5.04c0-.58.4-1.09.96-1.23l3.47-.87c.09-.02.19-.04.28-.04l31.67-.59c.86-.02,1.48.81,1.23,1.63l-1.87,7.15Z"/>
            <path class="cls-17" d="M214.11,241.97s0-2.48-.09-4.46c-.06-1.21-1.52-.57-1.52-.57l-31.41,3.51s-1.37-.04-1.54,1.95c-.23,2.61.21,4.05.21,4.05,0,0,3.95,5.3,17.75,4.44,15.83-.98,16.8-7.97,16.61-8.92Z"/>
            <path class="cls-5" d="M173.06,223.25c-1.84-.47-6.74-3.05-13.31-2.36-12.18,1.28-11.27,12.5-11.28,16.5-.01,5.15,31.1,3.15,35.29,1.83,3.64-1.15,2.57-4.23,2.57-4.84,0-4.23-.75-8.95-1.37-11.45-1.58.4-3.35.56-5.2.41"/>
            <path class="cls-5" d="M200.59,222.7c-1.53-.47-3.29-.73-5.32-.73-11.23,0-14.21,7.67-14.21,17.14,0,7.68,22.48,6.92,29.27,1.83,2.71-2.03,2.13-4.23,2.13-4.84,0-3.47-.42-8.63-.85-11.77-.13-.95-.97-1.65-1.93-1.6-1.37.06-3.28.06-4.37-.34l-4.71.31Z"/>
            <path class="cls-19" d="M169.04,201.93c-.62,3.45-4.34,3.03-4.34,3.03-2.75-.42-4.62-3.11-4.18-6s1.27-6.84,4.02-6.42c2.75.42,6.1,4.06,5.66,6.95,0,0-.19,2.53-2.1,2.14-2.26-.34-1.03-2.91-1.03-2.91"/>
            <g>
              <path class="cls-30" d="M184.58,223.64c1.45-1.08,1.83-3.1,1.72-5.32-.13-2.65-.15-5.31-.08-7.96.06-2.34.8-5.06.6-7.34-.15-1.7-1.97-3.19-4.5-3.95h-6.72c-2.28,0-3.82.11-4.08,2.01-.74,5.42-1.32,10.75-1.02,16.24.4,7.27,5.38,7.37,11.46,7.14,1.12-.04,1.97-.33,2.61-.81Z"/>
              <g class="cls-27">
                <path class="cls-4" d="M179.97,198.76s1.69,15.81-.85,28.8c-2.54,12.99,11.86-2.82,11.29-10.45s4.52-18.64-1.69-18.35-8.75,0-8.75,0"/>
              </g>
              <path class="cls-7" d="M184.58,223.64c1.45-1.08,1.83-3.1,1.72-5.32-.13-2.65-.15-5.31-.08-7.96.06-2.34.8-5.06.6-7.34-.15-1.7-1.97-3.19-4.5-3.95h-6.72c-2.28,0-3.82.11-4.08,2.01-.74,5.42-1.32,10.75-1.02,16.24.4,7.27,5.38,7.37,11.46,7.14,1.12-.04,1.97-.33,2.61-.81Z"/>
            </g>
            <g>
              <path class="cls-30" d="M204.59,224.42c-.8-.25-5.36-2.08-5.36-2.08-1.3-.4-2.79-.62-4.52-.62-1.62,0-3.03.19-4.26.54-.47-2.86.35-.83-.55-7.6-.77-4.16-2.12-9.69-3.33-12.07-.2-.39-.31-.82-.32-1.26-.08-2.61,2.01-3.2,5.03-3.84l8.18-1.74c3.03-1.03,5.79,0,6.53,1.74.49,1.17-.17,2.22-.42,2.75.61,3.17,1.37,6.55,1.97,9.72.43,3.28.86,6.55,1.29,9.83.45,1.82.32,3.43-.39,4.09-.23.22-.49.36-.49.36-.46.14-1.23.22-1.98.28-.28.02-1.04.02-1.38-.09Z"/>
              <g class="cls-26">
                <path class="cls-4" d="M196.35,194.25s7.91,19.48,5.36,28.24c-2.54,8.75,13.55,8.19,13.55,8.19l-1.41-29.36-4.24-7.06-5.65-5.65-7.62,5.65Z"/>
              </g>
              <path class="cls-7" d="M204.59,224.42c-.8-.25-5.36-2.08-5.36-2.08-1.3-.4-2.79-.62-4.52-.62-1.62,0-3.03.19-4.26.54-.47-2.86.35-.83-.55-7.6-.77-4.16-2.12-9.69-3.33-12.07-.2-.39-.31-.82-.32-1.26-.08-2.61,2.01-3.2,5.03-3.84l8.18-1.74c3.03-1.03,5.79,0,6.53,1.74.49,1.17-.17,2.22-.42,2.75.61,3.17,1.37,6.55,1.97,9.72.43,3.28.86,6.55,1.29,9.83.45,1.82.32,3.43-.39,4.09-.23.22-.49.36-.49.36-.46.14-1.23.22-1.98.28-.28.02-1.04.02-1.38-.09Z"/>
            </g>
            <path class="cls-18" d="M175.51,165.73c-1.26,1.65-2.95,6.83-6.32,12.11-2.62,4.09-7.57,10.01-8.64,13.45-.47,1.52.34,3.4,1.83,4.71,2,1.76,4.75,3.24,7.26,3.06,0,0,.9-.19,3.06-1.46,4.3-2.53,7.74-16.25,6.72-31.39l-3.9-.48Z"/>
            <g>
              <path class="cls-22" d="M198.56,167.14c1.93,4.16,4.19,18.79,6.58,25.98,3.18,9.58-2.47,11.35-18.41,10.91-11.9-.33-16.72-1.91-17.81-7.41-.91-4.57,1.98-12.23,4.33-19.16,1.25-3.68,3.06-9.81,3.65-11.73,7.42.67,14.25.74,21.66,1.41Z"/>
              <g class="cls-25">
                <path class="cls-4" d="M168.96,185.49s-1.13,7.91,8.19,9.88c9.32,1.98,18.92.28,19.48-3.39.56-3.67-2.82-26.54-2.82-26.54l7.34-.28,7.62,36.14-5.65,3.39h-23.72l-8.75-.85s-5.93-5.08-1.69-18.35Z"/>
              </g>
              <path class="cls-7" d="M198.56,167.14c1.93,4.16,4.19,18.79,6.58,25.98,3.18,9.58-2.47,11.35-18.41,10.91-11.9-.33-16.72-1.91-17.81-7.41-.91-4.57,1.98-12.23,4.33-19.16,1.25-3.68,3.06-9.81,3.65-11.73,7.42.67,14.25.74,21.66,1.41Z"/>
            </g>
            <path class="cls-18" d="M201.41,184.73c.91,6.44,1.56,8.4,7.23,8.4,5.67,0,9.47-3.02,9.27-8.69-.21-6.04-6.83-13.25-11.98-16.81-2.14-1.48-3.25-.96-4.76-.28-2.74,1.23-1.9,3.64-1.23,8.03.47,3.06.97,5.81,1.47,9.35Z"/>
            <path class="cls-19" d="M203.25,192.35c5.03,1.51,11-2.07,10.64-8.62-.31-5.75-3.69-6.11-3.65-9.65.04-4.32.52-6.82-2.08-6.98-1.82-.11-3.62,1.23-3.71,3.7-.06,1.66.47,2.92.29,5.58-.11,1.62-4.39-.67-5.71,6.11-1.01,5.16.48,8.73,4.22,9.85Z"/>
            <g>
              <path class="cls-29" d="M236.65,120.54c.76-6.14,1.91-39.88-8.2-41.82-4.02-.77-9.29,2.86-12.69,7.03-6.01-2.83-12.79-4.48-19.72-4.87-4.86-.27-9.5.13-13.82,1.16-.72-1.93-3.51-5.19-6.56-5.19-6.06,0-19.82,36.18-19.82,36.18,0,0-9.4,4.7-10.41,7.65-.44,1.28,2.83,2.15,5.38,3.06.6.22.73,1.01.22,1.4-3.08,2.37-7.55,6.3-7.28,7.86.25,1.45,3.02,2,5.77,2.36.69.09.95.95.43,1.41-3.8,3.3-7.59,8.3-7.04,10.58.69,2.87,7.59,3.09,12.75,2.96,1.93,4.28,4.68,7.6,8.52,10.41,7.98,5.82,18.08,7.62,28.39,7.62,6.94,0,13.19-2.07,18.67-5.49.57-.36,1.31-.32,1.84.09h0c7.9,2.95,19.6,9.17,22.77,5.31,2.14-2.61-1.01-11.42-4.89-16.8-.39-.54.07-1.29.73-1.17,4.57.86,11.42,4.56,12.66,2.48,1.39-2.34-3.17-12.35-7.85-15.65-.41-.29-.08-.96.42-.89,2.78.36,5.71.56,7.69-.07.9-.29,1.43-1.22,1.21-2.14-2.01-8.74-9.29-12.46-9.17-13.45Z"/>
              <g class="cls-28">
                <g class="cls-32">
                  <path class="cls-1" d="M155.77,97.48c9.55-6.99,20.96-11.85,32.79-12.08,11.83-.23,24.02,4.6,31.23,13.98,5.16,6.72,7.49,15.22,8.37,23.64.98,9.47.23,19.22-3.04,28.17-3.27,8.95-9.16,17.05-17.16,22.23,9.61,1.68,19.98,2.11,28.65-2.36,9.02-4.66,14.86-14.08,17.35-23.93,2.5-9.84,2.06-20.17,1.28-30.29-1.09-14.14-3.3-29.29-13.04-39.61-5.97-6.32-14.28-10.13-22.83-11.75-8.55-1.62-17.36-1.19-25.98-.02-7.63,1.04-15.51,2.81-21.44,7.72-3.79,3.14-6.51,7.34-9.18,11.47-2.65,4.11-5.3,8.22-7.95,12.34.92-.02,1.84-.04,2.76-.06"/>
                </g>
              </g>
              <path class="cls-7" d="M236.65,120.54c.76-6.14,1.91-39.88-8.2-41.82-4.02-.77-9.29,2.86-12.69,7.03-6.01-2.83-12.79-4.48-19.72-4.87-4.86-.27-9.5.13-13.82,1.16-.72-1.93-3.51-5.19-6.56-5.19-6.06,0-19.82,36.18-19.82,36.18,0,0-9.4,4.7-10.41,7.65-.44,1.28,2.83,2.15,5.38,3.06.6.22.73,1.01.22,1.4-3.08,2.37-7.55,6.3-7.28,7.86.25,1.45,3.02,2,5.77,2.36.69.09.95.95.43,1.41-3.8,3.3-7.59,8.3-7.04,10.58.69,2.87,7.59,3.09,12.75,2.96,1.93,4.28,4.68,7.6,8.52,10.41,7.98,5.82,18.08,7.62,28.39,7.62,6.94,0,13.19-2.07,18.67-5.49.57-.36,1.31-.32,1.84.09h0c7.9,2.95,19.6,9.17,22.77,5.31,2.14-2.61-1.01-11.42-4.89-16.8-.39-.54.07-1.29.73-1.17,4.57.86,11.42,4.56,12.66,2.48,1.39-2.34-3.17-12.35-7.85-15.65-.41-.29-.08-.96.42-.89,2.78.36,5.71.56,7.69-.07.9-.29,1.43-1.22,1.21-2.14-2.01-8.74-9.29-12.46-9.17-13.45Z"/>
            </g>
            <path class="cls-15" d="M186.99,168.71c-.05-.54.8-.69,1-.18.63,1.65,1.04,4.51.03,9.3,0,0,0,.01-.01.03-.53,1.31-2.08.67-1.77-.73.47-2.13,1.02-5.45.75-8.42Z"/>
            <path class="cls-15" d="M185.07,168.53c.17-.52-.63-.82-.94-.36-.99,1.5-2.05,4.23-2.15,9.1,0,0,0,.01,0,.03.22,1.38,1.88,1.03,1.9-.4.03-2.17.25-5.52,1.19-8.38Z"/>
            <g>
              <path class="cls-3" d="M197.5,156.29c-2.32.38-6.23-.7-6.57-2.78s3.01-4.36,5.33-4.74c2.32-.38,4.8.94,5.14,3.01s-1.58,4.12-3.9,4.51Z"/>
              <path class="cls-3" d="M164.78,149.25c1.96,1.3,5.97,1.92,7.13.17s-.95-5.21-2.91-6.52c-1.96-1.3-4.76-1.12-5.93.63s-.25,4.41,1.71,5.71Z"/>
            </g>
            <path class="cls-3" d="M184.55,158l-3.59,1.4c-.8.31-1.78.1-2.38-.51l-2.7-2.75c-1.14-1.17-.19-2.83,1.53-2.68,2.34.2,4.62.69,6.84,1.47,1.63.57,1.81,2.48.29,3.08Z"/>
          </g>
          <g>
            <path class="cls-12" d="M81.63,222.49c-3.99-1.29-7.81-.06-10.21,2.23-1.09,1.04-3.73,3.33-2.7,5.2.67,1.2,3.04,1.43,4.58-.38,1.94-2.27,2.94-2.87,5.2-3.98,3.32-1.64,6.49.22,6.74-.52.18-.55-1.6-1.91-3.6-2.55Z"/>
            <path class="cls-12" d="M112.1,220.34c-3.99-1.29-7.81-.06-10.21,2.23-1.09,1.04-3.73,3.33-2.7,5.2.67,1.2,3.04,1.43,4.58-.38,1.94-2.27,2.94-2.87,5.2-3.98,3.32-1.64,6.49.22,6.74-.52.18-.55-1.6-1.91-3.6-2.55Z"/>
          </g>
          <g>
            <path class="cls-12" d="M190.07,222.49c3.99-1.29,7.81-.06,10.21,2.23,1.09,1.04,3.73,3.33,2.7,5.2-.67,1.2-3.04,1.43-4.58-.38-1.94-2.27-2.94-2.87-5.2-3.98-3.32-1.64-6.49.22-6.74-.52-.18-.55,1.6-1.91,3.6-2.55Z"/>
            <path class="cls-12" d="M159.59,220.34c3.99-1.29,7.81-.06,10.21,2.23,1.09,1.04,3.73,3.33,2.7,5.2-.67,1.2-3.04,1.43-4.58-.38-1.94-2.27-2.94-2.87-5.2-3.98-3.32-1.64-6.49.22-6.74-.52-.18-.55,1.6-1.91,3.6-2.55Z"/>
          </g>
          <path class="cls-23" d="M268.71,32.42l-5.22-2.11c-3.07-1.24-6.33-1.86-9.68-1.83-5.19.04-10.31,1.7-14.43,4.66-6.86,4.93-10.48,12.91-9.95,21.89.41,6.88,4.98,16.41,16.49,20.63l4.79,1.75,1.02.37.37-1.02,3.51-9.58.37-1.02-1.02-.37-4.79-1.75c-6.31-2.31-8.24-7.21-8.4-9.75,0-.14-.02-.28-.02-.42l10.99,4.45,1.01.41.41-1.01,3.83-9.46.41-1.01-1.01-.41-10.14-4.1c1.95-1.21,4.27-1.88,6.63-1.9,1.72-.01,3.38.3,4.96.94l5.21,2.11,1.01.41.41-1.01,3.83-9.46.41-1.01-1.01-.41Z"/>
          <path class="cls-23" d="M148.85,28.83c-4.34-7.41-11.8-9.53-17.25-11.08-.95-.27-3.26-.93-4.17-1.36.02-.12.07-.28.16-.47.46-.97,1.7-2.01,3.79-2.04h.1c4.57-.04,7.25,3.42,7.25,3.42l10.19-6.87s-5.52-8.95-17.54-8.93c-.07,0-.14,0-.21,0-6.47.11-12.12,3.58-14.74,9.07-2.2,4.58-1.78,9.73,1.1,13.43,2.61,3.36,6.71,4.52,10.69,5.65,4,1.13,8.13,2.31,9.95,5.42.72,1.23.68,2.63-.11,3.92-1.08,1.76-3.22,2.78-5.89,2.8-.23,0-.46,0-.69-.02-4.21-.24-5.06-1.39-5.16-1.51-.86-1.03.4-3.58.4-3.58l-10.41-4.25-1.01-.41-.41,1.01c-.31.77-2.93,7.7.97,13.85,2.8,4.41,7.81,6.85,14.92,7.25.22.01.44.02.66.03.28,0,.57.01.85,0,3.4-.03,6.68-.83,9.49-2.32,2.83-1.5,5.19-3.72,6.84-6.4,3.19-5.21,3.27-11.42.23-16.62Z"/>
          <path class="cls-23" d="M88.71,28.09c-1-7.98-2.68-14.83-2.75-15.12v-.03s-.02-.03-.02-.03l-2.7-8.56-.31-.97-.99.24-9.9,2.43-1.12.28.35,1.1,2.68,8.52c.13.54,1.78,7.45,2.62,14.89.91,8.03.37,12.31-.17,14.13-1.17-1.02-3.49-3.78-6.47-10.97-3.18-7.66-5.16-15.75-5.18-15.83l-1.2-4.96-.26-1.06-.16.04v-.05s-1.07.26-1.07.26l-6,1.49-3.74.91-1.06.26v.03s-.15.04-.15.04l.26,1.05,1.23,4.95c.02.08,2.01,8.17,2.74,16.43.39,4.39.35,7.94-.1,10.54-.15.87-.33,1.51-.49,1.97-1.39-1.46-4.14-5.22-7.82-14.57-3.22-8.19-5.4-16.29-5.43-16.37l-1.31-4.93-.28-1.05-1.05.28-9.86,2.63-1.05.28.28,1.05,1.31,4.93c.09.33,2.17,8.11,5.44,16.62,1.97,5.12,3.96,9.45,5.93,12.89,2.89,5.04,5.83,8.31,8.98,10.01,1.62.87,3.31,1.34,5.01,1.39.12,0,.25,0,.37,0,1.09,0,2.17-.19,3.22-.54,2.89-.97,6.53-3.46,8.32-9.79,2.35,2.47,5.66,4.85,9.79,4.97.14,0,.27,0,.41,0,.57,0,1.14-.05,1.71-.14,3.1-.49,5.7-2.2,7.52-4.95,1.9-2.86,2.92-6.81,3.13-12.08.14-3.57-.09-7.83-.7-12.64Z"/>
          <path class="cls-14" d="M47.24,65.35l-1.82-4.45c-.06-.15-1.45-3.52-3.67-8.04l3.61-1.76.98-.47-.47-.98-4.2-8.64-.47-.98-.98.47-4.1,1.99c-3.2-5.25-6.34-9.34-9.35-12.16-4.7-4.4-8.8-5.3-11.4-5.28-1.16,0-2.32.2-3.44.55-2.89.92-5.16,2.96-6.56,5.9-1.63,3.42-2.08,8.1-1.38,14.32.49,4.32,1.54,9.46,3.13,15.27,2.65,9.7,5.87,17.99,6.01,18.34l1.75,4.47.4,1.01,1.01-.4,8.95-3.5,1.01-.4-.39-1.01-1.75-4.47c-.02-.05-1.99-5.11-4.04-11.75l11.09-5.39c2.08,4.23,3.36,7.33,3.37,7.36l1.82,4.45.41,1,1-.41,8.89-3.65,1-.41-.41-1ZM25.45,47.68l-8.51,4.14c-2.13-9.74-1.48-13.62-1.08-14.87.55.2,1.5.74,2.79,1.94,2.07,1.93,4.36,4.88,6.81,8.79Z"/>
          <path class="cls-23" d="M45.08,62.32l-1.82-4.45c-.06-.15-1.45-3.52-3.67-8.04l3.61-1.76.98-.47-.47-.98-4.2-8.64-.47-.98-.98.47-4.1,1.99c-3.2-5.25-6.34-9.34-9.35-12.16-4.7-4.4-8.8-5.3-11.4-5.28-1.16,0-2.32.2-3.44.55-2.89.92-5.16,2.96-6.56,5.9-1.63,3.42-2.08,8.1-1.38,14.32.49,4.32,1.54,9.46,3.13,15.27,2.65,9.7,5.87,17.99,6.01,18.34l1.75,4.47.4,1.01,1.01-.4,8.95-3.5,1.01-.4-.39-1.01-1.75-4.47c-.02-.05-1.99-5.11-4.04-11.75l11.09-5.39c2.08,4.23,3.36,7.33,3.37,7.36l1.82,4.45.41,1,1-.41,8.89-3.65,1-.41-.41-1ZM23.29,44.65l-8.51,4.14c-2.13-9.74-1.48-13.62-1.08-14.87.55.2,1.5.74,2.79,1.94,2.07,1.93,4.36,4.88,6.81,8.79Z"/>
          <path class="cls-14" d="M121.91,56.14l-1.01-10.15-.11-1.08-1.08.11-5.08.5c-.54.05-1.07.08-1.59.09-2.82.02-5.36-.66-7.55-2.02-2.27-1.41-3.34-3.04-3.69-3.67-.16-.29-.32-.59-.47-.89l12.76-.83,1.08-.07-.07-1.08-.66-10.18-.07-1.08-1.08.07-11.93.78c2.26-4.02,6.54-6.7,11.23-7l5.64-.37,1.08-.07-.07-1.08-.66-10.18-.07-1.08-1.08.07-5.65.37c-8.95.58-17.14,5.79-21.38,13.6-4.21,7.74-3.99,16.88.59,25.09,1.73,3.09,4.47,5.94,7.71,8.02,3.93,2.52,8.41,3.86,13.3,4,.35,0,.71.01,1.06.01.91,0,1.85-.06,2.78-.15l5.08-.5,1.08-.11-.11-1.08Z"/>
          <path class="cls-23" d="M119.75,53.11l-1.01-10.15-.11-1.08-1.08.11-5.08.5c-.54.05-1.07.08-1.59.09-2.82.02-5.36-.66-7.55-2.02-2.27-1.41-3.34-3.04-3.69-3.67-.16-.29-.32-.59-.47-.89l12.76-.83,1.08-.07-.07-1.08-.66-10.18-.07-1.08-1.08.07-11.93.78c2.26-4.02,6.54-6.7,11.23-7l5.64-.37,1.08-.07-.07-1.08-.66-10.18-.07-1.08-1.08.07-5.65.37c-8.95.58-17.14,5.79-21.38,13.6-4.21,7.74-3.99,16.88.59,25.09,1.73,3.09,4.47,5.94,7.71,8.02,3.93,2.52,8.41,3.86,13.3,4,.35,0,.71.01,1.06.01.91,0,1.85-.06,2.78-.15l5.08-.5,1.08-.11-.11-1.08Z"/>
          <path class="cls-14" d="M184.89,15.7c-4.34-5.89-10.61-7.13-12.46-7.37-.55-.09-1.43-.2-2.56-.19-2.29.02-5.78.52-9.37,2.83-5.49,3.53-9.23,9.89-11.11,18.9-2.41,11.55,1.27,18.38,4.78,22.08,3.91,4.12,8.53,5.25,9.04,5.36h0s0,0,0,0l.14.03h0s0,0,0,0c1.06.21,2.13.33,3.2.36.23,0,.46,0,.69,0,4.62-.04,8.88-1.75,12.32-4.96,4.01-3.73,6.82-9.33,8.35-16.65,1.76-8.41.73-15.27-3.05-20.4ZM175.83,33.57c-1.6,7.66-4.63,11.72-8.75,11.76-.37,0-.75-.03-1.13-.09-.41-.14-1.86-.69-3.04-2.06-1.96-2.27-2.44-5.9-1.42-10.78,1-4.78,2.55-8.2,4.62-10.17,1.57-1.5,3.04-1.73,3.77-1.74.04,0,.08,0,.12,0l.09.06.31.02.47.03c.41.07,2.69.52,4.1,2.51,1.94,2.72,1.53,7.18.84,10.45Z"/>
          <path class="cls-23" d="M182.73,12.67c-4.34-5.89-10.61-7.13-12.46-7.37-.55-.09-1.43-.2-2.56-.19-2.29.02-5.78.52-9.37,2.83-5.49,3.53-9.23,9.89-11.11,18.9-2.41,11.55,1.27,18.38,4.78,22.08,3.91,4.12,8.53,5.25,9.04,5.36h0s0,0,0,0l.14.03h0s0,0,0,0c1.06.21,2.13.33,3.2.36.23,0,.46,0,.69,0,4.62-.04,8.88-1.75,12.32-4.96,4.01-3.73,6.82-9.33,8.35-16.65,1.76-8.41.73-15.27-3.05-20.4ZM173.67,30.54c-1.6,7.66-4.63,11.72-8.75,11.76-.37,0-.75-.03-1.13-.09-.41-.14-1.86-.69-3.04-2.06-1.96-2.27-2.44-5.9-1.42-10.78,1-4.78,2.55-8.2,4.62-10.17,1.57-1.5,3.04-1.73,3.77-1.74.04,0,.08,0,.12,0l.09.06.31.02.47.03c.41.07,2.69.52,4.1,2.51,1.94,2.72,1.53,7.18.84,10.45Z"/>
          <path class="cls-14" d="M234.35,24.88c-1.59-2.86-4.01-4.72-6.99-5.38-.81-.18-1.62-.27-2.43-.26-3.05.02-6.11,1.4-8.92,4.01-1.48-6.01-4.79-8.56-7.44-9.65-1.29-.53-2.62-.79-3.97-.78-1.63.01-3.25.42-4.82,1.2-2.98,1.49-5.75,4.34-8.49,8.72-1.84,2.95-3.7,6.66-5.53,11.02-3.02,7.22-4.96,13.84-5.04,14.11l-2.24,7.46-.31,1.03,1.02.32,9.77,3.06,1.05.33.32-1.05,2.24-7.47c.02-.07,1.97-6.71,4.9-13.55,3.01-7.03,5.33-10.2,6.58-11.55.39,1.75.77,5.55-.35,12.97-1.14,7.53-3.19,14.58-3.21,14.65l-1.49,5.04-.3,1.02.16.05v.05s1,.31,1,.31l5.86,1.81,3.76,1.19,1.06.34v-.03s.16.05.16.05l.31-1.06,1.46-5.05c.02-.07,2.08-7.13,5.15-14.04,2.9-6.53,5.17-9.51,6.45-10.82.27,2.02.31,6.09-1.15,13.75-1.45,7.59-3.6,14.45-3.62,14.52h0s0,.03,0,.03l-1.89,6.62-.28.99.98.33,9.7,3.29,1.08.37.31-1.1,1.88-6.61c.14-.45,2.25-7.21,3.82-15.12.96-4.83,1.51-9.11,1.65-12.71.21-5.36-.5-9.42-2.17-12.41Z"/>
          <path class="cls-23" d="M232.19,21.85c-1.59-2.86-4.01-4.72-6.99-5.38-.81-.18-1.62-.27-2.43-.26-3.05.02-6.11,1.4-8.92,4.01-1.48-6.01-4.79-8.56-7.44-9.65-1.29-.53-2.62-.79-3.97-.78-1.63.01-3.25.42-4.82,1.2-2.98,1.49-5.75,4.34-8.49,8.72-1.84,2.95-3.7,6.66-5.53,11.02-3.02,7.22-4.96,13.84-5.04,14.11l-2.24,7.46-.31,1.03,1.02.32,9.77,3.06,1.05.33.32-1.05,2.24-7.47c.02-.07,1.97-6.71,4.9-13.55,3.01-7.03,5.33-10.2,6.58-11.55.39,1.75.77,5.55-.35,12.97-1.14,7.53-3.19,14.58-3.21,14.65l-1.49,5.04-.3,1.02.16.05v.05s1,.31,1,.31l5.86,1.81,3.76,1.19,1.06.34v-.03s.16.05.16.05l.31-1.06,1.46-5.05c.02-.07,2.08-7.13,5.15-14.04,2.9-6.53,5.17-9.51,6.45-10.82.27,2.02.31,6.09-1.15,13.75-1.45,7.59-3.6,14.45-3.62,14.52h0s0,.03,0,.03l-1.89,6.62-.28.99.98.33,9.7,3.29,1.08.37.31-1.1,1.88-6.61c.14-.45,2.25-7.21,3.82-15.12.96-4.83,1.51-9.11,1.65-12.71.21-5.36-.5-9.42-2.17-12.41Z"/>
          <path class="cls-3" d="M90.21,122.01l3.85-4.86-4.73-3.63c-1.64.15-3.13.36-4.43.61l4.57,3.5-3.85,4.86,5.11,3.91-3.49,4.41c1.42-.37,3.06-.68,4.91-.89l3.17-4.01-5.11-3.91Z"/>
          <path class="cls-3" d="M80.79,133.38s1.34-.88,3.88-1.78l-2.47-16.84c-2.57.69-3.95,1.36-3.95,1.36l2.54,17.26Z"/>
          <path class="cls-3" d="M105.06,119.54l-6.53-5.95c-1.55-.13-3.02-.18-4.41-.19l6.62,6.04,4.32.1Z"/>
          <polygon class="cls-3" points="94.54 121.4 97.39 124.01 100.98 124.09 96.12 129.71 100.43 129.81 107.44 121.73 107.43 121.73 107.44 121.72 94.54 121.4"/>
        </g>
      </g>
    </g>
  </g>
</svg>