<?xml version="1.0" encoding="UTF-8"?>
<svg xmlns="http://www.w3.org/2000/svg" xmlns:xlink="http://www.w3.org/1999/xlink" viewBox="0 0 263.21 263.21">
  <defs>
    <style>
      .cls-1, .cls-2, .cls-3, .cls-4, .cls-5, .cls-6, .cls-7, .cls-8, .cls-9, .cls-10 {
        stroke: #000;
        stroke-miterlimit: 10;
        stroke-width: 2px;
      }

      .cls-1, .cls-11 {
        fill: #1e1e1e;
      }

      .cls-2, .cls-12 {
        fill: #4d4d4d;
      }

      .cls-3, .cls-13, .cls-14, .cls-15 {
        fill: #fff;
      }

      .cls-16 {
        fill: #333;
        opacity: .5;
      }

      .cls-16, .cls-17, .cls-18, .cls-19, .cls-20, .cls-21, .cls-14, .cls-15 {
        stroke-width: 0px;
      }

      .cls-17 {
        fill: #afafaf;
      }

      .cls-18 {
        fill: url(#linear-gradient);
      }

      .cls-18, .cls-14 {
        opacity: .75;
      }

      .cls-4 {
        fill: none;
      }

      .cls-22 {
        clip-path: url(#clippath-1);
      }

      .cls-23 {
        clip-path: url(#clippath-4);
      }

      .cls-24 {
        clip-path: url(#clippath-3);
      }

      .cls-25 {
        clip-path: url(#clippath-2);
      }

      .cls-26 {
        clip-path: url(#clippath-6);
      }

      .cls-27 {
        clip-path: url(#clippath-5);
      }

      .cls-5 {
        fill: #cacaca;
      }

      .cls-19, .cls-6 {
        fill: #000;
      }

      .cls-20 {
        fill: #f0f0f0;
      }

      .cls-7 {
        fill: #282828;
      }

      .cls-28, .cls-8 {
        fill: #666;
      }

      .cls-21 {
        fill: #2d2d2d;
        mix-blend-mode: multiply;
        opacity: .45;
      }

      .cls-29 {
        isolation: isolate;
      }

      .cls-9 {
        fill: #3d3d3d;
      }

      .cls-10 {
        fill: #9c9c9c;
      }
    </style>
    <linearGradient id="linear-gradient" x1="131.6" y1="79.35" x2="131.6" y2="219.33" gradientUnits="userSpaceOnUse">
      <stop offset="0" stop-color="#231f20"/>
      <stop offset="1" stop-color="#122030" stop-opacity="0"/>
    </linearGradient>
    <clipPath id="clippath-1">
      <path class="cls-2" d="M146.81,230.08s5.54,2.84,13.59-1.6c11.59-6.4,8.59-16.19,8.39-19.79s-19.59-55.76-19.59-55.76l-48.37,9.79.49,7.84s-5.27,9.45-4.4,21.94c.62,8.93,9.62,22.57,9.62,22.57l40.26,15.01Z"/>
    </clipPath>
    <clipPath id="clippath-2">
      <path class="cls-2" d="M152.89,174.49s-.17,28.65,13.46,48.66c1.07,1.57,2.82,2.56,4.71,2.67,4.51.28,12.78-1.05,18.01-13.02,1.24-2.83.2-6.15-2.43-7.76-4.53-2.77-8.94-8.79-12.33-20.83"/>
    </clipPath>
    <clipPath id="clippath-3">
      <path class="cls-8" d="M96.98,152.38s-8.84,10.23-25.28,3.44-16.66-29.22-14.93-41.33c1.73-12.1,18.97-92.1,93.36-89.14,74.39,2.95,71.79,100.07,57.38,135.49-14.42,35.42-42.38,21.84-42.38,21.84,0,0-8.36-4.21-14.56-11.09"/>
    </clipPath>
    <clipPath id="clippath-4">
      <path class="cls-1" d="M121.84,253.73s23.18-11.19,34.91-21.59c11.73-10.39-5.86-36.78-32.51-30.65,0,0-21.32,15.72-2.4,52.23Z"/>
    </clipPath>
    <clipPath id="clippath-5">
      <path class="cls-1" d="M98.67,234.06c.49-1.39.93-2.79,1.26-4.19.74-3.11,1.2-6.26,1.48-9.39.33-3.69.42-7.42.13-11.08-.28-3.57-2.69-9.37-2.7-9.38-.35-.83-1.09-1.29-1.95-1.23-.24.02-.49.01-.73-.02-5.8-.81-14.44-2.48-26.61,1.93-3.7,1.34-6.31,5.21-6.16,9.12l.93,23.93c.05,1.26.95,2.13,2.21,2.15l29.18.58c1.15-.95,1.81-1.49,2.95-2.43Z"/>
    </clipPath>
    <clipPath id="clippath-6">
      <path class="cls-3" d="M156.39,139.38c-9.6-8.48-20.22-15.81-31.34-22.17-11.22-6.41-25.36-12.83-38.31-10.49-1.18.21-2.35.5-3.5.86,0,0-.08,0-.08.02-.15,1.49-.26,9.04-.27,12.54-.02,9.31.85,23.42,13.25,33.43,4.48,3.62,13.94,8.48,21.01,10.24,21.24,5.31,39.27-3.51,52.08-12.14,0,0-7.33-7.43-12.85-12.3Z"/>
    </clipPath>
  </defs>
  <g class="cls-29">
    <g id="Layer_2" data-name="Layer 2">
      <g id="Layer_1-2" data-name="Layer 1">
        <g>
          <circle class="cls-14" cx="131.6" cy="131.6" r="131.6"/>
          <circle class="cls-18" cx="131.6" cy="131.6" r="131.6"/>
          <circle class="cls-18" cx="131.6" cy="131.6" r="131.6"/>
          <path class="cls-3" d="M174.48,213.51c1.95-2.21,4.97-3.13,7.82-2.37,3.94,1.05,9.36,2.68,12.23,4.39.6.36,10.49,5.13.75,10.35-4.4,2.36-8.12-.61-8.8.41-.56.85,2.82,2.82,1.45,4.21-3.1,3.14-14.77-4.89-14.82-4.91-5.06-1.94-4.31-5.68-.72-9.74.64-.72,1.33-1.5,2.08-2.36Z"/>
          <path class="cls-8" d="M102.61,167.29s-11.99,12.96-13.22,29.61l3.73,4.8,11.19-8.6,1.18-24.55-2.87-1.26Z"/>
          <g>
            <path class="cls-12" d="M146.81,230.08s5.54,2.84,13.59-1.6c11.59-6.4,8.59-16.19,8.39-19.79s-19.59-55.76-19.59-55.76l-48.37,9.79.49,7.84s-5.27,9.45-4.4,21.94c.62,8.93,9.62,22.57,9.62,22.57l40.26,15.01Z"/>
            <g class="cls-22">
              <path class="cls-16" d="M154.32,181.12c6.81,22.15,10.21,33.23,7.35,43.65-3.92,14.25-16.57,26.64-30.83,30.78-26.35,7.63-56.72-13.34-66.45-40.07-9.49-26.07-1.17-62.63,25.11-73.42,18.8-7.72,42.76-.58,54.48,13.57,3.98,4.8,6.1,11.7,10.34,25.5Z"/>
            </g>
            <path class="cls-4" d="M146.81,230.08s5.54,2.84,13.59-1.6c11.59-6.4,8.59-16.19,8.39-19.79s-19.59-55.76-19.59-55.76l-48.37,9.79.49,7.84s-5.27,9.45-4.4,21.94c.62,8.93,9.62,22.57,9.62,22.57l40.26,15.01Z"/>
          </g>
          <path class="cls-7" d="M116.25,163.71c.58,4.8-.42,8.93-1.65,10.66-.91,1.29-2.43,2.01-4,1.97l-6.8-.18c-1.46-.04-2.85-.73-3.71-1.91-4.73-6.51-2.98-17.46-2.98-17.46,0,0,16.46-15.17,19.14,6.92Z"/>
          <g>
            <path class="cls-12" d="M152.89,174.49s-.17,28.65,13.46,48.66c1.07,1.57,2.82,2.56,4.71,2.67,4.51.28,12.78-1.05,18.01-13.02,1.24-2.83.2-6.15-2.43-7.76-4.53-2.77-8.94-8.79-12.33-20.83"/>
            <g class="cls-25">
              <path class="cls-16" d="M169.25,200.19c7.94,18.91,22.24,24.11,20.37,28.18-3.17,6.9-50.22,4.76-56-17.92-4.72-18.54,20.47-41.78,28.43-38.59,4.8,1.92.48,12.32,7.2,28.33Z"/>
            </g>
            <path class="cls-4" d="M152.89,174.49s-.17,28.65,13.46,48.66c1.07,1.57,2.82,2.56,4.71,2.67,4.51.28,12.78-1.05,18.01-13.02,1.24-2.83.2-6.15-2.43-7.76-4.53-2.77-8.94-8.79-12.33-20.83"/>
          </g>
          <g>
            <path class="cls-28" d="M96.98,152.38s-8.84,10.23-25.28,3.44-16.66-29.22-14.93-41.33c1.73-12.1,18.97-92.1,93.36-89.14,74.39,2.95,71.79,100.07,57.38,135.49-14.42,35.42-42.38,21.84-42.38,21.84,0,0-8.36-4.21-14.56-11.09"/>
            <g class="cls-24">
              <path class="cls-16" d="M201.56,119.94c2.36,18.96,5.48,44.02-9.19,57.28-14.91,13.47-40.46,5.92-91.58-9.19-27.9-8.25-35.77-13.91-40.13-22.05-7.67-14.31-1.61-30.87,3.68-45.33,5.5-15.03,15.61-42.7,44.41-54.52,5.25-2.15,28.72-11,52.22-.27,33.25,15.19,38.43,56.73,40.59,74.09Z"/>
            </g>
            <path class="cls-4" d="M96.98,152.38s-8.84,10.23-25.28,3.44-16.66-29.22-14.93-41.33c1.73-12.1,18.97-92.1,93.36-89.14,74.39,2.95,71.79,100.07,57.38,135.49-14.42,35.42-42.38,21.84-42.38,21.84,0,0-8.36-4.21-14.56-11.09"/>
          </g>
          <g>
            <path class="cls-11" d="M121.84,253.73s23.18-11.19,34.91-21.59c11.73-10.39-5.86-36.78-32.51-30.65,0,0-21.32,15.72-2.4,52.23Z"/>
            <g class="cls-23">
              <path class="cls-6" d="M96.43,238.45c6.25,8.32,31.51,2.54,46.51-11.07,7.22-6.56,17.54-19.9,13.46-27.45-4.61-8.54-26.77-8.03-41.43,1.45-14.65,9.48-24.24,29.49-18.54,37.08Z"/>
            </g>
            <path class="cls-4" d="M121.84,253.73s23.18-11.19,34.91-21.59c11.73-10.39-5.86-36.78-32.51-30.65,0,0-21.32,15.72-2.4,52.23Z"/>
          </g>
          <g>
            <path class="cls-11" d="M98.67,234.06c.49-1.39.93-2.79,1.26-4.19.74-3.11,1.2-6.26,1.48-9.39.33-3.69.42-7.42.13-11.08-.28-3.57-2.69-9.37-2.7-9.38-.35-.83-1.09-1.29-1.95-1.23-.24.02-.49.01-.73-.02-5.8-.81-14.44-2.48-26.61,1.93-3.7,1.34-6.31,5.21-6.16,9.12l.93,23.93c.05,1.26.95,2.13,2.21,2.15l29.18.58c1.15-.95,1.81-1.49,2.95-2.43Z"/>
            <g class="cls-27">
              <path class="cls-19" d="M38.06,238.91c1.42,11,24.62,11.91,47.83,4.05,19.67-6.66,34.28-18.06,35.24-26.69,1.01-9.07-13.15-13.77-34.75-9.48-25.95,5.16-49.85,20.35-48.33,32.12Z"/>
            </g>
            <path class="cls-4" d="M98.67,234.06c.49-1.39.93-2.79,1.26-4.19.74-3.11,1.2-6.26,1.48-9.39.33-3.69.42-7.42.13-11.08-.28-3.57-2.69-9.37-2.7-9.38-.35-.83-1.09-1.29-1.95-1.23-.24.02-.49.01-.73-.02-5.8-.81-14.44-2.48-26.61,1.93-3.7,1.34-6.31,5.21-6.16,9.12l.93,23.93c.05,1.26.95,2.13,2.21,2.15l29.18.58c1.15-.95,1.81-1.49,2.95-2.43Z"/>
          </g>
          <path class="cls-7" d="M137.04,183.88c-6.84,6.66-11.81,1.51-11.81,1.51l-5.77-5.91c-1.2-1.23-1.87-2.89-1.83-4.61.17-6.76,5.2-9.38,5.2-9.38,0,0,11.39-9.77,19.79-7.17s11.39,8.99,11.39,8.99l-16.97,16.57"/>
          <path class="cls-4" d="M106.17,158.79s-2.4,14.26,6,17.32"/>
          <path class="cls-4" d="M142.05,163.85c-6.04,1.04-9.82,5.16-9.82,5.16-9.25,8.16-4.9,12.57-4.9,12.57,0,0,2.26,2.83,5.57.19"/>
          <g>
            <path class="cls-5" d="M52.73,182.34c1.64-.11,10.85-.57,17.05,5.21,4.09,3.81,4.8,8.41,5.12,10.73,1.16,8.36-3.99,9.73-5.16,20.73-.83,7.76,1.29,11.23-2.24,15.07-.25.28-3.23,3.42-7.94,3.91-2,.21-5.63.08-6.53-1.56-.42-.76-.11-1.58-.04-1.77.7-2.1.85-15.76-.25-52.33Z"/>
            <path class="cls-10" d="M53.24,238.56h.31c2.28.05,4.08-5.08,3.87-11.06h0c-.62-13.99.92-33.46.92-33.46h0c.46-5.92-1.09-11.62-3.36-12.41l-.61-.21h-6.81v57.24l5.69-.1Z"/>
            <path class="cls-1" d="M40.84,225.27c-.04-.78-.36-19.09,1.15-33.67h0c.61-6.72,2.9-11.09,5.33-10.18l.57.21c2.12.79,3.55,6.49,3.13,12.41h0s-1.43,19.47-.86,33.46h0c.19,5.97-1.48,11.11-3.6,11.07h-.29c-2.72-.07-5.02-5.7-5.43-13.3h0Z"/>
          </g>
          <path class="cls-6" d="M86.74,106.73c-4.08.74-8.04,2.34-11.76,5.09-9.2,6.8-14.96,20.68-6.9,31.17,5.9,7.68,18.5,8.99,24.01,2.79,13.45-10.36,60.41,15.16,67.68,23.04,4.53,4.13,10.53,8.41,16.26,7.77,1.77-.2,3.58-1.01,4.46-2.56,3.15-5.57-5.14-15.26-8.38-19.14-4.72-5.66-10.21-10.63-15.72-15.5-9.6-8.48-20.22-15.81-31.34-22.17-11.22-6.41-25.36-12.83-38.31-10.49Z"/>
          <g>
            <path class="cls-13" d="M156.39,139.38c-9.6-8.48-20.22-15.81-31.34-22.17-11.22-6.41-25.36-12.83-38.31-10.49-1.18.21-2.35.5-3.5.86,0,0-.08,0-.08.02-.15,1.49-.26,9.04-.27,12.54-.02,9.31.85,23.42,13.25,33.43,4.48,3.62,13.94,8.48,21.01,10.24,21.24,5.31,39.27-3.51,52.08-12.14,0,0-7.33-7.43-12.85-12.3Z"/>
            <g class="cls-26">
              <path class="cls-21" d="M191.61,113.32c-.29,25.1-50.14,46.78-67.92,35.24-6.86-4.46-9.19-10.69-18.67-14.63-8.03-3.35-10.53,2.22-14.41.85-7.36-2.59-11.23-19.13-7.35-31.24,6.22-19.42,33.17-29.94,54.96-28.6,24.91,1.54,53.61,19.23,53.39,38.39Z"/>
            </g>
            <path class="cls-4" d="M156.39,139.38c-9.6-8.48-20.22-15.81-31.34-22.17-11.22-6.41-25.36-12.83-38.31-10.49-1.18.21-2.35.5-3.5.86,0,0-.08,0-.08.02-.15,1.49-.26,9.04-.27,12.54-.02,9.31.85,23.42,13.25,33.43,4.48,3.62,13.94,8.48,21.01,10.24,21.24,5.31,39.27-3.51,52.08-12.14,0,0-7.33-7.43-12.85-12.3Z"/>
          </g>
          <path class="cls-9" d="M161.12,156.97c.27,4.09-5.86,10.22-5.86,10.22,0,0-10.39,10.22-14.92,14.48-4.53,4.26-7.02,1.24-7.02,1.24,0,0-3.29-3.11,1.51-7.46,4.8-4.35,12.79-12.44,12.79-12.44l13.5-6.04Z"/>
          <path class="cls-19" d="M100.62,142.56s-4.19-5.68-1.6-7.03c2.6-1.35,11.77,2.75,11.11,5.41-.41,1.65-6.49,5.63-9.51,1.62Z"/>
          <g>
            <path class="cls-19" d="M136.48,134.57c-1.95-.27-3.72-.23-5.27-.02,0,0,0,0,0,0-2.32-2.2-4.38-3.14-4.52-3.21-.94-.42-1.99-.02-2.36.89-.37.91.1,2,1.04,2.44.02,0,.66.31,1.6.98,0,0,0,.02,0,.02-1.74.69-2.74,1.42-2.83,1.49-.79.58-.91,1.73-.27,2.56.36.47.89.74,1.43.77.41.03.81-.08,1.15-.33.02-.02,1.35-.98,3.66-1.6,0,0,0,0,.01,0,.86,1.03,1.71,2.27,2.4,3.78.31.68.97,1.1,1.66,1.15.29.02.58-.03.86-.16.88-.41,1.19-1.51.76-2.43-.49-1.04-1.03-1.98-1.6-2.82,0,0,0-.02,0-.02.65,0,1.34.06,2.06.16,1.13.16,2.11-.74,1.96-1.95-.11-.87-.85-1.57-1.72-1.69Z"/>
            <path class="cls-19" d="M98.39,121.86c-1.96.17-3.66.61-5.11,1.17-2.72-1.66-4.92-2.13-5.07-2.16-1-.21-1.92.43-2.07,1.41-.15.99.55,1.96,1.54,2.18.02,0,.72.16,1.78.62-1.53,1.08-2.33,2.04-2.4,2.12-.62.75-.48,1.9.31,2.58.34.29.74.44,1.13.47.54.03,1.08-.17,1.44-.6.02-.02,1.1-1.27,3.18-2.4,1.06.82,2.15,1.86,3.15,3.19.36.48.9.75,1.44.78.4.03.8-.08,1.14-.32.79-.58.92-1.72.29-2.55-.72-.95-1.47-1.78-2.24-2.51.64-.14,1.31-.25,2.03-.31,1-.09,1.69-.97,1.54-1.98-.15-1.01-1.08-1.76-2.09-1.67Z"/>
          </g>
          <path class="cls-17" d="M52.77,149.28c-1.17-.15-3.55-.77-5.46-2.91-1.47-1.65-2.22-4.53-1.2-6.8,1.26-2.8,4.56-3.59,5.65-6.49.87-2.29-.11-5-1.69-6.4-1.58-1.4-3.61-1.82-5.56-2.24-3.97-.85-8.04-1.9-11.22-4.81-3.18-2.91-5.22-8.18-3.86-13.02,2.31-8.22,12.69-11.25,13.23-19.79.31-4.9-2.99-8.61-6.07-11.47-7.16-6.67-14.77-13.05-19.77-22.26-4.99-9.21-6.8-22.21-1.73-32.12,2.82-5.51,7.43-9.43,12.32-11.74,4.89-2.31,10.09-3.16,15.23-3.69,7.05-.72,14.25-.85,20.86,1.69,6.61,2.53,12.61,8.08,15,16.08.93,3.11,1.3,6.54,2.67,9.36,2.36,4.86,7.08,6.91,11.26,9.3,4.18,2.39,8.52,6.22,8.77,12.01.22,4.96-2.84,9.68-6.49,12.11-3.65,2.43-7.81,3.05-11.85,3.62-6.85.97-13.7,1.94-20.54,2.91-1.81.26-3.67.53-5.3,1.62-1.63,1.09-2.99,3.21-2.88,5.43.22,4.32,5.22,5.52,6.32,9.56,1.15,4.26-2.58,8.4-5.96,10.53-3.38,2.13-7.48,4.64-8.01,9.2-.41,3.58,1.76,6.69,4.23,8.39,2.47,1.7,5.34,2.5,7.75,4.32,2.41,1.82,4.38,5.22,3.64,8.74-.62,2.9-2.89,5.06-3.46,7.97-.63,3.24,1.64,6.68,3.95,8.06,3.38,2.02,5.56-1.49,9.52-.98,7.02.91,6.87,12.86,14.28,15.9,7.35,3.02,15.53-5.44,15.74-4.84.21.61-8.32,9.72-16.3,7.44-5.15-1.47-4.03-5.96-10.16-9.72-4.31-2.64-10.51-3.42-22.9-4.97Z"/>
          <path class="cls-20" d="M69.02,43.29c-.9-3.8-1.8-7.59-2.7-11.39-.47-5.05-2.62-10.03-5.2-9.76-1.92.21-3.59,2.7-4.64,5.67-1.92-.45-3.93-.58-5.84-.39-1.91.21-3.84.77-5.63,1.61-1.66-2.68-3.82-4.77-5.74-4.56-2.58.28-3.62,5.6-3.02,10.64-1.1,6.87-.21,12.01.57,14.99,1.34,5.12,3.07,6.49,4.32,7.07,1.17.54,2.33.56,3.14.48.14-.07.51-.24.95-.14,0,0,.29.07.53.26.71.57.05,1.91.6,2.86.54.92,2.12,1.19,3.3.84,1.08-.32,2.23-1.27,2.27-2.29.03-.85-.69-1.67-.32-2.11.03-.04.08-.1.15-.09.3.01.22,1.26.71,2.11.58,1.03,2.2,1.86,3.64,1.36,1.13-.39,1.99-1.53,2-2.56.02-.95-.68-1.96-.33-2.24.03-.02.07-.06.13-.05.33.03.14,1.36.68,2.34.46.83,1.53,1.55,2.65,1.45,1.23-.1,2.17-1.14,2.47-2.12.4-1.33-.56-2.05-.11-3.03.5-1.11,2.07-.99,3.16-1.56,1.38-.73,2.67-2.93,2.26-9.39ZM45.68,49.73c-1.73-.24-2.83-2.57-2.46-5.19s2.07-4.55,3.81-4.31,2.83,2.57,2.46,5.19c-.37,2.62-2.07,4.55-3.81,4.31ZM53.44,50.26c-.68.15-1.42-.39-1.48-1.19,1.18-.55,2.12-.7,2.37-.35.24.35-.09,1.37-.88,1.54ZM59.57,47.97c-1.7.41-3.58-1.35-4.2-3.92-.62-2.58.25-5,1.95-5.41,1.7-.41,3.58,1.35,4.2,3.92s-.25,5-1.95,5.41Z"/>
          <path class="cls-15" d="M154.44,158.23s9.44,4.07,19.6,1.16c0,0-3.23-4.92-8.18-9.68-4.89-4.69-11.42,8.52-11.42,8.52Z"/>
          <path class="cls-4" d="M154.87,159.39s9.44,4.07,19.6,1.16"/>
          <path class="cls-5" d="M107.85,196.45c1.7.32,7.44,1.63,11.89,6.91.99,1.18,4.79,5.97,4.76,12.53-.03,5.76.74,33.89-3.68,38.47-1.08,1.12-6.49,3.52-12.45,3.88l-2.95.39c.91-8.73,1.63-17.94,2.08-27.57.57-12.19.64-23.76.36-34.61Z"/>
          <path class="cls-10" d="M100.98,260.14h.93c6.82.06,12.21-5.78,11.59-12.58h0c1.43-18.48,2.77-38.07,2.77-38.07h0c1.37-6.73-3.25-13.22-10.07-14.11l-1.84-.24s-10.24-1.57-11.17,1.2-16.95,66.69,7.79,63.8Z"/>
          <path class="cls-1" d="M76.35,245.15c-.13-.91-1.16-22.19,3.69-39.14h0c1.98-7.81,9.34-12.89,17.16-11.84l1.84.25c6.81.91,11.44,7.54,10.07,14.42h0s-1.21,21.31-2.77,38.9h0c.62,6.95-4.76,12.92-11.59,12.86h-.93c-8.75-.08-16.15-6.62-17.48-15.46h0Z"/>
          <path class="cls-15" d="M162.54,17.59v48.47c0,1.93,3,1.93,3,0V17.59c0-1.93-3-1.93-3,0h0Z"/>
          <path class="cls-15" d="M172.27,25.72v30.71c0,1.93,3,1.93,3,0v-30.71c0-1.93-3-1.93-3,0h0Z"/>
          <path class="cls-15" d="M181.66,17.59v65.82c0,1.93,3,1.93,3,0V17.59c0-1.93-3-1.93-3,0h0Z"/>
          <path class="cls-15" d="M191.04,36.48v34.82c0,1.93,3,1.93,3,0v-34.82c0-1.93-3-1.93-3,0h0Z"/>
          <g>
            <path class="cls-19" d="M98.02,83.92l7.83-6.15-4.79-5.76c-2.25-.03-4.28.04-6.06.18l4.23,5.41-7.6,5.99,4.79,6.94-7.23,5.66c2.13-.12,4.59-.09,7.33.18l6.78-5.29-5.27-7.16Z"/>
            <path class="cls-19" d="M79.36,98.04s2.2-.9,5.98-1.46l5.98-23.97c-3.47.51-5.44,1.17-5.44,1.17l-6.52,24.26Z"/>
            <path class="cls-19" d="M121.75,83.69l-7.66-10.21c-2.25-.43-4.36-.73-6.35-.95l7.06,9.97,6.95,1.19Z"/>
            <polygon class="cls-19" points="104.45 84.03 107.39 88.69 112.94 89.83 102.49 97.33 109.18 99.01 124.83 87.84 124.81 87.83 124.83 87.82 104.45 84.03"/>
          </g>
        </g>
      </g>
    </g>
  </g>
</svg>