<?xml version="1.0" encoding="UTF-8"?>
<svg id="Layer_2" data-name="Layer 2" xmlns="http://www.w3.org/2000/svg" xmlns:xlink="http://www.w3.org/1999/xlink" viewBox="0 0 212.46 260.01">
  <defs>
    <style>
      .cls-1 {
        fill: #b5b5b5;
      }

      .cls-1, .cls-2, .cls-3, .cls-4, .cls-5, .cls-6, .cls-7 {
        stroke-width: 0px;
      }

      .cls-8 {
        clip-path: url(#clippath);
      }

      .cls-2 {
        fill: #afafaf;
      }

      .cls-3 {
        fill: #757575;
      }

      .cls-9, .cls-10 {
        fill: none;
      }

      .cls-9, .cls-10, .cls-11, .cls-12, .cls-13 {
        stroke: #000;
        stroke-miterlimit: 10;
        stroke-width: 2px;
      }

      .cls-9, .cls-12 {
        stroke-linecap: round;
      }

      .cls-14, .cls-12 {
        fill: #e4e4e4;
      }

      .cls-4 {
        fill: #333;
        opacity: .4;
      }

      .cls-15 {
        clip-path: url(#clippath-1);
      }

      .cls-16 {
        clip-path: url(#clippath-2);
      }

      .cls-5 {
        fill: #000;
      }

      .cls-6 {
        fill: #0f0f0f;
        opacity: .3;
      }

      .cls-7 {
        fill: #070707;
      }

      .cls-17, .cls-13 {
        fill: #424242;
      }

      .cls-11 {
        fill: #ededed;
      }
    </style>
    <clipPath id="clippath">
      <path class="cls-12" d="M90.67,171.3c-19.98.33-41,23.17-47.94,48.15-1.82,6.56-2.55,16.73-2.29,24.09.11,2.93,2.67,5.26,5.8,5.26h114.03l-29.13-84.04-40.48,6.55Z"/>
    </clipPath>
    <clipPath id="clippath-1">
      <path class="cls-12" d="M144.99,167.44c18.02,5.02,31.32,32.08,31.32,57.88,0,23.01-9.17,33.69-23.42,33.69s-30.6-13.62-31.18-45.18c-.06-3.43,2.32-10.18,5.73-10.55l24.83-4.81s18.31,2.16,12.03,38.59"/>
    </clipPath>
    <clipPath id="clippath-2">
      <path class="cls-13" d="M168.96,143.96c-.53-.25-.44-1.04.14-1.16,10.87-2.36,20.65-4.54,20.52-9.09-.12-4.11-8.04-7.26-17.36-9.01-.6-.11-.71-.94-.15-1.2,3.51-1.63,11.82-4.97,11.51-8.08-.39-3.95-7.52-5.62-13.51-5.72-1.22-19.27-5.9-36.96-5.79-36.95.26-20.16-6.13-40.8-16.43-40.8-7.68,0-15.33,9.17-20.76,20.47-7.41-2.58-15.31-3.98-22.95-4-7.64.02-15.53,1.43-22.95,4-5.43-11.31-13.08-20.47-20.76-20.47-10.3,0-16.69,20.64-16.43,40.8.11,0-4.56,17.69-5.79,36.95-5.99.1-13.12,1.77-13.51,5.72-.31,3.11,8,6.45,11.51,8.08.56.26.46,1.08-.15,1.2-9.32,1.75-17.24,4.89-17.36,9.01-.14,4.55,9.65,6.73,20.52,9.09.58.13.67.91.14,1.16-5.24,2.52-24.81,10.3-24.62,15.7.33,9.5,32.41,7.68,34.93,10.13,10.6,10.28,30.65,24.36,54.47,24.44,23.82-.08,43.87-14.16,54.47-24.44,2.52-2.45,34.61-.63,34.93-10.13.19-5.4-19.38-13.19-24.62-15.7Z"/>
    </clipPath>
  </defs>
  <g id="Layer_1-2" data-name="Layer 1">
    <g>
      <g>
        <path class="cls-11" d="M94.18,1c-2.65-.06-4.93,1.83-5.32,4.45-1.78,11.93-5.97,27.34-16.37,41.93-8.99,12.62-16.62,16.18-25.57,26.39-9.64,10.99-20.47,29.29-23.54,60.78-2.07-.9-4.83-2.36-7.61-4.74-4.4-3.76-5.02-6.55-6.15-6.5-3.88.18-15.38,34.07-3.1,63.6,18.1,43.54,77.24,51.95,86.08,53.05,14.93,1.86,26.17.47,29.57,0,6.8-.94,53.34-8.14,76.54-47.43,17.99-30.47,12.61-66.23,9.57-66.85-.96-.19-1.93,3.09-7.47,9.49-2.61,3.02-5.08,5.39-7.03,7.11,2.8-10.14,7.25-31.72.53-57.45-4.37-16.73-11.89-29.21-17.71-37.15-.92-1.25-2.74-1.36-3.79-.22-3.78,4.09-7.57,8.18-11.35,12.27-1.45-5.35-11.86-41.62-45.18-54.44-8.01-3.08-15.65-4.15-22.11-4.31Z"/>
        <path class="cls-1" d="M93.08,53.13c-1.08,9.69-4.08,23.39-13.26,36.28-7.04,9.88-13.01,12.67-20.02,20.66-7.55,8.61-16.03,22.93-18.43,47.59-1.62-.71-3.78-1.85-5.96-3.71-3.44-2.95-3.93-5.13-4.81-5.09-3.04.14-12.04,26.67-2.43,49.79,14.17,34.09,60.47,40.67,67.39,41.53,11.69,1.46,20.49.37,23.15,0,5.33-.74,41.76-6.37,59.92-37.13,14.08-23.85,9.87-51.85,7.5-52.33-.76-.15-1.51,2.42-5.85,7.43-2.05,2.37-3.98,4.22-5.5,5.57,2.19-7.94,5.67-24.83.41-44.97-3.79-14.49-10.59-24.91-15.27-30.94-3.48,3.77-6.97,7.53-10.45,11.3-1.13-4.19-9.29-32.58-35.37-42.62-7.89-3.04-15.31-3.58-21.02-3.34Z"/>
        <path class="cls-3" d="M97.8,120.4c-.69,6.21-2.62,15-8.5,23.26-4.51,6.33-8.34,8.12-12.84,13.25-4.84,5.52-10.28,14.7-11.82,30.51-1.04-.45-2.43-1.19-3.82-2.38-2.21-1.89-2.52-3.29-3.09-3.26-1.95.09-7.72,17.1-1.56,31.92,9.09,21.86,38.77,26.08,43.21,26.63,7.5.94,13.14.24,14.84,0,3.42-.47,26.78-4.09,38.42-23.81,9.03-15.29,6.33-33.25,4.81-33.55-.48-.1-.97,1.55-3.75,4.76-1.31,1.52-2.55,2.7-3.53,3.57,1.41-5.09,3.64-15.92.26-28.84-2.43-9.29-6.79-15.97-9.79-19.84-2.23,2.41-4.47,4.83-6.7,7.24-.73-2.69-5.95-20.89-22.68-27.32-5.06-1.95-9.82-2.29-13.48-2.14Z"/>
      </g>
      <g>
        <path class="cls-14" d="M90.67,171.3c-19.98.33-41,23.17-47.94,48.15-1.82,6.56-2.55,16.73-2.29,24.09.11,2.93,2.67,5.26,5.8,5.26h114.03l-29.13-84.04-40.48,6.55Z"/>
        <g class="cls-8">
          <ellipse class="cls-4" cx="108.07" cy="236.2" rx="57.27" ry="59.72"/>
        </g>
        <path class="cls-9" d="M90.67,171.3c-19.98.33-41,23.17-47.94,48.15-1.82,6.56-2.55,16.73-2.29,24.09.11,2.93,2.67,5.26,5.8,5.26h114.03l-29.13-84.04-40.48,6.55Z"/>
      </g>
      <g>
        <path class="cls-14" d="M144.99,167.44c18.02,5.02,31.32,32.08,31.32,57.88,0,23.01-9.17,33.69-23.42,33.69s-30.6-13.62-31.18-45.18c-.06-3.43,2.32-10.18,5.73-10.55l24.83-4.81s18.31,2.16,12.03,38.59"/>
        <g class="cls-15">
          <path class="cls-4" d="M167.02,249.82c-1.54,3.13-4.71,9.36-10.39,10.55-9.86,2.05-20.73-12.49-25.2-22.11-1.45-3.11-7.89-16.98-2.74-30.2,2.13-5.47,4.25-5.69,9.75-15.68,6.78-12.32,5.96-16.34,8.41-16.83,8.59-1.71,34.74,44.64,20.17,74.27Z"/>
        </g>
        <path class="cls-9" d="M144.99,167.44c18.02,5.02,31.32,32.08,31.32,57.88,0,23.01-9.17,33.69-23.42,33.69s-30.6-13.62-31.18-45.18c-.06-3.43,2.32-10.18,5.73-10.55l24.83-4.81s18.31,2.16,12.03,38.59"/>
      </g>
      <g>
        <path class="cls-17" d="M168.96,143.96c-.53-.25-.44-1.04.14-1.16,10.87-2.36,20.65-4.54,20.52-9.09-.12-4.11-8.04-7.26-17.36-9.01-.6-.11-.71-.94-.15-1.2,3.51-1.63,11.82-4.97,11.51-8.08-.39-3.95-7.52-5.62-13.51-5.72-1.22-19.27-5.9-36.96-5.79-36.95.26-20.16-6.13-40.8-16.43-40.8-7.68,0-15.33,9.17-20.76,20.47-7.41-2.58-15.31-3.98-22.95-4-7.64.02-15.53,1.43-22.95,4-5.43-11.31-13.08-20.47-20.76-20.47-10.3,0-16.69,20.64-16.43,40.8.11,0-4.56,17.69-5.79,36.95-5.99.1-13.12,1.77-13.51,5.72-.31,3.11,8,6.45,11.51,8.08.56.26.46,1.08-.15,1.2-9.32,1.75-17.24,4.89-17.36,9.01-.14,4.55,9.65,6.73,20.52,9.09.58.13.67.91.14,1.16-5.24,2.52-24.81,10.3-24.62,15.7.33,9.5,32.41,7.68,34.93,10.13,10.6,10.28,30.65,24.36,54.47,24.44,23.82-.08,43.87-14.16,54.47-24.44,2.52-2.45,34.61-.63,34.93-10.13.19-5.4-19.38-13.19-24.62-15.7Z"/>
        <g class="cls-16">
          <ellipse class="cls-6" cx="104.18" cy="131.34" rx="56.11" ry="64.78"/>
          <path class="cls-2" d="M59.98,178.29c.43-.58-.99-1.99-3.92-6.09-2.92-4.08-3.25-5.11-4.97-6.11-2.1-1.23-4.19-1.21-5.12-1.22-8.13-.08-26.55-3.01-26.74-5.5-.2-2.63,19.45-10.92,22.76-13.24.44-.31,1.03-.82,1.24-1.59.33-1.2-.43-2.36-.66-2.72-1.84-2.85-7.13-2.86-15.16-5.45-3.83-1.24-4.71-1.91-4.74-2.6-.06-1.26,2.68-2.35,5.43-3.44,9.25-3.68,11.08-4.2,11.08-4.2.36-.1,1.21-.34,1.45-.99.32-.87-.63-2.01-1.53-2.9-4.29-4.27-9.69-5.08-9.63-6.65.05-1.14,2.97-1.92,5.27-2.53,2.6-.69,4.87-.84,6.5-.83,5.69-34.54,7.38-48.77,7.63-54.73.07-1.55.23-6.81,2.14-13.47.75-2.62,1.73-5.18,3-7.92,3.09-6.68,8.61-12.63,15.74-14.42-3.93-2.04-8.02-3.95-12.4-4.62-4.38-.67-9.15.06-12.59,2.85-3.93,3.18-5.49,8.39-6.64,13.32-3.48,14.93-5.06,30.31-4.68,45.64.18,7.16.75,14.49-1.37,21.33-1.66,5.35-4.87,10.05-8.04,14.67-.57.84-1.15,1.67-1.72,2.51-1.07,1.55-2.13,3.11-3.21,4.65-2.62,3.74-5.47,7.82-5.2,12.38.26,4.29,3.66,8.19,7.88,9.03-3.66,2.34-7.4,4.76-10,8.24-2.6,3.48-3.84,8.32-1.97,12.24.52,1.1,2.04,4.24,11.99,7.65,15.9,5.46,24.86,1.95,34.54,6.03.74.31,3.16,1.37,3.65.72Z"/>
          <path class="cls-2" d="M147.15,178.29c-.43-.58.99-1.99,3.92-6.09,2.92-4.08,3.25-5.11,4.97-6.11,2.1-1.23,4.19-1.21,5.12-1.22,8.13-.08,26.55-3.01,26.74-5.5.2-2.63-19.45-10.92-22.76-13.24-.44-.31-1.03-.82-1.24-1.59-.33-1.2.43-2.36.66-2.72,1.84-2.85,7.13-2.86,15.16-5.45,3.83-1.24,4.71-1.91,4.74-2.6.06-1.26-2.68-2.35-5.43-3.44-9.25-3.68-11.08-4.2-11.08-4.2-.36-.1-1.21-.34-1.45-.99-.32-.87.63-2.01,1.53-2.9,4.29-4.27,9.69-5.08,9.63-6.65-.05-1.14-2.97-1.92-5.27-2.53-2.6-.69-4.87-.84-6.5-.83-5.69-34.54-7.38-48.77-7.63-54.73-.07-1.55-.23-6.81-2.14-13.47-.75-2.62-1.73-5.18-3-7.92-3.09-6.68-8.61-12.63-15.74-14.42,3.93-2.04,8.02-3.95,12.4-4.62,4.38-.67,9.15.06,12.59,2.85,3.93,3.18,5.49,8.39,6.64,13.32,3.48,14.93,5.06,30.31,4.68,45.64-.18,7.16-.75,14.49,1.37,21.33,1.66,5.35,4.87,10.05,8.04,14.67.57.84,1.15,1.67,1.72,2.51,1.07,1.55,2.13,3.11,3.21,4.65,2.62,3.74,5.47,7.82,5.2,12.38-.26,4.29-3.66,8.19-7.88,9.03,3.66,2.34,7.4,4.76,10,8.24,2.6,3.48,3.84,8.32,1.97,12.24-.52,1.1-2.04,4.24-11.99,7.65-15.9,5.46-24.86,1.95-34.54,6.03-.74.31-3.16,1.37-3.65.72Z"/>
        </g>
        <path class="cls-10" d="M168.96,143.96c-.53-.25-.44-1.04.14-1.16,10.87-2.36,20.65-4.54,20.52-9.09-.12-4.11-8.04-7.26-17.36-9.01-.6-.11-.71-.94-.15-1.2,3.51-1.63,11.82-4.97,11.51-8.08-.39-3.95-7.52-5.62-13.51-5.72-1.22-19.27-5.9-36.96-5.79-36.95.26-20.16-6.13-40.8-16.43-40.8-7.68,0-15.33,9.17-20.76,20.47-7.41-2.58-15.31-3.98-22.95-4-7.64.02-15.53,1.43-22.95,4-5.43-11.31-13.08-20.47-20.76-20.47-10.3,0-16.69,20.64-16.43,40.8.11,0-4.56,17.69-5.79,36.95-5.99.1-13.12,1.77-13.51,5.72-.31,3.11,8,6.45,11.51,8.08.56.26.46,1.08-.15,1.2-9.32,1.75-17.24,4.89-17.36,9.01-.14,4.55,9.65,6.73,20.52,9.09.58.13.67.91.14,1.16-5.24,2.52-24.81,10.3-24.62,15.7.33,9.5,32.41,7.68,34.93,10.13,10.6,10.28,30.65,24.36,54.47,24.44,23.82-.08,43.87-14.16,54.47-24.44,2.52-2.45,34.61-.63,34.93-10.13.19-5.4-19.38-13.19-24.62-15.7Z"/>
      </g>
      <path class="cls-9" d="M72.45,198.28c-5.66,17.09-6.64,33.79-2.24,50.07"/>
      <path class="cls-13" d="M159.49,191.27c-1.1-5.29-7.6-7.81-7.1-5.74.42,1.76,1.44,6.19,1.28,6.19-.08,0-.67-3.16-1.28-6.19-.59-2.94-2.72-8.82-6.33-8.3-4.29.62-4.94,2.92-6.74,3.6-3.91,1.48-6.19,2.47-7.11,2.81-3.91,1.45-13.05,5.17-11.92,17.85.35,3.95.46,9.64,3.99,12.44,2.41,1.91,6.54,1.19,14.8-.27,5.85-1.03,12.35-2.66,14.88-4.46,4.17-2.97,4.46-5.03,4.72-8.17.21-2.49,1.45-6.69.81-9.77Z"/>
      <g>
        <path class="cls-5" d="M111.08,168.04l-5.63,3.71c-1.25.82-3,.82-4.25,0l-5.63-3.71c-2.38-1.57-1.36-4.77,1.63-5.15,4.08-.52,8.16-.52,12.24,0,2.99.38,4.02,3.58,1.63,5.15Z"/>
        <ellipse class="cls-5" cx="135.9" cy="148.64" rx="13.22" ry="7.66" transform="translate(-58.91 97.54) rotate(-32.87)"/>
        <ellipse class="cls-5" cx="72.45" cy="148.64" rx="7.66" ry="13.22" transform="translate(-91.71 128.83) rotate(-57.13)"/>
      </g>
      <path class="cls-12" d="M169.03,90.03c0,.07,0,.13,0,.2-.12,16.04-29.23,21.54-65.12,21.54s-65-5.5-65.12-21.54c0-.07,0-.13,0-.2l2.57-15.17c.12-1.73,1.91-2.37,2.75-.98,7.28,12.09,30.46,13.35,59.8,13.35s54.04-1.42,61.32-13.51c.84-1.39,2.63-.75,2.75.98l1.04,15.32Z"/>
      <g>
        <path class="cls-7" d="M71.99,99.83c-.2,1.57-.41,3.14-.61,4.71-1.36-.18-2.04-.27-3.41-.46.7-4.89,1.39-9.77,2.09-14.66,2.56.36,5.13.69,7.7.98-.18,1.57-.26,2.35-.44,3.92-1.82-.2-2.73-.31-4.55-.55-.11.86-.17,1.3-.28,2.16,1.73.22,2.6.33,4.33.53-.18,1.57-.27,2.35-.44,3.92-1.76-.2-2.64-.31-4.39-.53Z"/>
        <path class="cls-7" d="M77.47,105.26c.53-4.91,1.05-9.82,1.58-14.72,1.29.14,1.94.2,3.23.33-.47,4.91-.93,9.83-1.4,14.74-1.37-.13-2.05-.2-3.42-.35Z"/>
        <path class="cls-7" d="M90.52,101.22c-.71-.04-1.06-.07-1.77-.11.1-1.46.15-2.2.25-3.66,1.59.11,3.19.2,4.78.28-.12,2.39-.24,4.78-.35,7.17-1.19,1.14-3.38,1.79-4.94,1.71-1.48-.08-3.56-.98-4.4-2.33-1.06-1.7-1.26-3.86-1.07-5.82.15-1.57.48-2.94,1.01-4.09.53-1.14,1.23-2,2.1-2.57.87-.58,1.87-.82,3.01-.74,1.33.09,2.38.6,3.18,1.53.79.93,1.26,2.2,1.4,3.81-1.33.12-2,.17-3.34.27-.08-.52-.24-.89-.48-1.13-.24-.24-.61-.37-1.1-.41-.71-.05-1.27.21-1.66.79-.39.57-.64,1.47-.73,2.7-.1,1.32.02,2.29.38,2.9.36.61,1,.95,1.94,1.01.69.05,1.27-.02,1.73-.2.03-.44.04-.66.07-1.1Z"/>
        <path class="cls-7" d="M101.99,106.8c.03-1.8.07-3.61.1-5.41-1.38-.03-2.07-.04-3.45-.08-.06,1.8-.11,3.61-.17,5.41-1.37-.04-2.06-.07-3.43-.13.21-4.93.43-9.86.64-14.79,1.3.06,1.95.08,3.24.12-.05,1.66-.1,3.32-.15,4.97,1.36.04,2.04.06,3.4.08.03-1.66.06-3.32.09-4.98,1.3.02,1.95.03,3.25.04-.03,4.94-.06,9.87-.09,14.81-1.37,0-2.06-.02-3.43-.04Z"/>
        <path class="cls-7" d="M109.94,106.83c-.04-3.5-.07-7.01-.11-10.51-1.29.01-1.94.02-3.24.01,0-1.72,0-2.58,0-4.29,3.21,0,6.41-.06,9.61-.16.06,1.72.09,2.57.15,4.29-1.29.05-1.94.06-3.23.09.08,3.5.16,7.01.24,10.51-1.37.03-2.06.04-3.43.06Z"/>
        <path class="cls-7" d="M117.89,106.63c-.19-4.93-.39-9.86-.58-14.8,1.3-.05,1.95-.08,3.24-.15.25,4.93.51,9.86.76,14.79-1.37.07-2.06.1-3.43.16Z"/>
        <path class="cls-7" d="M130.72,105.83c-1.6-2.47-3.17-4.95-4.71-7.45.18,2.59.37,5.19.55,7.78-1.29.09-1.93.13-3.22.21-.29-4.93-.58-9.85-.87-14.78,1.14-.07,1.7-.1,2.84-.18,1.51,2.51,3.04,4.99,4.6,7.47-.22-2.59-.44-5.18-.66-7.77,1.22-.1,1.83-.16,3.05-.28.47,4.91.95,9.83,1.42,14.74-1.2.12-1.8.17-2.99.27Z"/>
        <path class="cls-7" d="M142.35,99.42c-.71.09-1.06.14-1.76.22-.18-1.46-.27-2.19-.45-3.64,1.59-.2,3.17-.41,4.76-.63.34,2.37.67,4.74,1.01,7.1-.95,1.35-2.99,2.4-4.53,2.61-1.47.2-3.69-.29-4.77-1.45-1.36-1.46-1.97-3.55-2.16-5.51-.15-1.57-.09-2.98.22-4.2.3-1.22.83-2.19,1.58-2.92.75-.73,1.69-1.16,2.82-1.3,1.32-.16,2.46.13,3.41.9.95.76,1.66,1.92,2.1,3.48-1.29.37-1.94.55-3.24.9-.18-.49-.41-.83-.69-1.02-.28-.19-.67-.25-1.16-.19-.71.09-1.2.45-1.48,1.09-.28.64-.35,1.57-.21,2.79.15,1.32.46,2.24.92,2.77.47.53,1.17.74,2.1.62.69-.09,1.24-.26,1.67-.53-.06-.44-.09-.65-.14-1.09Z"/>
      </g>
      <path class="cls-12" d="M165.54,82.26s2.55-6.82,13.9-5.88c11.36.94,18.87-8.84,20.48-10.09,1.92-1.5,7.35,3.46,9.82,5.79.58.55.53,1.53-.13,2.26-3.46,3.87-14.39,14.96-24.75,13.08-12.51-2.26-18.9,3.54-18.9,3.54l-.42-8.7Z"/>
      <path class="cls-12" d="M164.55,85.1s-4.64-13.48,6.66-21.3,8.68-17.16,9.01-21.54c.26-3.52,9.67-3.94,14.28-4.14,1.08-.05,2.02.68,2.16,1.69.75,5.31,1.95,21.32-9.38,27.73-13.69,7.75-13.66,16.63-13.66,16.63l-9.06.93Z"/>
      <path class="cls-12" d="M173.71,82.42c0,5.64-3.22,10.21-7.2,10.21s-3.98-20.43,0-20.43,7.2,4.57,7.2,10.21Z"/>
    </g>
  </g>
</svg>