<?xml version="1.0" encoding="UTF-8"?>
<svg id="Layer_2" data-name="Layer 2" xmlns="http://www.w3.org/2000/svg" viewBox="0 0 125.03 79.04">
  <defs>
    <style>
      .cls-1 {
        fill: none;
        stroke: #fff;
        stroke-miterlimit: 10;
        stroke-width: .49px;
      }

      .cls-2 {
        fill: #fff;
        stroke-width: 0px;
      }
    </style>
  </defs>
  <g id="Layer_1-2" data-name="Layer 1">
    <g>
      <path class="cls-2" d="M23.87,62.36l-4.61,4.81.13-44.17,5.97-6.23-5.94-4.22-6.95,7.25L0,11.05l3.31-3.41,9.18,6.49,6.95-7.25,12.47,8.76-7.92,8.22-.11,38.5Z"/>
      <path class="cls-2" d="M42.74,19.86l7.99,5.61-.06,17.3-4.23,4.42.06-19.48-4.59-3.27-5.91,3.62-.05,23.96-4.23,4.42.07-28.02-5.07-3.56,2.99-3.12,4.64,3.21,8.4-5.09Z"/>
      <path class="cls-2" d="M58.57,25.25l-.04,12.86,5.02,3.57-2.99,3.07-6.21-4.41.05-16.31,11.5-8.7,11.45,4.73-.06,17.4-4.18,4.36.06-19.1-7.29-2.99-7.32,5.52Z"/>
      <path class="cls-2" d="M91.48,11.05l10.53,5.08-.05,16.83-10.57,6.46-10.54-2.81.03-8.51,10.55-1.83v3.69s-6.34,1.1-6.34,1.1v2.55s6.32,1.69,6.32,1.69l6.34-3.88.04-12.72-6.32-3.02-6.29,5.2v2.79s-4.24,2.57-4.24,2.57l.02-6.48,10.52-8.72Z"/>
      <path class="cls-2" d="M104.24,33.33l.03-9.79,16.56-2.87.02-6.33-6.21-2.99-6.18,5.13v2.69s-4.18,2.56-4.18,2.56l.02-6.33,10.36-8.6,10.37,5.01-.09,28.61-4.18,4.36.07-20.48-12.4,2.14v4.68s2.9,2.05,2.9,2.05l-2.93,3.06-4.16-2.92Z"/>
      <path class="cls-2" d="M97.99,17.03s1.39-.28,2.73-3.02c1.34-2.74,1.62-5.67,0-7.78,0,0,.06,1.24-.86,1.89,0,0-.55.1-.04-.66s.71-1.96-.85-3.67c-1.56-1.71-3.61-1.8-4.21-1.76,0,0,.55.34.59,1.28s-.46,1.04-.43.52-.65-1.91-2.06-1.77c-1.42.14-2.98.65-3.88.32-.9-.34-1.41-1.24-1.37-1.81s-1.33,1.8-.58,4.51c.75,2.71,3.37,3.28,4.74,2.58,1.37-.7,3.98-1.02,5.82,1.25,1.83,2.27,1.77,4.64.93,6.1-.84,1.47-1.72,1.76-.52,2.02Z"/>
      <path class="cls-2" d="M81.49,15.24s-1.76.05-2.62-2.02c-.87-2.07-.01-4.24-.01-4.24,0,0-2.9.75-4.6-.52-1.7-1.26-2.64-2.94-2.23-3.64s.96-.32.91-.15.78-.48.56-1.86c-.22-1.38-1.85-2.29-3.22-1.71s-2.56,1.28-3.64.66c-1.08-.62-1.64-1.76-1.64-1.76,0,0-.32,2.16.54,3.95.86,1.79,2.33,1.89,3.38,1.4,0,0-1.04,2.55.13,4.78,1.18,2.23,2.86,1.64,2.86,1.64,0,0-.56.92-1.67.38,0,0,.64,1.35,2.03,2.57,1.39,1.22,3.15.56,3.15.56,0,0,.47.3-.42.92,0,0,1.29,1.43,3.48,1.03,2.19-.41,3.02-1.99,3.02-1.99Z"/>
      <path class="cls-2" d="M84.53,13.39s-1.42,1.8-3.11.54c-1.7-1.26-.94-3.38-.94-3.38,0,0,.77,1.23,1.55.14,0,0-1.36-.24-1.62-1.62-.26-1.38.24-3.1.83-3.97,0,0,.31,1.33,1.1,1.37.79.04,1.5.47,1.72,1.12.21.65.17.77.17.77,0,0,.89-.62.32-1.55,0,0,1.81-.38,2.94.96,1.13,1.34.5,3.79-1.11,4.47.2-.6.12-1.2-.23-1.57-.33-.34-.78-.34-.88-.34-.56,0-.97.37-1.09.47-.47.36-1.08,1.33-.59,2.05.49.72.94.55.94.55Z"/>
      <g>
        <g>
          <polygon class="cls-2" points="36.25 77.07 38.82 74.56 38.8 61.23 36.26 59.67 38.48 57.03 42.25 59.3 42.27 73.86 46.23 75.22 50.17 72.49 50.14 58.68 53.61 55.04 53.61 73.69 46.24 78.75 40.73 76.83 38.52 78.96 36.25 77.07"/>
          <path class="cls-2" d="M53.55,55.19v18.5s-7.35,5.02-7.35,5.02l-5.45-1.93-2.23,2.1-2.23-1.85,2.58-2.42v-13.37s-2.57-1.61-2.57-1.61l2.23-2.55,3.69,2.29v14.5s3.99,1.41,3.99,1.41l3.99-2.73v-13.86s3.35-3.49,3.35-3.49M53.67,54.88l-.21.22-3.35,3.49-.03.04v13.85s-3.89,2.66-3.89,2.66l-3.85-1.36v-14.42s0-.07,0-.07l-.06-.04-3.69-2.29-.09-.05-.07.08-2.23,2.55-.09.11.12.08,2.52,1.57v13.25s-2.54,2.39-2.54,2.39l-.1.09.11.09,2.23,1.85.08.07.08-.07,2.18-2.05,5.38,1.9.06.02.05-.03,7.34-5.02.05-.04v-18.56s0-.3,0-.3h0Z"/>
        </g>
        <g>
          <polygon class="cls-2" points="59.78 71.57 62.09 69.02 65.48 71.37 67.03 69.68 67.02 59.51 61.3 57.13 53.5 63.05 51.57 60.93 61.29 53.55 70.41 57.36 70.44 70.38 65.45 75.61 59.78 71.57"/>
          <path class="cls-2" d="M61.32,53.6l9.06,3.82v12.96s-4.94,5.15-4.94,5.15l-5.63-4.01,2.32-2.45,3.31,2.36,1.63-1.7v-10.21s-5.75-2.44-5.75-2.44l-7.86,5.93-1.85-2.11,9.71-7.29M61.31,53.46l-.06.04-9.71,7.29-.11.08.09.1,1.85,2.11.07.09.09-.07,7.8-5.89,5.61,2.38v10.08s-1.53,1.59-1.53,1.59l-3.22-2.29-.09-.06-.07.08-2.32,2.45-.1.1.11.08,5.63,4.01.09.06.07-.08,4.94-5.15.03-.04v-13.01s0-.08,0-.08l-.07-.03-9.06-3.82-.06-.03h0Z"/>
        </g>
        <g>
          <polygon class="cls-2" points="73.53 71.37 73.5 63.6 86.56 61.39 86.51 56.44 81.65 54.1 76.87 58.1 76.89 60.2 73.5 62.28 73.5 57.16 81.64 50.42 86.22 52.65 89.8 48.86 92.19 50.5 88.91 53.98 89.86 54.42 89.9 68.04 86.51 71.59 86.51 64.32 76.84 65.99 76.89 69.62 79.14 71.19 76.83 73.73 73.53 71.37"/>
          <path class="cls-2" d="M89.84,48.9l2.32,1.65-3.35,3.45,1.03.47v13.56s-3.27,3.4-3.27,3.4v-7.12s-9.75,1.61-9.75,1.61v3.69s2.28,1.62,2.28,1.62l-2.28,2.41-3.26-2.32v-7.72s13.01-2.15,13.01-2.15v-5.01s-4.89-2.39-4.89-2.39l-4.85,4v2.15s-3.26,1.97-3.26,1.97v-5.01s8.12-6.69,8.12-6.69l4.51,2.23,3.65-3.8M89.82,48.74l-.07.08-3.59,3.74-4.43-2.19-.07-.04-.06.05-8.12,6.69-.04.04v.06s0,5.01,0,5.01v.22s.19-.11.19-.11l3.26-1.97.06-.04v-.07s0-2.09,0-2.09l4.75-3.92,4.76,2.33v4.83s-12.91,2.13-12.91,2.13l-.1.02v.1s0,7.72,0,7.72v.06l.05.04,3.26,2.32.09.06.07-.08,2.28-2.41.1-.1-.11-.08-2.22-1.58v-3.53s9.5-1.57,9.5-1.57v6.98s0,.3,0,.3l.21-.22,3.26-3.4.03-.04v-13.61s0-.08,0-.08l-.07-.03-.87-.4,3.23-3.33.1-.1-.12-.08-2.32-1.65-.09-.06h0Z"/>
        </g>
        <g>
          <polygon class="cls-2" points="108.73 50.72 102.84 48.29 96.97 52.72 96.99 57.9 99.77 55.81 103.71 55.15 103.78 58.19 100.85 58.72 96.97 61.65 96.99 65.26 93.48 68.95 93.48 51.65 102.78 44.61 112.2 48.52 112.24 69.55 108.72 73.24 108.73 50.72"/>
          <path class="cls-2" d="M102.82,44.66l9.36,3.92v20.97s-3.4,3.54-3.4,3.54v-22.37s-5.92-2.49-5.92-2.49l-5.93,4.44v5.35s2.88-2.17,2.88-2.17l3.91-.64v2.98s-2.88.47-2.88.47l-3.91,2.94v3.65s-3.39,3.54-3.39,3.54v-17.14s9.28-6.99,9.28-6.99M102.8,44.52l-.06.04-9.28,6.99-.05.04v.06s0,17.14,0,17.14v.3s.21-.22.21-.22l3.39-3.54.03-.04v-3.64s3.84-2.89,3.84-2.89l2.85-.47.1-.02v-3.08s0-.14,0-.14l-.14.02-3.91.64h-.03s-.02.02-.02.02l-2.68,2.02v-5.04s5.82-4.37,5.82-4.37l5.79,2.43v22.29s0,.3,0,.3l.21-.22,3.39-3.54.03-.04v-21.02s0-.08,0-.08l-.08-.03-9.36-3.92-.06-.03h0Z"/>
        </g>
      </g>
      <path class="cls-1" d="M62.29,54.8s.65-1.3-1.01-3.8c-1.66-2.49-4.18-4.2-7.17-3.92,0,0,1.18.58,1.18,1.66,0,0-.26.51-.63-.3s-1.34-1.58-3.93-1.14c-2.59.44-4,2.11-4.36,2.63,0,0,.67-.28,1.56.16s.66.91.2.62-2.18-.42-2.97.83c-.79,1.25-1.33,2.81-2.23,3.4s-2.06.55-2.56.23.8,2.02,3.78,2.75c2.98.74,5.21-1.16,5.45-2.65s1.64-3.84,4.93-4.22,5.42.86,6.23,2.29c.81,1.44.5,2.32,1.53,1.45Z"/>
      <path class="cls-1" d="M89.94,49.98s.65-1.3-1.01-3.8c-1.66-2.49-4.18-4.2-7.17-3.92,0,0,1.18.58,1.18,1.66,0,0-.26.51-.63-.3s-1.34-1.58-3.93-1.14-4,2.11-4.36,2.63c0,0,.67-.28,1.56.16s.66.91.2.62-2.18-.42-2.97.83c-.79,1.25-1.33,2.81-2.23,3.4s-2.06.55-2.56.23.8,2.02,3.78,2.75c2.98.74,5.21-1.16,5.45-2.65s1.64-3.84,4.93-4.22,5.42.86,6.23,2.29c.81,1.44.5,2.32,1.53,1.45Z"/>
    </g>
  </g>
</svg>