<?xml version="1.0" encoding="UTF-8"?>
<svg id="Layer_2" data-name="Layer 2" xmlns="http://www.w3.org/2000/svg" xmlns:xlink="http://www.w3.org/1999/xlink" viewBox="0 0 144.47 93.46">
  <defs>
    <style>
      .cls-1 {
        filter: url(#drop-shadow-1);
      }

      .cls-2 {
        fill: #fff;
        stroke-width: 0px;
      }
    </style>
    <filter id="drop-shadow-1" filterUnits="userSpaceOnUse">
      <feOffset dx="24.63" dy="24.63"/>
      <feGaussianBlur result="blur" stdDeviation="39.41"/>
      <feFlood flood-color="#000" flood-opacity=".3"/>
      <feComposite in2="blur" operator="in"/>
      <feComposite in="SourceGraphic"/>
    </filter>
  </defs>
  <g id="Layer_1-2" data-name="Layer 1">
    <g class="cls-1">
      <path class="cls-2" d="M86.36,40.89c.15.04.25.1.31.18.06.08.09.17.07.26-.02.09-.07.18-.15.25-.08.07-.2.11-.34.11h-13.66c-.15,0-.26-.04-.34-.11-.08-.07-.13-.16-.15-.25-.02-.09,0-.18.07-.26.06-.08.17-.14.31-.18.15-.02.39-.08.75-.18.35-.1.72-.28,1.09-.53.37-.25.7-.6.99-1.06.29-.45.44-1.05.44-1.79v-11.98c-.02-.78-.08-1.58-.18-2.4-.1-.82-.31-1.57-.63-2.25s-.78-1.23-1.39-1.67c-.61-.44-1.42-.65-2.44-.65s-1.87.21-2.45.64c-.58.43-1.01.95-1.29,1.58-.28.63-.45,1.3-.52,2.01-.06.71-.09,1.35-.09,1.9v12.81c0,.74.14,1.34.44,1.79.29.45.62.81.99,1.06.37.25.73.43,1.09.53.35.1.6.16.75.18.15.04.25.1.31.18.06.08.09.17.07.26-.02.09-.07.18-.15.25-.08.07-.2.11-.34.11h-13.66c-.15,0-.26-.04-.34-.11-.08-.07-.13-.16-.15-.25-.02-.09,0-.18.07-.26.06-.08.17-.14.31-.18.15-.02.39-.08.75-.18.35-.1.72-.28,1.09-.53.37-.25.7-.6.99-1.06.29-.45.44-1.05.44-1.79V6.04c0-.24-.11-.39-.33-.44-.04,0-.17-.03-.39-.08-.23-.06-.49-.12-.78-.19-.29-.07-.56-.14-.8-.19s-.39-.09-.45-.11c-.24-.06-.36-.18-.37-.38,0-.19.12-.33.39-.4.71-.17,1.47-.39,2.3-.68.83-.29,1.66-.61,2.49-.97.83-.36,1.64-.75,2.42-1.17.78-.42,1.48-.84,2.1-1.26.16-.11.33-.16.5-.14s.26.16.26.42v18.23c.38-.35.82-.69,1.31-1.01.49-.32,1.04-.61,1.65-.85.61-.24,1.29-.44,2.04-.58.75-.15,1.58-.22,2.49-.22,1.49,0,2.74.17,3.74.5s1.84.78,2.5,1.33c.66.56,1.17,1.2,1.52,1.92.35.72.61,1.47.76,2.25.15.78.24,1.55.27,2.32.03.77.04,1.49.04,2.15v10.87c0,.74.15,1.34.44,1.79.29.45.62.81.99,1.06.37.25.73.43,1.09.53.35.1.6.16.75.18Z"/>
      <path class="cls-2" d="M100.14,37.33c0,.74.15,1.34.44,1.8.29.46.62.81.99,1.06.37.25.73.43,1.09.53.35.1.6.16.75.18.15.04.25.1.31.18.06.08.09.17.07.26-.02.09-.07.18-.15.25-.08.07-.2.11-.34.11h-13.66c-.15,0-.26-.04-.34-.11-.08-.07-.13-.16-.15-.25-.02-.09,0-.18.07-.26.06-.08.17-.14.31-.18.15-.02.39-.08.75-.18.35-.1.72-.28,1.09-.53.37-.25.7-.6.99-1.06.29-.45.44-1.05.44-1.8v-15.48c0-.24-.11-.39-.33-.45-.04,0-.17-.03-.39-.08-.23-.06-.49-.12-.78-.2s-.56-.14-.8-.2c-.25-.06-.4-.09-.45-.11-.24-.06-.36-.18-.37-.38,0-.2.12-.33.4-.4.71-.17,1.47-.39,2.3-.68.82-.29,1.66-.61,2.49-.97s1.64-.75,2.42-1.17c.78-.42,1.48-.84,2.1-1.27.16-.11.33-.16.5-.14.17.02.26.16.26.42v21.11ZM100.35,5.97c-.22-.54-.52-1.01-.91-1.41-.39-.4-.85-.71-1.39-.95-.53-.23-1.13-.35-1.78-.35s-1.23.12-1.8.36c-.56.24-1.05.57-1.46.97-.41.41-.73.89-.97,1.43-.24.55-.35,1.13-.35,1.74s.11,1.19.33,1.73c.22.54.52,1,.91,1.39.39.39.85.7,1.39.93.54.23,1.12.35,1.76.35s1.26-.12,1.81-.36,1.04-.56,1.46-.96c.42-.4.74-.87.98-1.42.24-.55.35-1.13.35-1.74s-.11-1.19-.33-1.73Z"/>
      <path class="cls-2" d="M120,36.67c.33-.18.56-.16.71.06.15.22.15.44.03.68-.33.63-.74,1.21-1.24,1.73-.5.52-1.07.98-1.7,1.36-.64.38-1.33.68-2.08.89-.75.21-1.55.31-2.38.31-.91,0-1.81-.13-2.69-.38-.89-.26-1.69-.71-2.39-1.38-.71-.66-1.28-1.56-1.73-2.69-.44-1.13-.67-2.58-.67-4.33v-16.63c0-.16-.07-.24-.22-.24h-.71c-.44,0-.7-.03-.8-.09-.1-.06-.15-.19-.15-.38,0-.26.1-.53.31-.81.21-.29.47-.43.78-.43h.6c.13,0,.19-.08.19-.24v-7.07c0-.43.16-.68.49-.74.45-.1.94-.23,1.46-.4.52-.17,1.04-.36,1.58-.59.53-.23,1.06-.47,1.58-.74.52-.27.99-.55,1.43-.84.2-.12.39-.14.56-.06.17.08.26.28.26.59v9.88c0,.14.07.21.22.21h5.12c.44,0,.7.03.8.09.1.06.15.19.15.39,0,.26-.13.53-.38.81-.25.29-.53.43-.84.43h-4.87c-.13,0-.19.07-.19.21v18.2c0,.53.09,1,.26,1.4.17.4.4.75.68,1.04.28.29.61.5.98.64.37.14.75.21,1.13.21.78,0,1.51-.12,2.18-.37.67-.25,1.2-.48,1.58-.7Z"/>
      <path class="cls-2" d="M129.8,26.59c-.29,0-.44.15-.44.46,0,1.85.16,3.44.49,4.76.33,1.32.8,2.41,1.43,3.25.63.84,1.41,1.47,2.34,1.86.93.4,2.02.6,3.25.6.94,0,1.78-.1,2.52-.3.73-.2,1.37-.43,1.92-.69.54-.26.99-.51,1.33-.75.34-.24.6-.39.76-.46.25-.11.45-.09.6.07.15.15.15.39,0,.69-.05.11-.18.32-.37.64-.19.32-.47.69-.83,1.1-.36.42-.82.85-1.36,1.31-.54.45-1.19.87-1.95,1.25-.75.38-1.61.69-2.58.94-.97.25-2.05.37-3.25.37-1.81,0-3.46-.29-4.93-.86-1.47-.57-2.73-1.4-3.77-2.49-1.04-1.09-1.85-2.41-2.42-3.97-.57-1.56-.86-3.32-.86-5.28,0-2.14.35-4.04,1.06-5.69.71-1.65,1.63-3.03,2.78-4.15,1.14-1.12,2.44-1.96,3.89-2.54,1.45-.58,2.93-.87,4.44-.87,1.41,0,2.66.2,3.74.59,1.08.39,2.01.9,2.8,1.52.79.63,1.44,1.32,1.96,2.1.52.77.93,1.54,1.25,2.3.32.76.54,1.48.67,2.15.13.67.19,1.21.19,1.61,0,.18-.06.31-.18.38-.12.07-.28.11-.48.11h-14.02ZM129.5,24.8c-.04.24.07.35.33.35.05,0,.24,0,.54-.01.31,0,.68-.02,1.13-.04s.92-.04,1.43-.05c.51-.02.99-.04,1.46-.05.46-.02.86-.03,1.2-.04.34,0,.55-.02.64-.04.29-.02.59-.15.91-.38.32-.24.48-.64.48-1.22,0-.53-.07-1.13-.22-1.82-.15-.69-.38-1.34-.69-1.96-.32-.62-.72-1.14-1.21-1.56-.49-.43-1.09-.64-1.8-.64-.56,0-1.05.15-1.47.45-.42.3-.78.69-1.08,1.17-.3.48-.55,1.01-.75,1.59-.2.58-.36,1.15-.49,1.7-.13.55-.22,1.06-.29,1.52-.06.46-.11.81-.12,1.05Z"/>
      <path class="cls-2" d="M74.13,59.92c1.87,0,3.59.33,5.16.99,1.57.66,2.92,1.57,4.04,2.72,1.13,1.15,2,2.51,2.64,4.07.64,1.56.95,3.23.95,5.01s-.35,3.48-1.03,5.06c-.69,1.58-1.63,2.96-2.83,4.15-1.2,1.19-2.61,2.13-4.23,2.82-1.62.69-3.37,1.03-5.24,1.03s-3.59-.33-5.16-.99c-1.57-.66-2.92-1.57-4.04-2.72-1.12-1.15-2-2.5-2.64-4.06-.64-1.55-.95-3.23-.95-5.02s.34-3.46,1.03-5.05c.69-1.59,1.63-2.98,2.83-4.16,1.2-1.19,2.61-2.13,4.23-2.82,1.62-.69,3.37-1.03,5.24-1.03ZM73.85,84.34c.87,0,1.63-.3,2.27-.9.64-.6,1.18-1.42,1.61-2.46.43-1.04.75-2.26.97-3.66.22-1.4.33-2.89.33-4.46s-.11-3.07-.33-4.46c-.22-1.4-.54-2.62-.97-3.66-.43-1.04-.96-1.86-1.61-2.46-.64-.6-1.4-.9-2.27-.9s-1.63.3-2.27.9c-.64.6-1.18,1.42-1.62,2.46-.44,1.04-.76,2.26-.97,3.66-.21,1.4-.31,2.89-.31,4.46s.1,3.07.31,4.46c.21,1.4.53,2.62.97,3.66.44,1.04.97,1.86,1.62,2.46.64.6,1.4.9,2.27.9Z"/>
      <path class="cls-2" d="M141.43,90.54c.24.04.42.1.53.19.11.09.17.19.17.31s-.05.23-.14.35c-.09.12-.22.22-.39.29-1.31.59-2.73,1.04-4.25,1.33-1.52.3-3.2.44-5.05.44-2.27,0-4.41-.28-6.4-.85-1.99-.56-3.87-1.35-5.63-2.36-1.77-1.01-3.44-2.2-5.01-3.58-1.57-1.38-3.07-2.88-4.48-4.5-1.41-1.62-2.77-3.32-4.06-5.11-1.3-1.78-2.55-3.6-3.77-5.45-.09-.15-.2-.22-.32-.22s-.23.07-.32.22c-.13.2-.37.57-.72,1.1-.35.53-.76,1.15-1.22,1.86-.46.71-.95,1.47-1.47,2.28-.52.8-1.01,1.57-1.47,2.29-.46.72-.87,1.36-1.21,1.93-.34.56-.57.97-.68,1.21-.28.57-.37,1.03-.26,1.36.1.33.29.59.57.76.28.18.59.29.94.35.35.06.64.1.86.14.17.04.29.1.38.19.08.09.12.19.11.29,0,.1-.06.19-.15.28-.09.08-.23.12-.42.12h-9.71c-.18,0-.32-.04-.42-.12-.09-.08-.14-.18-.15-.29,0-.11.03-.21.11-.31.08-.09.21-.15.38-.17.28-.04.61-.1,1.01-.19.4-.09.83-.25,1.3-.47.47-.22.95-.53,1.44-.93s.98-.92,1.46-1.57c.2-.28.52-.73.94-1.35.42-.62.91-1.32,1.46-2.11.55-.79,1.12-1.62,1.72-2.5.6-.88,1.17-1.72,1.72-2.51.55-.8,1.03-1.5,1.46-2.12.43-.62.74-1.08.94-1.37.17-.26.18-.5.06-.72-.61-.94-1.21-1.87-1.79-2.79-.58-.92-1.17-1.82-1.76-2.71-1.31-2-2.67-3.77-4.08-5.33-1.41-1.55-2.9-2.93-4.47-4.12-1.57-1.19-3.25-2.23-5.04-3.11-1.78-.88-3.7-1.64-5.76-2.29-.41-.13-.58-.31-.51-.54.06-.23.25-.39.54-.49.17-.06.41-.12.73-.18.32-.06.71-.13,1.15-.19.44-.06.94-.12,1.5-.17.55-.05,1.14-.07,1.75-.07,2.63,0,5.06.35,7.31,1.05,2.25.7,4.34,1.67,6.29,2.9,1.94,1.23,3.76,2.68,5.45,4.34,1.69,1.66,3.31,3.45,4.84,5.36.17.2.31.3.43.28.12-.02.24-.13.37-.33.2-.33.47-.75.81-1.26.33-.51.68-1.05,1.05-1.62.37-.57.75-1.17,1.14-1.79.39-.62.75-1.2,1.1-1.73.34-.54.64-1.02.9-1.46.26-.43.44-.76.55-.99.3-.55.4-1,.31-1.33-.09-.33-.27-.59-.53-.76-.26-.18-.56-.3-.9-.36-.34-.06-.62-.12-.85-.15-.17-.02-.29-.08-.38-.18-.08-.1-.12-.2-.11-.31,0-.1.06-.19.15-.28.09-.08.23-.13.42-.13h9.6c.18,0,.32.04.42.13.09.08.14.18.15.29,0,.11-.03.21-.11.31-.08.09-.21.15-.38.17-.28.04-.61.1-1.01.19-.4.09-.83.25-1.29.49-.46.23-.94.55-1.44.94-.5.4-.99.91-1.47,1.54-.17.22-.42.56-.75,1.03-.33.46-.71,1-1.14,1.62-.43.62-.88,1.28-1.36,1.97-.48.69-.95,1.38-1.42,2.05-.46.68-.9,1.31-1.3,1.91-.41.6-.74,1.1-1,1.48-.09.13-.15.25-.18.35-.03.1,0,.23.1.37.96,1.3,1.9,2.61,2.83,3.95.93,1.34,1.84,2.68,2.73,4.01.9,1.33,1.79,2.65,2.69,3.94.9,1.3,1.81,2.54,2.73,3.75,1.55,2.09,3.17,3.82,4.84,5.19,1.67,1.37,3.4,2.49,5.17,3.36,1.78.87,3.59,1.54,5.44,2.03,1.85.48,3.74.87,5.66,1.17Z"/>
      <path class="cls-2" d="M58.25,47.31h-28.05c-.19,0-.34.04-.43.13-.1.09-.15.18-.16.29,0,.11.03.21.12.3.09.1.22.16.39.2.23.04.59.12,1.09.24.5.12,1,.35,1.51.68.51.33.95.77,1.34,1.32.33.47.51,1.08.55,1.8h.02v28.52c0,.9-.19,1.63-.58,2.19-.38.56-.83,1-1.34,1.32-.51.33-1.01.55-1.51.68-.5.13-.86.21-1.09.24-.17.04-.3.11-.39.2-.09.1-.12.2-.11.3,0,.11.06.2.16.29.1.09.24.13.43.13h18.35c.19,0,.34-.04.43-.13.1-.09.15-.18.16-.29,0-.11-.03-.21-.12-.3-.09-.1-.22-.16-.39-.2-.23-.04-.59-.12-1.09-.24-.5-.12-1-.35-1.51-.68-.51-.33-.95-.77-1.34-1.32-.38-.56-.58-1.28-.58-2.19v-12.94c0-.11.04-.22.13-.3.09-.09.19-.13.3-.13h3.68c.86,0,1.57.17,2.11.52.55.35.98.75,1.29,1.21.32.46.54.92.68,1.37.13.45.22.79.26,1.02.02.15.08.26.19.33s.21.1.32.09c.11,0,.2-.06.29-.14.09-.09.13-.21.13-.36v-9.78c0-.15-.04-.27-.13-.36-.09-.09-.18-.13-.29-.14-.11,0-.21.02-.32.09-.11.07-.17.18-.19.33-.04.23-.12.57-.26,1.02-.13.45-.36.91-.68,1.37-.32.46-.75.86-1.29,1.21-.55.35-1.25.52-2.11.52h-3.68c-.12,0-.22-.04-.3-.13-.09-.09-.13-.19-.13-.3v-12.14c0-.75.15-1.39.45-1.91.3-.53.71-.96,1.24-1.29.53-.34,1.16-.58,1.91-.73.75-.15,1.57-.23,2.47-.23,1.28,0,2.39.23,3.31.69.92.46,1.69.99,2.3,1.6.61.6,1.09,1.19,1.44,1.77.35.58.58.99.69,1.24.15.27.35.39.58.36.23-.03.35-.19.35-.47v-6.27c0-.36-.2-.55-.6-.55Z"/>
      <path class="cls-2" d="M52.59,4.87c0-.33-.37-.42-.59-.44,0,0,0,0-.01,0h-5.41c-.08,0-.15.02-.23.02-.51,0-1.02,0-1.53.01-.85,0-1.7,0-2.55.01-.34,0-.47.23-.31.53.1.18.25.27.44.32.38.09.75.18,1.13.27.65.16,1.26.41,1.81.81.77.55,1.3,1.27,1.35,2.24.09,1.52.17,3.05.22,4.57.05,1.83.07,3.67.09,5.51.03,2.8.05,5.59.07,8.39,0,.1-.05.26-.1.28-.11.02-.24-.02-.36-.06-.05-.02-.09-.08-.14-.13-4.35-5.08-8.37-10.41-12.01-16.02-.41-.63-.77-1.29-1.12-1.96-.22-.43-.35-.9-.28-1.4.14-1.08.75-1.78,1.76-2.14.29-.1.59-.2.88-.31.28-.11.33-.31.15-.55-.16-.21-.38-.29-.64-.29-3.11.03-6.22.05-9.33.08-5.96.06-11.93.13-17.89.19-1.87.02-3.74.02-5.6.03-.27,0-.54.02-.81.05-.42.05-.83.13-1.2.35-.26.16-.41.39-.36.71.06.47.43.88.9.93.42.05.85.03,1.27.04.88.03,1.62.32,2.22,1,1.06,1.21,2.03,2.49,2.87,3.85,2,3.23,3.99,6.47,5.99,9.7,4.18,6.77,8.51,13.44,13.14,19.92.06.09.13.18.21.26.17.17.38.23.62.16.23-.07.29-.25.33-.45.18-1.05.39-2.09.55-3.14.41-2.63.81-5.26,1.19-7.89.24-1.64.42-3.28.63-4.92.17-1.34.33-2.68.5-4.03.05-.43.11-.87.18-1.3.05-.28.27-.35.48-.16.04.04.08.08.12.13.16.2.32.41.48.61,4.72,5.98,9.44,11.96,14.17,17.94.73.93,1.48,1.85,2.24,2.76.13.15.33.28.52.34.32.11.56-.09.57-.43.02-.59.05-1.18.06-1.78.02-2.21.03-4.42.04-6.63,0-2.98.01-5.96.02-8.95,0-2.06-.02-4.12-.01-6.18,0-2.2.02-4.39.04-6.59,0-.88.02-1.77.08-2.64.08-1.13.61-2.01,1.59-2.59.39-.23.82-.4,1.24-.58.02,0,.04-.02.06-.03h0c.34-.09.3-.4.3-.4ZM28.04,22.61c-.13,1.27-.29,2.55-.44,3.82-.03.26-.06.51-.1.77-.04.24-.23.33-.43.19-.07-.05-.12-.11-.17-.18-3.58-4.85-6.95-9.85-10.01-15.05-.44-.75-.84-1.53-1.25-2.31-.23-.43-.39-.89-.46-1.39-.16-1.14.37-1.91,1.5-2.13.98-.19,1.95-.06,2.9.2,1.33.36,2.41,1.13,3.37,2.1.85.86,1.54,1.85,2.26,2.81.8,1.06,1.56,2.15,2.2,3.31.42.76.8,1.53.86,2.42.04.6.05,1.21.08,1.98-.1,1.05-.2,2.26-.32,3.47Z"/>
    </g>
  </g>
</svg>