<?xml version="1.0" encoding="UTF-8"?>
<svg id="Layer_2" data-name="Layer 2" xmlns="http://www.w3.org/2000/svg" viewBox="0 0 94.28 93.74">
  <defs>
    <style>
      .cls-1 {
        fill: #fff;
        stroke-width: 0px;
      }
    </style>
  </defs>
  <g id="Layer_1-2" data-name="Layer 1">
    <path class="cls-1" d="M49.3,88.9c-.21,0-.37.16-.37.37v.14c0,.21.16.39.37.39s.37-.18.37-.39v-.14c0-.21-.16-.37-.37-.37ZM53.41,90.28h-.17v-1c0-.22-.17-.38-.38-.38s-.38.16-.38.38v1h-.2c-.21,0-.38.17-.38.39,0,.21.17.38.38.38h.2v1.92c0,.43.34.77.77.77.21,0,.38-.17.38-.38s-.17-.39-.38-.39v-1.92h.17c.21,0,.39-.18.39-.38,0-.22-.18-.39-.39-.39ZM52.81,6.26c-3.32-1.14-4.35.28-5.39,2.93-1.04,2.65-5.01,20.25-8.14,44.1,0,0-3.55-21.67-2.17-47.6.63-2.93-.95-3.79-3.51-4.92-5.96-2.55-6.81,2.08-6.81,2.08,0,0-.77,3.44-1.89,11.65-2.93,20.72-5.39,56.4-5.39,56.4,0,0-8.4-21.37-9.05-50.89.15-1.94-.32-4.08-5.14-5.32C-1.03,13.04-.28,23.38.53,28.87c4.13,37.76,12.53,55.64,14.8,60.09,2.27,4.45,3.69,4.55,6.44,4.73,2.32.16,3.29-1.04,3.47-3.59h0s0-.04,0-.12c0-.1.01-.21.01-.32.18-3.71,1.51-30.58,3.08-43.84.05-.38.1-.77.14-1.15,1.33,11.07,5.11,28.87,6.82,33.78,1.7,4.92,6.91,3.88,8.89,3.31,1.99-.56,2.51-2.83,2.8-5.96.95-38.23,9.46-61.32,10.32-63.88.85-2.55-1.18-4.54-4.49-5.68ZM49.3,90.29c-.21,0-.37.16-.37.38v2.7c0,.21.16.37.37.37s.37-.17.37-.37v-2.7c0-.22-.16-.38-.37-.38ZM40.55,88.98c-.2-.08-.42,0-.51.21l-1.35,3.2-.9-2.13c-.07-.15-.22-.24-.36-.24-.15,0-.3.09-.36.24l-.89,2.13-1.36-3.2c-.07-.2-.3-.28-.48-.21-.2.08-.29.3-.21.5l1.7,4.03s.02.04.04.06h0s.02.03.04.04v.02s.04.03.06.03h0s.04.03.06.04c0,0,0,0,0,0,.02,0,.03.01.03.01h.04s.05,0,.05,0c.04,0,.06,0,.08,0h.08s0-.02,0-.02h0s.04-.03.06-.04h.01s.03-.03.04-.03c0,0,0,0,0-.02.01-.01.03-.03.04-.04h0s.02-.04.03-.06l.91-2.14.9,2.14s.01.04.03.06h.01s.02.03.03.04v.02s.04.03.06.03h0s.04.03.06.04t.02,0s.03.01.04.01h.03s.04,0,.06,0c0,0,.04,0,.07,0h.01s.04-.01.05-.01c0,0,0,0,0,0h0s.04-.03.06-.04h0s.04-.03.04-.03c0,0,0,0,0-.02.01-.01.03-.03.04-.04h0s.03-.04.04-.06l1.69-4.03c.08-.19,0-.42-.19-.5ZM44.8,90.28c-.27,0-.52.09-.74.2v-1.2c0-.22-.17-.38-.39-.38-.2,0-.38.16-.38.38v4.08s0,.07.02.1c.04.16.19.28.36.28.22,0,.39-.17.39-.38v-1.56c0-.41.34-.74.74-.75.41,0,.75.34.75.75v1.56c0,.21.16.38.38.38s.38-.17.38-.38v-1.56c0-.83-.67-1.52-1.51-1.52ZM79.84,91.8c-.21-.1-.42-.16-.65-.2h-.01c-.23-.04-.41-.11-.51-.17-.04-.03-.06-.06-.07-.07t-.01-.05s.02-.1.11-.16c.09-.07.24-.13.42-.13.22,0,.41.12.63.26.17.12.4.07.51-.1.1-.17.06-.4-.11-.5-.22-.16-.56-.39-1.03-.39-.32,0-.61.1-.86.26-.22.18-.41.45-.41.77,0,.16.04.31.12.43.13.18.29.31.48.4.18.09.38.14.6.19h0c.25.04.46.12.55.19.06.03.09.06.09.08.02.02.03.04.03.07,0,.05-.03.12-.13.21-.11.07-.28.13-.47.13-.26,0-.58-.15-.76-.3-.15-.13-.4-.12-.52.05-.12.15-.1.39.05.51.27.22.69.47,1.23.48.34,0,.65-.1.9-.27.25-.18.44-.47.44-.81,0-.16-.05-.32-.13-.46-.12-.19-.31-.33-.49-.41ZM87.65,91.02c.26,0,.48.09.65.22.16.12.38.1.52-.07.11-.15.08-.38-.08-.5-.29-.23-.68-.39-1.1-.39-.96,0-1.76.78-1.76,1.74s.8,1.72,1.76,1.72c.41,0,.81-.15,1.1-.36.16-.14.19-.36.08-.51-.14-.17-.37-.2-.52-.08-.18.13-.41.22-.65.22-.56,0-1.02-.46-1.02-.99s.46-1,1.02-1ZM94.07,5.97c-.62-.95-1.7-1.42-2.94.09-1.23,1.52-2.84,5.97-4.73,14.19,0,0-.13-9.65.15-13.9h0c.02-.16.03-.28.04-.38.18-1.52-.1-2.36-1.99-2.94-1.9-.56-3.41-.37-4.73,1.8-1.33,2.18-4.73,14.48-7.67,34.17-.85-4.45-2.56-23-2.27-24.89.28-1.9-.09-4.45-3.79-5.87-3.69-1.42-7.58,6.5-11.36,22.45-4.12,17.41-4.54,38.12-4.44,41.71.1,3.59,1.23,4.07,4.73,5.3,3.51,1.23,4.55-2.17,5.58-7.38,1.04-5.2-1.42-5.2-1.42-5.2.04-4.21,1.65-22.47,3.85-31.35.36,6.52,3.41,25.76,4.26,30.31.85,4.54,5.04,6.03,7.31,5.04,2.27-1,1.91-2.56,1.91-4.97-.28-17.67,4.1-33.77,4.1-33.77,0,0,.04,13.59.85,16.09,1.23,3.03,4.4,4.21,6.25,2.46,1.84-1.76,1.32-3.02,2.32-17.37.99-14.34,2.55-19.63,3.12-21.24.57-1.61,1.47-3.41.85-4.35ZM83.18,88.9c-.2,0-.37.16-.37.37v.14c0,.21.17.39.37.39.22,0,.38-.18.38-.39v-.14c0-.21-.16-.37-.38-.37ZM69.03,88.9h0c-.12,0-.24.05-.31.16l-1.37,1.91-1.38-1.91c-.07-.1-.19-.16-.31-.16h-.02c-.21,0-.38.17-.38.38v4.08c0,.21.17.38.38.38s.39-.17.39-.38v-2.91l.99,1.39c.07.1.19.16.32.16h.01c.12,0,.23-.05.31-.16l.99-1.39v2.91c0,.21.17.38.38.38.2,0,.38-.17.38-.38v-4.08c0-.21-.18-.38-.38-.38ZM57.57,90.28c-.95,0-1.68.79-1.69,1.73,0,.94.74,1.72,1.69,1.73.49,0,.9-.14,1.24-.45.16-.15.09-.35,0-.45-.09-.11-.38-.13-.52.02-.18.13-.47.19-.72.17-.24-.02-.52-.14-.67-.31-.12-.11-.2-.29-.23-.46h2.2c.2,0,.34-.1.36-.27,0-.01,0-.04,0-.06v-.03c-.05-.94-.77-1.61-1.67-1.61ZM56.63,91.68c.06-.28.35-.7.94-.73.6.04.95.46,1.02.73h-1.96ZM83.18,90.29c-.2,0-.37.16-.37.38v2.7c0,.21.17.37.37.37.22,0,.38-.17.38-.37v-2.7c0-.22-.16-.38-.38-.38ZM74.85,90.28c-.2,0-.36.18-.36.37v1.65c0,.4-.32.7-.73.7s-.71-.31-.71-.7v-1.65c0-.19-.16-.37-.36-.37s-.37.18-.37.37v1.65c0,.79.65,1.44,1.44,1.44s1.46-.65,1.46-1.44v-1.65c0-.19-.18-.37-.37-.37Z"/>
  </g>
</svg>